<mxfile host="app.diagrams.net" agent="Mozilla/5.0 (Macintosh; Intel Mac OS X 10_15_7) AppleWebKit/537.36 (KHTML, like Gecko) Chrome/127.0.0.0 Safari/537.36" version="24.7.7">
  <diagram name="Page-1" id="nWkfMb4m2L9-upkesBoC">
    <mxGraphModel dx="1206" dy="679" grid="0" gridSize="10" guides="1" tooltips="1" connect="1" arrows="1" fold="1" page="1" pageScale="1" pageWidth="850" pageHeight="1100" math="0" shadow="0">
      <root>
        <mxCell id="0" />
        <mxCell id="1" parent="0" />
        <mxCell id="kyvqr4E2ZVsF8LEO7qvA-1" value="" style="shape=cylinder3;whiteSpace=wrap;html=1;boundedLbl=1;backgroundOutline=1;size=15;" vertex="1" parent="1">
          <mxGeometry x="665.5" y="168" width="94.5" height="103" as="geometry" />
        </mxCell>
        <mxCell id="kyvqr4E2ZVsF8LEO7qvA-3" value="" style="rounded=1;whiteSpace=wrap;html=1;" vertex="1" parent="1">
          <mxGeometry x="394" y="187" width="132" height="65" as="geometry" />
        </mxCell>
        <mxCell id="kyvqr4E2ZVsF8LEO7qvA-5" style="edgeStyle=orthogonalEdgeStyle;rounded=0;orthogonalLoop=1;jettySize=auto;html=1;exitX=1;exitY=0.5;exitDx=0;exitDy=0;entryX=0;entryY=0.5;entryDx=0;entryDy=0;endArrow=classic;endFill=1;startArrow=none;startFill=0;strokeColor=#306091;strokeWidth=2;" edge="1" parent="1" source="kyvqr4E2ZVsF8LEO7qvA-4" target="kyvqr4E2ZVsF8LEO7qvA-3">
          <mxGeometry relative="1" as="geometry" />
        </mxCell>
        <mxCell id="kyvqr4E2ZVsF8LEO7qvA-4" value="" style="rounded=1;whiteSpace=wrap;html=1;" vertex="1" parent="1">
          <mxGeometry x="156" y="187" width="132" height="65" as="geometry" />
        </mxCell>
        <mxCell id="kyvqr4E2ZVsF8LEO7qvA-6" style="edgeStyle=orthogonalEdgeStyle;rounded=0;orthogonalLoop=1;jettySize=auto;html=1;exitX=1;exitY=0.5;exitDx=0;exitDy=0;entryX=0;entryY=0.5;entryDx=0;entryDy=0;endArrow=classic;endFill=1;startArrow=none;startFill=0;entryPerimeter=0;strokeColor=#CC0000;strokeWidth=2;" edge="1" parent="1" target="kyvqr4E2ZVsF8LEO7qvA-1">
          <mxGeometry relative="1" as="geometry">
            <mxPoint x="524" y="219" as="sourcePoint" />
            <mxPoint x="630" y="219" as="targetPoint" />
          </mxGeometry>
        </mxCell>
        <mxCell id="kyvqr4E2ZVsF8LEO7qvA-7" value="" style="rounded=1;whiteSpace=wrap;html=1;" vertex="1" parent="1">
          <mxGeometry x="442" y="344" width="132" height="65" as="geometry" />
        </mxCell>
        <mxCell id="kyvqr4E2ZVsF8LEO7qvA-15" style="edgeStyle=orthogonalEdgeStyle;rounded=0;orthogonalLoop=1;jettySize=auto;html=1;entryX=0.5;entryY=1;entryDx=0;entryDy=0;strokeWidth=2;strokeColor=#306091;" edge="1" parent="1" source="kyvqr4E2ZVsF8LEO7qvA-8" target="kyvqr4E2ZVsF8LEO7qvA-11">
          <mxGeometry relative="1" as="geometry" />
        </mxCell>
        <mxCell id="kyvqr4E2ZVsF8LEO7qvA-8" value="User" style="sketch=0;aspect=fixed;pointerEvents=1;shadow=0;dashed=0;html=1;strokeColor=none;labelPosition=center;verticalLabelPosition=bottom;verticalAlign=top;align=center;fillColor=#97D077;shape=mxgraph.azure.laptop" vertex="1" parent="1">
          <mxGeometry x="180" y="535" width="85" height="51" as="geometry" />
        </mxCell>
        <mxCell id="kyvqr4E2ZVsF8LEO7qvA-13" style="edgeStyle=orthogonalEdgeStyle;rounded=0;orthogonalLoop=1;jettySize=auto;html=1;entryX=0;entryY=0.5;entryDx=0;entryDy=0;strokeWidth=2;strokeColor=#306091;" edge="1" parent="1" source="kyvqr4E2ZVsF8LEO7qvA-11" target="kyvqr4E2ZVsF8LEO7qvA-7">
          <mxGeometry relative="1" as="geometry" />
        </mxCell>
        <mxCell id="kyvqr4E2ZVsF8LEO7qvA-14" style="edgeStyle=orthogonalEdgeStyle;rounded=0;orthogonalLoop=1;jettySize=auto;html=1;exitX=0.5;exitY=0;exitDx=0;exitDy=0;startArrow=none;startFill=0;strokeWidth=2;strokeColor=#306091;" edge="1" parent="1" source="kyvqr4E2ZVsF8LEO7qvA-11" target="kyvqr4E2ZVsF8LEO7qvA-4">
          <mxGeometry relative="1" as="geometry" />
        </mxCell>
        <mxCell id="kyvqr4E2ZVsF8LEO7qvA-11" value="" style="rounded=1;whiteSpace=wrap;html=1;" vertex="1" parent="1">
          <mxGeometry x="159" y="344" width="127" height="65" as="geometry" />
        </mxCell>
        <mxCell id="kyvqr4E2ZVsF8LEO7qvA-12" style="edgeStyle=orthogonalEdgeStyle;rounded=0;orthogonalLoop=1;jettySize=auto;html=1;entryX=0;entryY=0.5;entryDx=0;entryDy=0;entryPerimeter=0;strokeColor=#CC0000;strokeWidth=2;" edge="1" parent="1" source="kyvqr4E2ZVsF8LEO7qvA-7" target="kyvqr4E2ZVsF8LEO7qvA-1">
          <mxGeometry relative="1" as="geometry" />
        </mxCell>
        <mxCell id="kyvqr4E2ZVsF8LEO7qvA-16" value="" style="shape=image;verticalLabelPosition=bottom;labelBackgroundColor=default;verticalAlign=top;aspect=fixed;imageAspect=0;image=https://upload.wikimedia.org/wikipedia/commons/thumb/4/44/Spring_Framework_Logo_2018.svg/1200px-Spring_Framework_Logo_2018.svg.png;" vertex="1" parent="1">
          <mxGeometry x="403.5" y="191.40999999999994" width="109" height="28.07" as="geometry" />
        </mxCell>
        <mxCell id="kyvqr4E2ZVsF8LEO7qvA-17" value="" style="shape=image;verticalLabelPosition=bottom;labelBackgroundColor=default;verticalAlign=top;aspect=fixed;imageAspect=0;image=https://logos-world.net/wp-content/uploads/2023/08/React-Symbol.png;" vertex="1" parent="1">
          <mxGeometry x="166" y="179" width="94" height="52.88" as="geometry" />
        </mxCell>
        <mxCell id="kyvqr4E2ZVsF8LEO7qvA-20" value="Moodboard-backend" style="text;html=1;align=center;verticalAlign=middle;resizable=0;points=[];autosize=1;strokeColor=none;fillColor=none;" vertex="1" parent="1">
          <mxGeometry x="394" y="220" width="128" height="26" as="geometry" />
        </mxCell>
        <mxCell id="kyvqr4E2ZVsF8LEO7qvA-21" value="Moodboard-frontend" style="text;html=1;align=center;verticalAlign=middle;resizable=0;points=[];autosize=1;strokeColor=none;fillColor=none;" vertex="1" parent="1">
          <mxGeometry x="161" y="220" width="127" height="26" as="geometry" />
        </mxCell>
        <mxCell id="kyvqr4E2ZVsF8LEO7qvA-22" value="Database Client" style="text;html=1;align=center;verticalAlign=middle;resizable=0;points=[];autosize=1;strokeColor=none;fillColor=none;" vertex="1" parent="1">
          <mxGeometry x="457" y="383" width="103" height="26" as="geometry" />
        </mxCell>
        <mxCell id="kyvqr4E2ZVsF8LEO7qvA-23" value="Reverse Proxy" style="text;html=1;align=center;verticalAlign=middle;resizable=0;points=[];autosize=1;strokeColor=none;fillColor=none;" vertex="1" parent="1">
          <mxGeometry x="174" y="380" width="97" height="26" as="geometry" />
        </mxCell>
        <mxCell id="kyvqr4E2ZVsF8LEO7qvA-24" value="" style="shape=image;verticalLabelPosition=bottom;labelBackgroundColor=default;verticalAlign=top;aspect=fixed;imageAspect=0;image=https://download.logo.wine/logo/Nginx/Nginx-Logo.wine.png;clipPath=inset(34% 5.67% 34% 6%);" vertex="1" parent="1">
          <mxGeometry x="164" y="351.74" width="108.72" height="26.26" as="geometry" />
        </mxCell>
        <mxCell id="kyvqr4E2ZVsF8LEO7qvA-25" value="" style="shape=image;verticalLabelPosition=bottom;labelBackgroundColor=default;verticalAlign=top;aspect=fixed;imageAspect=0;image=data:image/png,iVBORw0KGgoAAAANSUhEUgAAArwAAADSCAYAAACo2xNAAAAMP2lDQ1BJQ0MgUHJvZmlsZQAASImVVwdYU8kWnluSkEBoAQSkhN4EESkBpITQQu9NVEISIJQYA0HFji4quHaxgA1dFVGw0iwoYmdR7H2xoKCsiwW78iYFdN1XvjffN3f++8+Z/5w5d+beOwConeCIRLmoOgB5wgJxTJAfPSk5hU7qAUSAAxqgAAqHmy9iRkWFAViG2r+XdzcAIm2v2ku1/tn/X4sGj5/PBQCJgjidl8/Ng/gQAHglVyQuAIAo5c2mFoikGFagJYYBQrxIijPluFKK0+V4n8wmLoYFcRsASiocjjgTANXLkKcXcjOhhmo/xI5CnkAIgBodYu+8vMk8iNMgtoY2Ioil+oz0H3Qy/6aZPqzJ4WQOY/lcZEXJX5AvyuVM/z/T8b9LXq5kyIclrCpZ4uAY6Zxh3m7lTA6VYhWI+4TpEZEQa0L8QcCT2UOMUrIkwfFye9SAm8+COQM6EDvyOP6hEBtAHCjMjQhT8OkZgkA2xHCFoNMEBew4iHUhXsTPD4hV2GwRT45R+ELrM8QspoI/xxHL/Ep9PZDkxDMV+q+z+GyFPqZalBWXCDEFYvNCQUIExKoQO+TnxIYqbMYVZbEihmzEkhhp/OYQx/CFQX5yfawwQxwYo7Avzcsfmi+2JUvAjlDgAwVZccHy/GBtXI4sfjgX7DJfyIwf0uHnJ4UNzYXH9w+Qzx3r4QvjYxU6H0QFfjHysThFlBulsMdN+blBUt4UYuf8wljFWDyhAC5IuT6eISqIipPHiRdlc0Ki5PHgy0EYYAF/QAcSWNPBZJANBB19DX3wTt4TCDhADDIBH9grmKERibIeIbzGgiLwJ0R8kD88zk/WyweFkP86zMqv9iBD1lsoG5EDnkKcB0JBLryXyEYJh70lgCeQEfzDOwdWLow3F1Zp/7/nh9jvDBMyYQpGMuSRrjZkSQwg+hODiYFEG1wf98Y98TB49YXVCWfg7kPz+G5PeEroJDwiXCd0EW5PEhSLf4oyHHRB/UBFLtJ/zAVuCTVdcD/cC6pDZVwH1wf2uDP0w8R9oGcXyLIUcUuzQv9J+28z+OFpKOzIjmSUPILsS7b+eaSqrarLsIo01z/mRx5r+nC+WcM9P/tn/ZB9HmxDf7bEFmEHsbPYSew8dhRrAHSsBWvE2rFjUjy8up7IVteQtxhZPDlQR/APf0NPVprJfMcax17HL/K+Av406TsasCaLposFmVkFdCb8IvDpbCHXYRTdydHJGQDp90X++noTLftuIDrt37n5fwDg1TI4OHjkOxfSAsB+N7j9m75z1gz46VAG4FwTVyIulHO49EKAbwk1uNP0gBEwA9ZwPk7AFXgCXxAAQkAkiAPJYCKMPguuczGYCmaCeaAElIHlYA3YADaDbWAX2AsOgAZwFJwEZ8BFcBlcB3fh6ukGL0A/eAc+IwhCQqgIDdFDjBELxA5xQhiINxKAhCExSDKShmQiQkSCzETmI2XISmQDshWpRvYjTchJ5DzSidxGHiK9yGvkE4qhKqgWaohaoqNRBspEQ9E4dAKaiU5Bi9AF6FJ0HVqF7kHr0ZPoRfQ62oW+QAcwgCljOpgJZo8xMBYWiaVgGZgYm42VYuVYFVaLNcPnfBXrwvqwjzgRp+F03B6u4GA8HufiU/DZ+BJ8A74Lr8fb8Kv4Q7wf/0agEgwIdgQPApuQRMgkTCWUEMoJOwiHCafhXuomvCMSiTpEK6Ib3IvJxGziDOIS4kZiHfEEsZP4mDhAIpH0SHYkL1IkiUMqIJWQ1pP2kFpIV0jdpA9KykrGSk5KgUopSkKlYqVypd1Kx5WuKD1T+kxWJ1uQPciRZB55OnkZeTu5mXyJ3E3+TNGgWFG8KHGUbMo8yjpKLeU05R7ljbKysqmyu3K0skB5rvI65X3K55QfKn9U0VSxVWGppKpIVJaq7FQ5oXJb5Q2VSrWk+lJTqAXUpdRq6inqA+oHVZqqgypblac6R7VCtV71iupLNbKahRpTbaJakVq52kG1S2p96mR1S3WWOkd9tnqFepP6TfUBDZrGGI1IjTyNJRq7Nc5r9GiSNC01AzR5mgs0t2me0nxMw2hmNBaNS5tP2047TevWImpZabG1srXKtPZqdWj1a2tqO2snaE/TrtA+pt2lg+lY6rB1cnWW6RzQuaHzaYThCOYI/ojFI2pHXBnxXnekrq8uX7dUt073uu4nPbpegF6O3gq9Br37+ri+rX60/lT9Tfqn9ftGao30HMkdWTrywMg7BqiBrUGMwQyDbQbtBgOGRoZBhiLD9YanDPuMdIx8jbKNVhsdN+o1phl7GwuMVxu3GD+na9OZ9Fz6Onobvd/EwCTYRGKy1aTD5LOplWm8abFpnel9M4oZwyzDbLVZq1m/ubF5uPlM8xrzOxZkC4ZFlsVai7MW7y2tLBMtF1o2WPZY6VqxrYqsaqzuWVOtfaynWFdZX7Mh2jBscmw22ly2RW1dbLNsK2wv2aF2rnYCu412naMIo9xHCUdVjbppr2LPtC+0r7F/6KDjEOZQ7NDg8HK0+eiU0StGnx39zdHFMddxu+PdMZpjQsYUj2ke89rJ1onrVOF0bSx1bODYOWMbx75ytnPmO29yvuVCcwl3WejS6vLV1c1V7Frr2utm7pbmVul2k6HFiGIsYZxzJ7j7uc9xP+r+0cPVo8DjgMdfnvaeOZ67PXvGWY3jj9s+7rGXqRfHa6tXlzfdO817i3eXj4kPx6fK55GvmS/Pd4fvM6YNM5u5h/nSz9FP7HfY7z3LgzWLdcIf8w/yL/XvCNAMiA/YEPAg0DQwM7AmsD/IJWhG0IlgQnBo8Irgm2xDNpddze4PcQuZFdIWqhIaG7oh9FGYbZg4rDkcDQ8JXxV+L8IiQhjREAki2ZGrIu9HWUVNiToSTYyOiq6IfhozJmZmzNlYWuyk2N2x7+L84pbF3Y23jpfEtyaoJaQmVCe8T/RPXJnYlTQ6aVbSxWT9ZEFyYwopJSFlR8rA+IDxa8Z3p7qklqTemGA1YdqE8xP1J+ZOPDZJbRJn0sE0Qlpi2u60L5xIThVnIJ2dXpnez2Vx13Jf8Hx5q3m9fC/+Sv6zDK+MlRk9mV6ZqzJ7s3yyyrP6BCzBBsGr7ODszdnvcyJzduYM5ibm1uUp5aXlNQk1hTnCtslGk6dN7hTZiUpEXVM8pqyZ0i8OFe/IR/In5DcWaMEf+XaJteQXycNC78KKwg9TE6YenKYxTTitfbrt9MXTnxUFFv02A5/BndE602TmvJkPZzFnbZ2NzE6f3TrHbM6COd1zg+bumkeZlzPv92LH4pXFb+cnzm9eYLhg7oLHvwT9UlOiWiIuubnQc+HmRfgiwaKOxWMXr1/8rZRXeqHMsay87MsS7pILv475dd2vg0szlnYsc122aTlxuXD5jRU+K3at1FhZtPLxqvBV9avpq0tXv10zac35cufyzWspayVru9aFrWtcb75++fovG7I2XK/wq6irNKhcXPl+I2/jlU2+m2o3G24u2/xpi2DLra1BW+urLKvKtxG3FW57uj1h+9nfGL9V79DfUbbj607hzq5dMbvaqt2qq3cb7F5Wg9ZIanr3pO65vNd/b2Otfe3WOp26sn1gn2Tf8/1p+28cCD3QepBxsPaQxaHKw7TDpfVI/fT6/oashq7G5MbOppCm1mbP5sNHHI7sPGpytOKY9rFlxynHFxwfbClqGTghOtF3MvPk49ZJrXdPJZ261hbd1nE69PS5M4FnTp1lnm0553Xu6HmP800XGBcaLrperG93aT/8u8vvhztcO+ovuV1qvOx+ublzXOfxKz5XTl71v3rmGvvaxesR1ztvxN+4dTP1Ztct3q2e27m3X90pvPP57tx7hHul99Xvlz8weFD1h80fdV2uXcce+j9sfxT76O5j7uMXT/KffOle8JT6tPyZ8bPqHqeeo72BvZefj3/e/UL04nNfyZ8af1a+tH556C/fv9r7k/q7X4lfDb5e8kbvzc63zm9bB6IGHrzLe/f5fekHvQ+7PjI+nv2U+OnZ56lfSF/WfbX52vwt9Nu9wbzBQRFHzJH9CmCwohkZALzeCQA1GQAaPJ9RxsvPf7KCyM+sMgT+E5afEWXFFYBa+P8e3Qf/bm4CsG87PH5BfbVUAKKoAMS5A3Ts2OE6dFaTnSulhQjPAVtiv6bnpYN/U+Rnzh/i/rkFUlVn8HP7L4t5fEACVJAdAAAAOGVYSWZNTQAqAAAACAABh2kABAAAAAEAAAAaAAAAAAACoAIABAAAAAEAAAK8oAMABAAAAAEAAADSAAAAAICrErMAAEAASURBVHgB7L1pkGXHded33l772l29L+gFQGNpkCAogNsQpERBIilZoqmRRmMpNB47bEd4JiSHLTvC/iB/ccwnyxG2QzEaTUxoYmYsiaNlJEqUxB0gQKCJfel937fq2utV1dv8+5+8971X1dVANdHoLnRnVr275M31n3nz/u+5J09mGjiLLiIQEYgIRAQiAhGBiEBEICJwlyKQvUvrFasVEYgIRAQiAhGBiEBEICIQEXAEIuGNHSEiEBGICEQEIgIRgYhAROCuRiAS3ru6eWPlIgIRgYhARCAiEBGICEQEIuGNfSAiEBGICEQEIgIRgYhAROCuRiAS3ru6eWPlIgIRgYhARCAiEBGICEQEIuGNfSAiEBGICEQEIgIRgYhAROCuRiAS3ru6eWPlIgIRgYhARCAiEBGICEQEIuGNfSAiEBGICEQEIgIRgYhAROCuRiAS3ru6eWPlIgIRgYhARCAiEBGICEQE8hGCiMCHFQEtEZixsFBgnSM5f4Or66Bh2umX4xeucrDItfl6YsstOtgKk151H1+gkKPW5UUpx5OIQEQgIhARiAhEBFYPAlHCu3raIpbkx0WgUYfYBoLrpFQbCKn+ajpcLt0GTNXDtQVIIoeYbbE4XBo0eLSFWS6P6BcRiAhEBCICEYGIwKpAINPArYqSxEJEBG4GgZSBehzIbjbIeiVwDULXhmUI06hlLKPXuhtIYtt5r5JSsgqelWhYTryYn4iz+8tPgZS4uxsknFyNu4hARCAiEBGICEQE7jwCkfDe+TaIJfixEIBw1hOyqV3KOxMyCt0NXiKu7dfb8kopa5tX8/B6PqvQaYysE2AlGz+RNCGLBxGBiEBEICIQEVi1CEQd3lXbNLFgN0IgVTlAqItjo70TXZ0GhuuXdLnJSBXretcM5xdbCS3i0n5NG34EkfqECHV0EYGIQEQgIhARiAh8OBCIEt4PRzvFUrYhIMJZgXbmYbNZiKeoqHhtFT/95XUFHQQp62RcN4Gr4qf8EtrqqblX6sE+hCditpqkyPug9BlS9QaS0ak8WgoUTUbtacZNRCAiEBGICEQEIgKrD4FIeFdfm8QSrQgBWKizT2egHBMJcluD9uYaBcgt/kxms8w8FzpSpsqxAsopHsceLrmsS3h7inVIb6rXkMHOQ6NFbD0FlyQrbMtfqUYXEYgIRAQiAhGBiMDqQyCqNKy+NoklWhECCWGF9IqLOjdFRJuBwNb1q9YtOzdjC0cPWH1s0hrVGtJeiGuxaJmCfgXLlDos01G0bG8f+5LVC3nLlbqskUNynBWRlWg3KFBI/JsRwdY/P1IPxHhFZY2BIgIRgYhARCAiEBG4kwhEwnsn0Y95/1gISMIKfbV8YLlQUiaoiYTy07ELauvIei9etYl/96eWOfaGWXnKsvmiWe+AZfqGLNPVbZmhYcsM9Fvh/vstt3aNZbq7Lbdxo1k+b41CCYKchUzLiq94LqoOpO/KE2LYZOL81/3kH11EICIQEYgIRAQiAqsVgUh4V2vLxHK9KwJBkQC2yb/ksJrAlnUVB07wqFaq1ihPW+PSGZu7eMZsYY4wKCBcPOtxqiKsRK5IcRdSO8cuXyxZrm/QBvc8asVH91rp8SesuHOXVTs74cA5ZLpoDzek6qDcJeENpXjXgsaLEYGIQEQgIhARiAjccQQi4b3jTRALcLMIuFAVghokrg2nnn7qF5DwciJO2mjMW65eNhQYoKoZVlzTtYavvBY6fkPavagq1KwH/2wFpjwBoX3zZaucPWXzb7xhpYcescKDeyyzfatl1q+3RqkEUYbsEt5lyRItRxcRiAhEBCICEYGIwKpGIBLeVd08H+7CpYbAEou4rcqIncot4YpNDhuuNrfX+YvQ+lVdEfEM50HjFmKbCl6ZtJZhieEcpFR/2lchqjVFw+WIKF1dkWClQVCrLsxbvXLFGuNXrHzsgGWPHrT6lU9bo/KUZTq7LDe4xhrcNRnpT6T5eGrtmyQD91LK0UUEIgIRgYhARCAicCcRiIT3TqJ/l+ct82EipDmRQ5eEao9XPfjLr4Eugqvi4u+qCVxWkNQlIT0l55cJl/QkneyG0Ahp0UyA0OKnSWtOSLHWUK3TxSG0KodLd9sTx7cuUsxfDpGwCHqe6wqtsvSSYf3yaZv/y//PJr/1l9b15Get5yv/yDqfeAK2rDAEIHAoFweqI7s6zNllyq5iQcAleZJ0dBGBiEBEICIQEYgI3EYEIuG9jWDfa1lJ69UdhC9MKAvcT7q0Tg7lTwBJWuW080MxTrnEP5ws3iYpOzlVcJHmhiwz5KDZkNeMLJPBNfPSz6UcIrVKTvFExGsiwSLG7pdYYuBYTumpXDqQ6oJ0dzNTkza/7wXLzM7b1LGjNvT5n7Lc0JA1ikxwI7CsQ7hjp6Nwlvj5BaXafu6ecRMRiAhEBCICEYGIwG1AIBLe2wDyPZuFOJ5+cnC99FCsM70U1B50pkUkcGmgZJ/yyPSSn6dhSFR/Iqe+6poILL8K55lqxQmwzVWR9mLTIeGaQeqs4hAPMhuS0hl+SRnlp3Tcj2N4s5dtfnLUJl5+znLjY9azbpMV9zxg+fVDXC16OkovJ4m1x0wpOZfdearpSdxHBCICEYGIQEQgInAbEVj6VL6NWces7gkEEqIp/VgRRzkRVNE//UIHxEdi0tTpglwSKCWeqZf4pAdJw+lCwkpFYUWBRZ8b5ZpNT8zYbHXB5iG9c+QxW6/bPMTUrTMQMqvZbUovKWeapMrlk9JIT36y6lAgTMfCrBWPvW3X/vXv2dyr+6w+O6HcQ3zIrsdXYvqlLFvXwxUPGzcRgYhARCAiEBGICNxeBKKE9/bifW/lJhIpBqhVycT/OJSlhCa7FBpOCnUxkMU2jqirwXkaih9oo5NKT01pJdJdhYRkanEILTnc6CpZ8YFN1vUbX7X66ITlIbuy21udmrbc9IzVxyexyDBujekJa0yM2tz0pBVITGWUS/PSuX5Sw0gntxWqqDWceMsqP/yOzQ/1WMcTn0OFguseWcQ90GWvO2dyabrhLG4jAhGBiEBEICIQEbidCETCezvRvufygo1CMpvSTZ02MQhHCFvxzDW5oZ/qEheCakASwS8ovlJrpSKizHw1d1JDcMUIFxajQTwwaMPPfMEa86QvNoqUt44urshufWLCqqNXWIVt1GZPnbQ59HJrUyxOMXXVivWK6+5qbl2SLdmQK0lIG7iOlDhXn7Py229YtX8tC1d8FPu9vejzBnm1F08RF7m2Mi/yjycRgYhARCAiEBGICHzQCDAnxynHB51PTP+eRCBozGorIiqy6g5pq2swiKlqJTOpAsAVU2IsopvSQ9+n5FEz05pOx0oxEF6d6SfNhpynq8vKZ54QHYHwqqs7i4URy6wDVLk+P2eNmbLNv7XfqsdO2eW//XNbOHvYBilPWobUuoPO9ROf1qQ36LE1Nu6w7b/zL6ywe4fVe3uQIiuE6poETDhwizrrQnQRgYhARCAiEBGICNxOBKKE93aifY/lJTIqyWoOnikBq36ip/XZKaucumAL4zNWHBiy4q7tlk2ko4oTaLJTRkfMOaQzWk8APyUYwFSovEt0OYBc1uQhkunhIZ6ZTk/PJbTyg1xbJo/ViJwT10YxZ/nOkpU+8pAVWFxi4/aNdvE//okVTh6wmbEr1ik7vURTsnIhW9H3unVzXpgct/mX9yFN7rVCX18omrLw0G2bUPk2j3gYEYgIRAQiAhGBiMDtQiAS3tuF9D2Yj/Rppb4rAtqoyd5tzSqXzlr17Dmb/8FLVkG3tr55CxeftMJ92y1T6oagauEISW6XqC4swg86CfOUDV8no4h1XfiLt3NdEc4QJJDaUARPO01GZdNEumymBGMuWH4tK6itWWP5LZutb3bGqs92WO3VH1pljklqnkuIKQExlN1NqeWQ8maZxFb90QtW2/uIFXcg5aUEofSUQeTaS0CpdBhdRCAiEBGICEQEIgJ3BIFIeO8I7PdIptJbgPSFpR3YT0zZ/EuvWOWVfXbwb//aspgOG9iw1QYnz1n/f/YVK973oDUKTGsjmsiiyOwNnYt9nfd6OHHLdLnfhusNK36QzoqCpoRYMSRF9n8ycNUKkVQkuTUSyXdkbfiLP2PlblZVm52zqTdfsnwNnV6iiEx7thBd1wnmvDw/a5Ov77Pt579EYqTcJLYhH9VeMVWX5iWOo4sIRAQiAhGBiEBE4PYhEAnv7cP63stJIlQIX521fDMzFZv95nftwn/6M+s+d9g227zlClhNGDtrl7/xV9YxvN4Wsl3Wc982a7A2sEuHE5bqZLGNLeo84axNU2dN6isGC2NO9YCzUg5OnbinyDBp+SEE1/V9dZ1Eg4kybPYW8pbf/ZB1fv5LduXgfuueu+Zk1ctBUOnpqjjSApYbop712VmrlMuW7+rhWiC7ykM6xXJp3HAWtxGBiEBEICIQEYgI3E4EIuG9Dm2nU0t829jWkitLQ9845JKIH9LTKlRRElP9ROicTnLgPBN2p0/+WRfR1pzkWQUFgLOXrHb+klVeeNY6zxy0ankCE2CQTWI3qjXLTY1bZd+zVuzrt1p/iRXM1iEsldSVdLPVkEuY1RbEpIB8Pc6JJ7q5Sjm4xC9tpISA65pq4KkoaHI90FjyZem37PCQ5XdsslpXh2XmUMaQ+kKahRKQI54kvQuqPKoP2bmyZbqKePJLwsLeOU4LgGd0EYGIQEQgIhARiAjcdgTuWcKbUpAU8RYV0VH71daVNOy9vNd0Lf9AD8nT53upDSRrN1i1VrVcXibG+NNawhDA6sVLNvft71vl1R/ZuRe/bX2ZmpWIICmpUFboXo4vvvySrWGRCCXa8enPWmH9BieKIqE+kY3knK8SJ8Rcrl2W80taq3kplN/VGtKG1DUK4+mqMrhMR6fl1q6xUv+AZSeuWh31i+CQ5uq6/1CB4GABMlyfnrU5dJK7B3v9LUBh9PNllJ0sq7bNQnAcXUQgIhARiAhEBCICtwuBe5LwttPZFOjFdGTlxEQhl0svTfdu22fF4kTcXG2gwWd9IYBElPN8XlR3QWcs6FCzhZMn7J3/+3et8+gRK2HfVp/+cxBKCVW1DG8WvVnRyxIktwczYdeOHbI3fv9f2VNr11u1pwuJbx8WHiQhDeoDkrAGaamUCW6i6zYlrERTjjSYknLnB6kHe+k7cDWXZ6paZ5fVcy0bwYqottZPTmRWJHlBJ0ig8yoW9UvDNEmvrusFIHBpnUUXEYgIRAQiAhGBiMBtROAmWMNtLNUdykpEpUmEbqIMP06cm0h+dQaF2Ml8mP5cBguBbYgAotNQG7tm828ct4Uf/cAGjx6wvJbfbQQJqVNEgBZ5rSMldqsHxM0VO6xvaK1tfehRiC72bHN50iVQAm6LK4ZcbwZzafTKNeNw0Dxuv5Io96of1KtVFqyAynLi52xVBsUTYQ9H1NmJO2oURaw9dGLvN0lYN1aQdSuzxbl59LiJCEQEIgIRgYhAROC2IRAJL1BHOnIT/c0nfcnAmDRltYxvcD43rLJgtclpmz9w2Oa+8Zd2/Jt/ESZ0QRaLLs0Ve4TGArgkvCKHko5eqTasY+MmG3n6p2znr/xDyw2OYKKsy601NJAKi1IHkinyqaObazGlIJ3jVNCrfEViZdVBlhUCIU3ShNVKBdmwvlDHxm5XvUpchU7i+FE4FvWW/m4VFDI93ZZf089LQNAOlj5DRrq9TMBzKTjJp3VIkoi7iEBEICIQEYgIRARuEwIpX7lN2a2ObERtRILkXIqYHLtHugmXEzKUesa9uGbALiGQwsl/daucOG3l733bXvk3/9KG5yZsBIanyWkirC6hhWnmYLvSgpU0eArbvIX+NbbloUes79f+iRX3PMoSvd1cp1uSpqSnYWqccA900Ulrome70tYQYVWuvpxbwmtDBmK2ifNyKU8R3orVrlywCksHT184Yx3oJitaMyrHIuzIgJ3QlnqGLDcyYlnUMIL8OXQb8V3lq9yjiwhEBCICEYGIQETgziFwTxJekR0nQI47pGU5t4ijLDpphm4KB5s+IkwhPS2gcDe6YPALnid1BIinJpLV56s2d/igVV78gZW/+/e2ozItwaZPTFMHS+OI94nsSo1hDv/BrXss9/CjVvjkx61w33bLYKWhKgkr10SQM3URUv0kUUZKC6YufRXEzqDZr8A5aVamlLnBUsZStfX0lZNLrL1U3nZ5zuvlSSu/+ZpNfevvrKsqGXQqVw70VVnWCSfLDfl8yTq37rJMb5/XMwepr3maJO1KxzdVVCUdXUQgIhARiAhEBCICtxiBe5PwOikVa8I1iamzsbbzcFlBJc0LQSFcYmOJaz9u+bUFSD3vor2kpQ2RR8hcFepYWJhHZ3cMs2IvWvWH37erh163Qcx6SZIrJIScc1MRSWHJucjuyWrGdu/Zaz1PP21dn/gJy3azUC8BRaCDygEvJYrISXh5SHB1P/xvwsliRAZzZcFBWpM81Jgi0qKxosENTKjVsKUryxL1tw/YlddfsT78M2LvhHWJc9q8pFGgwNlsh2V332+5gQHS4CKkWuVVquzcqcjRRQQiAhGBiEBEICJw5xC46wlvKnFNIW6Sp+ZncZiLE5UQQmf6NR2k5UbS2ma45CAlOM24d+NBIinV5LRCdd7KP9pnU3/9dZt56QXLTI3ZYB5rBdS7jRc68asSXhZ1Z2Cblb419viv/IZ1/tQzlt+4EX1dJnw5K0T2KrwJF9pBpFEXEpUIjqQyoADSyV2xI41GhZgQWkNdQUsXi/XWnQiTXqNqC1cv+0pwC2++bq/9mz+w9TMTNgBJ79QKbATJciwJs/JXiZR/GcXlXPeQ9f+Dz1pu3QjpkG7SCbx0OpcjbnDJeXIWdxGBiEBEICIQEYgI3B4E7gnCmxLWdC/pm5y4m5MpnfLTaUpNdCV17TRF19vPPUwal4vJV+w06l23bzDBDBMGVpudtAt/9ZfW+OHzljn8jnVBEEVHhY0kqIH3BanoPKoJWrq3gqmvkSeftvxHPmqlJ5+0/KZ1lunsNGfCEv1mpWzQ1BB2aim8JfV1zgjT1FX5LdMK7rvcRvrCtQvn7ch/+rplLp216tw0CbGABoRUZXWCvjCHNYmydY1ftZHJKzaovMRsqZGT7GSv+okANyDRfSNbLfexT1hh1w50j/s961bpCaNyJ2XmjBRSKbMHjZuIQEQgIhARiAhEBG4TAnc14ZV0V79aTUQquDrkSzK6lPQ6oSHMPJ/ms+h3BjKlsIHWho/TQQtVOpluOxby5k6BiSsiLX/FqCIt1HEO+60pwQ6B75ItUtHqlVEmqGFb99vfsvmj+63BKmMLQlU4AAIaDWBBOEilLBQU8gW7Kju12x+y0hd/wYqPPGT5dWusziIVsmSglc0cb9nc1RHs1qENvu7nGzyVx827OSwusHjED5+1rpP7LTc/5QtGKB1ZBfY2Z1PFFnCNtutzn5CP6kETuzUGLZaRp4Li5rO5ohV232fFz3wU6wxrqHTBi6X+outKUymo52mvHhddRCAiEBGICEQEIgJ3BoEPhPDq0d7+eG+nKCkRkMTOdSITkWgNIiqiKCeCkVDKcK5teyKkrnS0rKv4j45FMhREv/Rcc+sn5xo2U5bWqIvarDxTtppEu0R0dQfyLM/N2+i1a1ZhmVslIDKcEmLlpLKomN2svjXY3w/pgdwmmSmNXCFnBT7La5UxqXt2FHOEzViRMKJwCur1CdmGegOAyJSuKQ1JIVVu0WbHRlJRiKDoU6BYIUPVWWJDhZWPXLoPZze7VUrUO0nXzY154qo5f46xysRxbcEqp4/Z3Isv2oW/+I/Wdf6U5ZjUJb6qeAG1UBq9VsivTFr1/hGrbdxmO/+H/8kKW7ZZlgUlGlqiTE67tPHcI3jK2zELp80rIYIKuHKXNZb6zZVsZO2wZS6WeLmZ9sUulIJSko62JppJfUH5So1CZD3HufpKINlq84aVaZdqvsNyu/ZY5+d+2jqe/AztxG2khnenxTSSuuEVfBfVJgkXdxGBiEBEICIQEYgI3C4Ebi3hTXiIyOBSSqJHPrxCW4gDZ/4vX8gSJELkIo0jkqCwflUbfgRxTqZjrFnZApv5SsPGJqbtyui4jc/OWJlP0pUFLAbMLdg0JHaKhQPGpmdsbGrGqlWsA/Ateg7C62VgK6dP08p3bn5eJUuIp/YJgeFiFrbbYCECSfg6WWDA7asSugEBIlXLQHRLLDqQhfSUinkb6u+xnlLReopF6+3osI5Cwf17uzpteKjfejqLtma4D8kn8SBLRfReVYb0FywRiD7Kz0vFUQJEM1SoRVJKrgenOHIKvVLnebRH9GM2JKK2Unnq5Rmkusft3B//e6u9/rIVL5+3EvqwCppNsKohIRVGVRpLks0FpKCDOx6ywlOftDV791px532W7epNVAWWKeOSQi86vfHJe1dTuglMWquQhuS54tcqt1N0OprOXTrNXu9Calfx/5rUHlR//up4TNPnugeGrfvBvVb62S8jqd6LZYlhwipE6pp01ysY/LVthUhDxn1EICIQEYgIRAQiArcHgfdNeEWW5Nof+fJyCufMLamIJIUih6IXDWWbEFzCarlZMdxA8dgSRNLNqlVQF23Y9HTZyuWKS2DLlaqNsbjBVYjsLLOgrorwjnMOqZ2F5C7MVW12FrJbZkIVEttZSO/cHHZVSUfpVjGhpUlKsN+k5Cq8ZtuLFOmXlDeRzalcXh7KXRfTVjmdv1Bw9g2RIohursicfaIXSlnrgdgWSasrn7furg4nuyUIcC92WtcO9NkAfiMD/TbU12H9XSV+nSzSVbRSqWAFCLBIcr6UogFWYvsqj5dNclP9hLsKkMqQwymBkwoQfgVOqGMN18sOz3NzY15h/KVz6piNXbbqufM2953nrPT956wxc4XSQGoBQrmrJKJ5koXLVJdaudTRbfPouBa/9GUrPcHqabt2W6bQ4YwyUyPtnGTAiokLgOrAT2/1RuRVlhbC5LiAl3JW/iL06o0qt4fjXBJfEXcVi0NIL3q+tEsnkuri3o9Y8ROfsY6nPo1lhkG6zMpwvtV1iulFBCICEYGIQEQgIrByBN434Q10J81wCWERg5DTztkDZEPSNucIIo/6D4RBEjSRDxEMWJfTtnKjYOMQ2GNnxu3kuct24eq4XRqd4Pi8nT57zmbLrOxFMlnISB3pYgYdXKWpPJR1tsAKWOjSitSpENLBzUvPIFMkn0B25N86JthSp6gKm81D/iBp/FxCTT5e3iS80lbZ52eQIkO+A2kkvMIRRqS4ji5xo1YJEmKY5JZt62wdEt/NawZt15YNtmHtANLhbtu5bav1d6AiQTz/1SHkOuAFwimm11Hn+ulEJFd76uiY68Iybhlv0dQchaxC0BVVprYsF4x1mSwbIBlfePMtW3jpRRv98z+xUq3sqhpqr9By0tWVPBdSCAYLFGWynrOerQ/byFe+Yl1f+LxlezvQgUWXl9q0XoRUXjlS0YvGB+g8J/pCJwS1hoR+jvoGNQWR/bR3qAAZq3DNSbv2+FToSyLqtcF1tvnnvmwdn/uMk3fLdDuJ/gCLHZOOCEQEIgIRgYhAROAWIfC+CW/gUIFsOQFLeYwTXK4mJMu9dSxSy85jtF1jLpSduzyFCsKsnb961V58/S07Pz5r0zNz6NjWbAZxroSzC1JLQP1grlpi0hO6mcQTDZR+pRLVpLScyCmERZI6EUD9uTSR87RALpnzcxFfoSnSmDqFSx2xnY+Ri8wFeMnDNX3KdpYoX6IrT2eBED8RZGe7nhQyWU3th3xrcpM+mSvC5amKjZev2alLE/bqkbOu+4s6sHWV8rZhZNi2bVhne3beZ/etX2drBjqRFqMjTF7K1ous41CU5EhniY92Xr9mgOSgFcM9xHJVxqa3KsK5yD3qIdf+9M9s7Pt/b6UTh6y3XmbBBSS7XJces1RRVBaRR0XRymnlQqdt+ulftMITT1rpsb3Y1+0hTM6KEH53TtAVWk70t0V2m0UIF2/pVhLebFeX1Xg5Uu5pCdI8VYdZ6lMGj7Xrt5hhdSEzOGzZLdstt3GL5TZvscJ92y1Pm9SLPbwkpDFvaTFjYhGBiEBEICIQEYgIfAAIvG/C26IOyVE7D0iOU4KRkgztpSsp1YOJiUmbRu3g1MWrdvLiNbsyW7ezVyfttTeP2yT6tlXUFDLogvrndZEM/rOa3Q9xlHzOV7NytgnpIk24JmRGGYuMsSejwE24DiGTCoKIqSSuiiCJrbM2J7yKTLw2oD2u0mlzqW1Yj6vQBPK8OMzmg7QzLYzItpdB8ZNkwmdwpKFIUOfn60hEKyqul0sHdaTAvX1jtnHdNTt+ZcolwBvR+d24dtBGBvtssEdqEOgGMznO029u2wrZzC9Fvf1aUpCmV6qaADbSy0V9pHr+nFXPnLGFv/kL6z5z2OqY8qqDg6SfyjNM5pIKAwUH9HyhaB19LLHL8sAdP/8lpKC7LNc/QJ0hmLyoKE5DZJmsVeoAhhQjiJ6cNYtzyw/UMSDXqJ0ws9DbSn0l6R7eZxZE3nmBKqCTm/8MUmnsA1eG11oX9RDJzTFZUfJvMWXVx7KqtwraIuw6iy4iEBGICEQEIgIRgdWHwPsnvFJRwIkYSooayKa2Io6QHOdDEBuIgqS4VRE6iF4ZVYWDx07bwdOX7NClcfsb9EMXYEN16aSKBSEVzGLOKldEMicWC1kK8/6VD/YXXHcSdQXp5kI6JH118puwGFkV8MwpQM7VCaqE0zFxvLAivtAVdIXrtWBKrIFer+dFSOe4SkI/OKxLb2WOQNdUZc8fEkUAv5YSH1YQU51TCxKSLIroyZisYosgafKcJM8NVBVUD9fEQI1DaYsIYvMBiXbFjp64aIcPn0YozGS5jrxtXr/GPr53j+3ZMmIP79hsm0YGrFTI+uQ3UrE80RNBt+CjDJw3K+JJs1niQpVQYlXJVJ+cVS8ds/Fv/o3ZD5618pH9ViChAm2gaof0Qk1EdpX8PHUprL/Puj/zU9b1879g+fUjSHYJLZwVB4sMIrreTu4T6qmtnAvOdRCC6+iWOlAOWs/0J7WC4xK6LV8DAnlXRbIlJhV+5mnr+Sf/peWGhygDOse0n/pWBWBVPHUBL+YHrIZxSwGIiUUEIgIRgYhAROAeR+D9E97w+PdtoLtiq0zkctYKOZBt28BvsKpQs6NnztnpC6P25tEz9vwr+22qmrWZBQiFsbQsxCiLpK0B+ROxkjRWhEqEMkgyRR7VYgmpRCe2zsQ0edUhJHmsIRT4dTARrIDlA7gghDBvA33dWELAIoIf9zlpKUBkBtHpzLN3khtYKvHz1o/ZLFlQ0ES2KSbIzTEBrqq8yMh/lGeB8ykmzs0vLDiZn5ycsrImyFGXaaxFzC8gJYXlz1cqTLhDUk05ZSkiA6Fs8JIgm78i242M9GUBKKmXDp16IsEWJ0vJPknb6fNjNjr1mn2PCW0bkPg+8dD9tnv9sD26cxvqD8NilMECgsqpJB3DBEvaI2Co9IPzrDhUGVQejz9Xt9HDJ6z85n4rnjxhJTxFdhU2/elMaek9RE5tkhkZ4bP/VssNjaDz2uVSateTpQyB7KpWCblVuThWdKlohJSTxPz8Fm/Uf7CYke8bQIe3w/MOuUrthSOylsS6XihZdi3lZ5njTJ6aS3+XQkuyLcrsyhC8pHinvMVFjMlFBCICEYGIQEQgIvDBIXALCG+rcKIskqJKuiuyKjojOiqLCWOTM3bu6pS9evCEnbw8hmT3oh25MA4DgljAInMQVZcKI4Gt81ld0toMhMMlqCLBEBP9fFEHyGgeQssXfX4Z64Ao9/T28okfsos1hL7ebuuUbVwK1K3znk5MgwXC29vTY0UkdiXSGBwcCAtEUOpUupvHssJAvwhv+PQ9MQGRRa3CF68QUXNyhC1WyjQ5NW0VrEaI/k1OTloZndcpFI2nqe8sx2UI/gwT62ZmpYe8APmtc16BDNfQTYYUV7APrHqKVEGgnU2DmSTb4mF1JM4irf7SwGU4tM2Pl7mesWvo/842ztiZ8xM2Oj5vn3jsQRvqKVp3X8mJvSS9LpB2siaOpta53ikfmWBj7TQnsArW0TlgjcENvmxuhRXIJMktQP6rNID+JDFVammKWfmPjVrtImoQF89bYdv2cBWMFUh5SICtMqkNJX0ODuS8nyiEUmteSK7fqh35UP4MfSQDqVVucqpFanpMvbWCukN2YMDDitS2Q8ZrSig84RpUIK270okuIhARiAhEBCICEYHVjcAtJbyqqj58i0jUkYehtYCVhZq9ceS0vfL2Ifv+jw7biTOTUKsFLCgg0MUUV1AngOigt9qQuE0cCQLY4LN/w82XkRIEEL6C+qU+38sWbg5d1m7btqbXdmxYY5uRdu5BylmE1BYhvV2dXUhumeBFQl2oArQTl5SpiLC45FgXnYUlDZVIepMzW4teqhiaiF6T5FDMcJz4pAxKkVxim0PSi0k0yO58GQkuLHkB1YsrU1N2AAn3OfSW3zlxwg6euGx1SVaFCJP1pOqhF4ZqtUyZAUiT7zwn8qGlhCo0mF/W5llQY//bJ+1tiPLffX+fPf3px+3jD2y1vbs32QPbNztGKpZK6MWjDItwwF/Or3Mtm0Gtg3I0EIsPfOJT1oWkduEjH7ex//N3LF+nbOCi5pHUNql1GpsP/0joj75jM0w2nJ8as6Ff/RXLjWymzNSNtKVq4e2pmPyrPPrRpMG1Ekx9bu1e6dN3sli+0MRBoRxqri0vMTrFVegvmU7CsMRxhXZUX1YZXeUCiyFeajzmOXI5sSfzQReezKKLCEQEIgIRgYhAROB9IfC+Ca8TQWdSgZqJPNQwSzU1D9E9fMr++vsv2gtvHbHRSWb4Z5l8hp3aQga6gGJso4YEN7AoJ7oie7KXi9gN/jtvXb1V24De6uOPPGC7Nq+3TZjtWj88iMS2y3ogywVEhpLWSnVBupj6/C9JJjvxKv+JzQRKQrpcE9lxkiPfpNw6VD0kZXUdX8Xlmuvmin3jROPdOTtSBKUXvMSKOHMndV1F0YSyAhYLrFfe1Adp7cZNnfbgrrWYuspgceIzWP3CMgAS4mnsBJ84dtZOnL9qp5B+/+Dl12wGCbDr+kr1QRVEoixl3wxvCiLGkgLLPyuzDmT4/Rdfsxd/9JqbDPvHP/d5++InHrYd921GMh14p1e3WeBQ1nQr6Wu9UYTuVsUHyaduxd3bLLduwLJr/oVN/e7vWuX8MZcYCw1VW/VVUwmXLO0gv+zEZRv7+p/Z1LGj1vPMM7b2mS9atqeP4oF4ISAUFCsCkVRKkpbqiuKncHJ4S52XTom7xDnkpDxVF2UqH29fTWgr0WB11B/wlURahZNKhto0S7vpXP3rgyut0o4uIhARiAhEBCICEYFbicC7EF5RQB7resiH57zn65PBnCLoIv8paSS0wk/zSf8qn9tffOeEvXbolL1x+pqNTlexzxpUBBTcP9UT2RdyYO+2baGifQO91scSvYOYjxrGduvAAOa5hgfsgW2bbT3WCdb0d9lAb8kncBWlr6ACKFM5nba55mnbgZPzJEzQDw6mtaQmIf4qe76enCfLxutGFkg3ZZlB5DzxCqyHwAlKnqri6tO5c2KOUQ9OHPrFrl+AKgV75/gdmvGPjVt0mBe6SzZUGbSNPXnbuZ4FKVBnvjQ+BRFesAls+o5NTqAXjJrEtGSLyhS7w7INxnEGtlrD+kQWafA0UmVNeXvh0AUnxA+NzttH9txnfZ1MaIPEMmWvCZN0UqWcIOAEUTAtJvLJSwc/Sd9zhbWWe+ghyzzzs1ba95ItHD9o9flpVzxQHNU9lCLUVX0jX5m1zNEDVugqWrmr2zo+/iQLNEAiaVdpdnuZOeLtx9ss4ZD4B+cYcqj0FXaRI3AavgntogA3OlG7UfdiFzouLGuMHq/MqzWwIEFr0cf1skOZ+DIgtQexfi+HpP2iwhSmvSShFpQxFPJGmd5G//bS3epCORK3sS6rOauARYp2q4+2Ya4+4x1Dfu8acklFE5yTKOrnwdE/m4eh/zfPU/+4X4UILG776wqYjC3peKbraldaOAna1srL9onk+qLgOmmLl6QUdxGBiEBAgGd9Ss/aIOG+ccsCeGUSYqLJWrqdckgqRQI0qPu9pvvL77M6ksu6nR6dth8dvmi//7Vv26lT5yFkmvwlYgaZVDh+IriSklUrC1ZABaFRYw8he/yRB23nSL/t3bHVHt+z09YNd1kHn6FvpH9Kah9qJ3IZhieB4iBSH+k9m43OLNjpy9fsrUPHbP+Ro7b/JDrPx8/TLiyCAOGVCa2ACxYrtGqZLEzkIXKIXWvoDvf39th9I4P2m//0F8BzkKWO9eAsOuUUwWtYmbREQpFEK2s1DJ/x5VhEGTUGfFi6ucGLRWNhzCr7D9vF/+v3rXJ4n3VV532xikB3vSt4uiLyqpBMlxXQlZ1et83W/9ZvW/HBHZYf2cCEOkgnYTTIZ/gKIOcPds6FhfpV2HoPw1NlUqKKpB1ElK6nMCE2BytwIIKptQXULk7Z+Nf+xEbfftF6UY1psABJlomERfry5clxq+7cbXv++T9Hur3LauhwoylOnuGFwMusMpC7l5mKhisrKMAHHkSIyOmeDD0qnLlnwM4xDuetEMn1G+4S7D3NJAFFdhySSEli8lp5ujfMcJVfEM56VUxeElVafaniZUrO669z7yyE8b4brvidTn9Ox7KlWOlecuFCgq2G3YApY6Xug3Dnupq/XriiW80IqL3C6Ci1qOuct6fGWgQXdAQdqT8opNTKQsvzvAzdLQyBBFC3SlPWF6lm9yKGX3GPZfLz63ETEYgI3JDw6m7yAVd3JP9Nwtu8C/GUUyA2+uz75998zn6w/6x949nXWBSi21UMalXp60o6qocC0k1Irlyez8v3P7DTtm8YtAc3DthXnvmMDWB9QIJb3ed+84sYS3n3LnWBXqaDnQOZ4BmkwCJ36fA3Pt+wC2Oz9tLr+23/8Yv20mv7bXRMtnHRVdanesLWq+jhSjpZZwoaE+L0UpGvz9iv/edftC8/+Zg9gm6vHp4ZdFSlmFqnTVJ81b7KjZyl2EByLJdMMC9VjkmErLBWm5iwqX/7Nas++z1rnDnAg52rSL5dYk1s6fkqT8XRQx8LynaBJ/fIl79qfZ//aRv+1KeQroby5ZwksEob4XOytKF2lmTMy6EEkh/egQyLynHRuR37oFdAoBW4uixpIM8mz/rsLAR+DnN2VA496UBKyEzmx1ja2e07Q9a9HNJj4EBF8WcJ2Ya7IimLZ50WeAXl+ECDOGValEMomUov117O1C9cedetP5yJq+iB6Yfgi5627Wm/a2of8ostwtvsGfR5mVJsdV29EOkqkEkNKTn2PrQUpvZmcHyJ5AED1OEwIcK6yYS560yFsdQziZtViIBaTj+50BfCcdvWn6PpNcL6ufoLYdTOfq+FXuZt7hc4T57HnpL3pzQf+eg4TdNDxE1EICLQhsC7qDQEKYaHTQZq3zGA67bS41VHIjYzzE57+/hp+/uXD9vBC1OQ3R5uWqgTA35YkhdSBPFFaIbaQqetXztkD27bZB/bs8M29nfYMNYFBlmwQctL6M3Vn7HsnQS1FfZuO2wfmpoUyge7oGygQU/6tXIDqELkerBLfP8G27Wuzx7cMmivHj6Dzu+UnThxFgIHckjRnRGSRh4zXHre1miH5/efhsrmrdSB1HcYKxVaoA42ndXDWM9wdqGJhb6kp2pdaCak0p+vPnmwgyWCsXTx9GexsdtpC9+h9U8etgXMshXTBzyRVVylwWPfJ3atI4GOHz1vly5dxmJGwYoPP2S53j6u0z8op2xc5JG2ejmSuhJ9kYNGe3ra5vgS4JloEYgVO/SdhSvZZEod/CC0OoGMS5KmQ1erUX2FIQ8VPX/Eyf25k5A+Fa/ZTivO+/YEVLnaXThrB7T9eHHY9njXHYvJpa7tMHi1PJR66yyNcLftl6kh+DhEAKB7hjObmJy18amyXbw06i+FGgcVqBU7PWpHLbkR01DJ1xbvgNyrOe6jTZgeXLMGNSHsRUe3mhFI23dpGdN7UGMf469OnehyoCi0s8bFIBVujTTqGfLVEOYu3RNH11KnJJLX89Qr7iMCEYE2BJYnvOn9qhvLj8NtmN5O4SbTRUkKWSQB/dw3T12zfUh3p7BKEJbV9eWoOJauKsGQEGaQtA2v7bBHtwzY5x/faU89fL91U4KcVsBSIB4KVaSUMjkm1ut2UP1p0lbiu+hQZNJdGKn80IkLI5skrc78RbYYHEtIbovoxa65b5PNMaFvz33rbYB1EV6CzJ46gHk3JltVIJ9ahS6HLWGPBqZ1GNuRI+fQBijYRx59xIaG+mytBtlEci5C18qeIyfCCeHVNYh2ww3piiUXrXMvywVj53gaKelVSGxp/gpxeFlJ01O38ARVA5FepMxXz9rCRX6PPmxZJh3KNFhGZt+K6n6KoDqyc6dzOWXe9CSE0pPcmaPmyB9Cvte2ISJLHdxUHmoVsqubo7yyHOELTwBWXio3qDcoX6lH+8PIE07aIuTspfXXggDwe2V9W66niKWZtVCTz/VXl/qk8Va+VwqLc1l53A97SFGP9trTLxkGuT3dV3r+45hgvHitbG8du4zZQqzP0Fc8FhGbx4RO2yGkJx17vXkqkNJn/GSvhWCyTPatVaYsj455l8wO8iVMcaJbzQgsbSG1dmjxsNX15JwxVy2qYVY/H4WSsU/v4+oX6l4akzT+OUlmTFOvUk8JqaR9Un7RRQQiAsshsKxKg24gv238QBtGdA3G3Jg6CyQJEgzROXh63F6F7P4fv/eHLB7R6dYIsuiUItIlLOfogdars/bk3s32Sz/9Kfv0xx6xLiR9GGtwiwIZ2EW4ccmTTJWTpG7Kf3k2zoW7xUnyI6fKUnlhq1eL1OlTvgY8uSzYK4Cwl361UJOubJmliS9NLti/+qO/tNePX0LP95zlSlhG4HN9NquHLQ9STDXIUkIpP2//22/+V/bFj+ywfoEL+ZOCCVTW01bWKoOIuE/UY5TF9C/tQN7eMFzzRiFNbBOXv/tNm/vaH9vUm+j1tpFQfX0NwSGS1EuDtdKdpPBDT3zS7MlP2eBXfxULFj2Y/yJ/TNKJxNaYeJf0MEIrjh4EKQLulUg5SC15IATfd99qqp9eqTIQ2gYvU3oVk3GyzNSkq2HkkPhqQpsUOhx+kpdkXVgrQ3/58G0oi5Ph5tvK4vIR47Y7YSun4gakUx/3WGYTQi5z4XovB0HepOltnN6vDk6SZ7jcOrk+mbvJR+gGBJ2a+D0raOSna999/lX7wStH7NsvvAPh5SVUL1fcq9pL7afpdE/jAnXhnuKTQqDG6vnceX5dNrnzzHGYt//uv/4le/pTD9ia7q4ld0UzxXhwhxBQu8tdd2d5Z9EmDeHB6DMKq35hdu7ChJ29eM0O8ZX05NmLqKpNMK7PuS34jiKTuPkituu+jbZj24g99MAW6+5ibPdktG0RXnmFu9Ivxk1EICKwBIFlOWV6awZOkZxpx09+Gtz1CVjS3e+8/LY9t/+MVVDGrGUkYQy3Yp3PwiUmSq3l8/szn/ycPXLfiO3dtdH68UONMzilKelbMkroUarY4cN6EuZu3oVvWl7jMCBKghmcoFlM9oKP+AfT03xgy9MQfUUsPwx22H/xpc/aE+fH7fjVGfu3f/QXriqgxTKk3+vyIB6ec7NmL+x720YKdXv6o7uc9GnolL0GhVL7SkUMoW7IG+aacesOXJAn7eZDLG8kmjRX+vhTriKQfW6bzX7zrzFQO6MgSR/RYzoJT2pq206G+fr+1618/oJNnz1vG/7xr1l280ZPK+gPhMe9aH8gV3osBEQSrsW5nBcwHK5g690NBi7d3el9r9rMG2/Z+FuvW5csTvDStkBdhh953GaZtDbyyU9arr/fKpATxfPcqX6DApBryvlCJQXYanAUw+8hPT1pTT/xMotAgSabtF9xu+HkuwLXJLtJWEUjIyWhrJp5isR5ut47VpDw3RVEWKT4qmZXx6bs0tUxvh7wFYP5CyUsnnQy+VY2xxeraXmPcjCy9MM64b2t8NZr2TzmCud5oa1xv3Uybg70Yo6xRJp3F3x3RW1atDNpnfQW49Sl+uw1j0DWYuT0JbOM6c5vfvdFe+vgKbt8bcYmZ+Z8kSJfpVN9hS97OYQSxexlO3z8jJUY69ev67Uv/vRnbSMTkrdtZFVIOozMcfqtTx5J7ncFprESEYFbjcCyhHfxTdO6c/0hx6nLeBD1TaC+8Nbxs3bo5Fn/DOw6jwrOgzLHJ/RhTIh9ZPuwffGJnbydbmRFNEkLgwwzvUE9uNcq5OMSPj+8++/egIQIRCARTuqSFvY2SBpCeLtLIJG3fv6QZVDUSnOP7Nxkw2vW2qbL4/bc+h47dWXaFoI41s2taQlm0dojJ8/b4W1r7VMffYAziAoPWpE5Z7NLh0snNyqbiKe2Sc5krIE7P7TWMo89bhnMj42eQ23i0DuWn+XTK2k6WUzJETnrQS5rCLUyZsvmTtv883M2v3O7FT/6UattYEnivkEqRPqEc/6kSWScqGxe+yQtCnLTo3qWBBszk1bB2kXjlR9Z4fnnrX7wDQiGUuYaGFYuX7HilSu2MNBnJale9LEqG3LhdlN0qn0ojA7CofuF0zu2BZqkXGonHatevMiwm8LaxwJ2m2UdIK1LWN3OQ77HRgmr/QNO3h46U1rKlHykdVikrWR3uqiFPe4ZJ0ySPtDEn9cN3jemZhfAnVUUwa27qxPziphUHGL1QvphCBriho4sH28t2guCw8tXtVqB6JhduHCZ42narWYDrBbZ2wlxRqAQ2iPE88hxs7oQSJvXSyWSG+4cvdTrDlUfGR2bsQtXp1mQ6Zi9c+isXR1HWAC51YJJWu5eK35qzKwuMIm4scBqmhP+9fTI6Uu2YfNulquvI/kdtIFuqQwSUD/GsegiAhGBGyOwLOFNg4f7Nki2woOvdUW+rxw6aaeZmDE1OYUkI+jquuI9d/QQi0R87uMP2G986ZO2qZ/FJvhG7GZ3nKZp4Oeub7qmLC34ND8Xh7fhZrC77iAMUP7oEtjpT/VMPV2yqMEsYCFvvTQEx5kG0dBQtqYXHd/eEfutX/uK/cGff8NeOXKZJyl5cF0P0AxvHEeOHbM31vXb5GefsnwXLyYsg+YPUJFeXlSaQ6YyUvL8uVkkSKySUsu5djb5SiqcHVhjpce6bOv//L9Y+RvfssssPFEfPWfdhAxyaCXEMTsVU+Oyhv3i1Qs2+4f/0iqv/4R1/cqvWeaBh5gM15Wos1BXqqjw2MFjrx/kyh8YKi2rt+naipzizdr8qcN2+ff+HythS7g2NWEjvCSoLiqjlkxeOHfC5i9ftItnTtiu3/5tK2zbApGHhOsh4gzcS0+Oqs/qc06mmkUTRqzGhzrRvlfftvPco1lefpzw0ojCb+VOPUL3biBr0n/23pfgIiN669YMsKDKdtuyseT9LEi0biaPlZdmNYQMNfPeSXEW13NOS4uL8DJprYZO/fb7d9mjj+yxHTu2O9NROyU9O4mbxueuUhtxDxYYS7V0+R/98ddsglUZC9wDG5DodRbVWxVfbZLG4zC61YkATZQKK4J0l3O6zdjkvH33hdfs+ZfesCMnLrEiKS+LpS5fUGkYm+UDLKzUh7qX7KtL2jsxO25nL1xjcjgqZij5fu3Pn7XHH95qlXLZfuZpBA66PyUYcNIb+8Xq7AyxVKsBgWV5Q3rLpEO6Blgdh8/devjx5smY++wbB+0aS+LWkB7mckxP4iFYRzpRL0/Z5574lP3kUw+xMlofOqLSBNWn1mSg1o3JwJ4O/LpZA6URvRIJgfAow7QgHN6NzgWMacVUX7m0zgKZ45Z3+qBTIOGIE47gKru60pQtwir1GvGRB3fblz89yvLAFzBfBsEjap0Jg542EoTzoxP26sET9sQDm224jwUmaBelFKSpQeeWU89ckjzNKHaBHqEk0eP1xR/MKoYPth0dlt+40zq/WLING9fb5J99zXInj6HnO0WAtAahuNLp1cIW0qm1iXGrvPRDO3b4mG379d+w0lM/YYWN69Dllb0O/sQBRMLBQfmIeMqcmZBYsSPa/JlrNv/KAasePmT5Mp+awUvST6Uj6UuOn4hIcWHGxg++aXPPPmsNllcuPdjH20XA2vNXGVLm7iVccSk+8IB66ZHWifcN2ku63UdPXbZvsez0yTMXebHBRrPPxgstuNICqWd5G3sf4z5VX6EN1CFq3Ov5TMV28fWm1NVva7jXuztkoit04ruS+IJz04VqhhdO+o+snkyxUMzkNJ+mWTQmw1tmd0+P9Q8MWE83ZhrpcXXmNvgLFIkI2/RebmCVIcMAqxcTkSPMrLAoTY0VGSvWyyTR+3Zut76+fuJgOs/jNUsRD1YbAkm/ULFSwivBBB9aUFmo2d9+6we2781jduzUFVRWarYJta4N67G+s2ObDbPAUgdqMEUm9OoFVV2hvDBrV8bLdhRy/NY7x1iAaIG4F+wvvn7VHsN2fW9XlukQzEPwEU3jVVsBVhs2sTwRgTuIwLKEV8/1cM/oIDnhHnLCi6RP10R7Xj9ygoEdyQ8P0yAJC4SoqzNvj25fZzs3rPHPnXWsODhjEkPCSVLnTndzcm+mg3jzVm0ehKB37dbr2cJBaLecLuqnYTNBaFEArvGQDRiGx2cegjjUg41jVqe7XCnYK6+/hZQA+7xYbgiu7p9cj5y+YA/SRsNuRyGQmpAPeSlZtRV5hRZTGWSbFw9/USG8vHBeMkhtFt3CwubNbnkhC5HNvjRgcwdetfr0uHVAEhU8cEX6C8m4JTImq9Vmxqw2ec0WvvttFrqADDz1EcjzFuz1styc5xHyDpmpNJy7v/usaFPHmkTt2BHLlCfF/AOWVCAlsYLUc6E/dqPnW339dcuNbLLi/Y8k9VS+4ZVMYQMmK8r6tgRSmUI/8CO1Ep9Ap5AenbHTLFd99uKE5QsVlxwGKVAI996FAyGACRL+gFH6yqMJk406n96xtqwH9OTUNJ/f9bqV3NvvnfiHPIQwDD1InSeY+Gs4DtOzZdRIuOfo8F2dHfw6wcrf3ghH/09eAkMrhNc33Uf6guKTfRlo55EOT01PIenVpLecrRsZYk6EJrCFe+lDDt5dWPzlBiW1lo+QtGPNynMNu3Ztyl5+9R1UztS+Fdu4YZ3t2r7VtjNeb4b4dmPyMcebq698yVjlrd0YtN7esnV29qDKMGv79495P5tDXemtw6fswR0biIfZSBFePQ+iiwhEBJZFIGVBy15s99Tg7AN0wnQ0u//gkZNI43owg6UJGUhxeSPt4M1003Cv7dq0xkb6O/UsQBqsxQZYrpZ7UedBssaBSEcY9TkJ15YbNvzi3bhx1Q0NiAm2vhcCGuZ8qPNaN49SrLQPwSTfTcKwk9oB5zlMGW3fvMEuNYrM9IWCiGm66QsGUibGzDIZ5sxF9FVZkS2VxonZ6EGsQTNQZ7ZL2icwYUn3QnlDzjomLOLqDAZ+8xs22siv/LKVt26zhb/O2dnvfdPW0S+0oIiGYk+TfFzYiF+B42GSvPLCd2wIHVqt9tb52V7Lr+8O3NqrqpxEpEKOKQx4vLeDmNUunbX6xdPoEAesRU5E2NSVA91QMmg449+Dz+T+N63//ketS6Lx5vMj5N3K8KZK0Yr2AR35bRneVLxOV8en7aVX3rYZFizp7OkHubz19EgvWa+qIqbv7byGVNu/ICQn6iFquzk+tVb0mQeMKrxQaYJkaFse8XpQJy85753LhyyEdwMAcDzCzrtIgs/UTNlm+FXApxepbid6t11MWmOARMhHn2tTadB9jQ8AcAReWXDT8RzS4SnuzRpxRJqLvB0O8alb6SzthR8y9O6dqjBzAABAAElEQVTZ4ko/d2x8zN45eMwO8NwsWz9C/A7btXOHPf7YI7Zu3RBEV+pp9AFu5hr7dPzNMp4PoOLQCRkulnJ26BBfoTB3py8Az6Ia0YO5yk0bBrgzm4PVPYtzrHhE4N0QWJ7wJqNq2CmIy/v0IZvjlgRHS0XojbIB0ZKJMn3+liSx0FFAqqcpUsEh27AS18KiubopSTl5YCiEDlPioTwTuQn7pCAKdFe6MECFOr9HBfXNWk7Mhmg6008ERvHDhKTErBGDZTcLefRAQEVwZYc2RTnocead8Lm0zwdYElQQElZL+6FO5dpP2o7Tw9Az1Ac0QKt4fNLGJnDxiSdtAGsH9e4+K+x7wcpXz1sn5dDnWj3kVaS0naXmIKJp54/Y1De+afn7HmSljbVW4wFfVOdRHZF6iLMnKMhzxa5RZgIfJshUdy2SoYdKXv2WvwVtSbREgVQHtcjc7LQNjCMNVp8mbyEc+nJqLJ5AlD/UJEVixcW55QGFifCUXWGqZVdY3vsg5uleffskpJQXisF+++gju+2+rduZDIMyCcQ/OO3T48TLd6pTqJd0SlOCrMl9Cl2F3F69NsGS1yftwIEDdnVCs8srfHqtGUogXoamClNCwoWV8vJ7OvHD40PlUqQyrqIlpZzQg6Ui45+/gOzo+VGbna94exR4w+9h0lonktmCVkOUlBc0A8ldXHVZtUlfGOYhMlPT6AATvJCDMCMl7ulEP1rSYX9ZUS8N7bM4lXh2pxBo9Q0dpW1Dm2rRHr1c02SXrkzYt55/hcnERSYgFngh6rCPQHaHmNBYkB1wH3+I62N9Kw1Z72jQ5/Tis44xde/De+zStTE7ffqsnT47jmbYpC3MlS2fLkiSRr1TYMR8IwKrFIHlCW97YZsPp9Ywnd7c4cbW3cU1PUQhO7LdPz5ZtjIPWt338tbn69yih6wySO7KZKchPDwQw95P0zDh5N7eJgq/wj5tCUGnFdN8QNWIKoenaNssCmOS5NYYPEVss+gTivAp9gfixHblfMfEG/QNc3sesiFUBCbR8e3Z/5aNHkByCnF1ok1AlUSlVherIQEpQ3KrD+yw3EAPDwj02AggybE6kcKE8HqIpPmwX4HL9g9j83eQR4ak35LkSoICJvRXmYOiSL4qnfLQ3PocElFjNUA50f+gBpBUzX1X14ZiOzhqAhHUU9jyPHn6vH/27O3tt2EeqPfv3m2bkb4XWORFD9aVOaUsiqrwgd7rpbYCIevpHeOhy8xxyG8ZPdN5SN4Ckt6bbJqVFWPVhfJem2CTFA6oJPm+jDky6fFqln1XVxdqCBBVJHeA7v1IpqaWc/qEnYaZW5i3WalFoNZQ4otZbw+S4i705EWa7w2Al4PoQ+KnBpIL45vaVJKAafRuL125asdPneU8h0WdIdu+ZaOtXz+CShCSXdSD1DcUKx3fQzriv/jQbXStg/60Y/t2Xv7z3OPnbEI646gTzczMMqmRL6q6ZaOLCEQElkVg+dF32aA38NQN7TckD0YG9gVmKV+6PGbjmFNBH99v0oLGAH/Itt3MbTemDtOf5+Lhb5DfPeqdyna0l3O8hJMcJ05i2GtwlK71RczeXGRyGnyEywrdcslQvAT01vUf9yiUgbz4lymlbCfLoD7+cRv8pX9opV/+dRvt6LdpCLpIk3qCSKfqM0kh62vWW99nv2Bbf+PXg4UECLpK3ZAdYGe4qmxCdtN6r6Sg5JUbWW+dux5E21TStfAnxQ258BmQMIRTeWbgdmse/wnL7tjKmxrvg4DpNooJ6zFUKP1au3ByB7eOU0Jiue3swOGTdoifHo4yh7Vxw3rbvGkzn0P5IpPch6E2qtG7/QLRTcN4/cFIWJUgzkW+5nDoq4nNMmN8loeunIdLtu5xF21C06eEt71i1Bo+euHCVZubZ7ltvq4MDg76Xv3FlxduD77kWC9V/INahhfVORsfH0cLomYdmHrr7+1lBn83OtiST6gEoRRLkoinqwKB0D7hHqBAfHqR0OHq6BgqDdNWxoKHCO8GiO7DD+0hgEIyCroCdzPWkpqoV4SfVM6Gh6TPjV44Y2kVlaI5XjanZ2a8/yyJGE8jAhGBNgTeP+FNEvMBnRFbn7TrrPL14lsH7SA2X0VopAOYPgZRfvBbt1mG9JLvk8HcX2dvWdGaWX2YDzTcpfTMhZ4pF8FXhFCC3nRalT6cvnzgKCs+vYQ0Dl/HP6l9ijenIc1b9/BsH7T18oM+hTU6uqyyY6d1YPXgkf/xf7Xs9getxupBFcokqVZdkt2OPhv6yq9a589+2XJr1zFhreQS6TqfcGXRQRQ11D6pw83syCO/davld+2yKRiJsFHeImo1V1kQIDqWdmrGrvGCUJCFhj27mYyJNNRxXoJR87R54GncsY3XJ4O+7rydPDeKkfrzdo5P69Ld3ozVi62bNjhJ9YUP6Cvpw/O999So+bLBIdVNf/rMLomjq4dAxOYgaRMTEwkEBJS43FvtBqgE2G9wcZV762Zz/Xs6S+oARlU6ffYS0rY5cMpgVaGHlwJUH5L+Jj/15aUuIKU+GQCenp5BaHCJaHVUGbDj29+DPd8OJMUJrEsTiOerBwHv96E4aunw46UeSez4xDTjMe9FSGcLvEzr/pHN3XSC2o0qoW4hp12W+7GLJaaL6P9msHVfpy/qy4ILQvTITMIqfHQRgYjAYgTeW6VhcfjrzhjLGYglOQt3ms7rKFu+eeSMbRjqt/7+Aezw8mlP3425cxfdk4pC+LYxwgcIeYfUrsvunvXQUreLnAOEp+v1BUmpCLGkp/tPXLYDJy9huuYcAyyfmQG4KdhLhuBWWrcIafL1T28kpxTrSB7cpBjt3llgcO7PWMdTT/LN97zVXmMlMyaGzaArW+wetOzeJ6zIqm3FXbuJidklpKpOdXnASzrtElbq4AO/Er/JIuf6BizPKmpdH/+kLRx63bpnJy3DpA8lIwIiaBs8hMqUs//BByy//T6zEVYxgoy7I+CiLBXBCxMu3/ktUiTwnkWH9jiG6UfH55gRXuOTesE2rFuLndxh3j1E0qpIhKRfmtRrca3aqpF0NiotKVLoPC2ypiOZTZJeap50ZUpLkqYJ7HE7NKSke3oRZm2p++G7XlwaeHWcX19k0Qx1Umw5o+YxW8uCQRmJWxV8WBIWc2SdvBi8t6MPApwmrtWRBk4jKb96ZRTYaz77frC/Fx3P8J3h+jK8d+oxxAePwLu1iyYfzvEyWuem4DbhWRjunQ6+uNS5ptemIOBN75728oaX87Cyqfz54iVd/eRJqpFfsXLSAW6PFo8jAhGB6xB434SXR5sP1uFm4wEAScjxOe9NJLxSpK8zw/Tzjz9iW9YyeYMBnS/UwTFC6KGoX5tXECilxXy3USQNc6/sBZLwcMyEth627PWk5KGrN/1Z9Kansb/6V99+3l5644BdvHDFCl19Li3NQIyDDi/B3YUWS89uyd7by0uF9AF5aTML5PrMLs6PrLEtX/1lqzz+MTv3H/4DOr37bdsjH7XN/+1/Y/nNm6zBA8Bt71IYPfxDzfSKJA9VHB/tdKqDlTrIQnHnLtv13/8zm/vW39m1Hz5v06dPQK2rTtIrEMDCIKvGEWb3L37VSg88YA3spzY7pudzfX6hHCstxAcbThPKzl++Zs/98BVfaCKP5ZSBvm7bgnR33chab3tBqJWc/MUoQVEWK3wiIdi6hDHZS7ooc1hS+071TtXj5JSO2raE9LKTSVnlmSmbK89D1Mqeqlon/Dy4b0LM5HzRSSvMh+JIjb6MK6PGcG1aXSa8TEiCNzQYCG/AdZlI7hUSdOkvh7rNy3Pzdo0Z/ZoM3M9ywkMQ3lybDv+HGb4boXC3+ut1Oss9py+g3m60cRZyqjkVWmBE1hvcOg43VC2x0hFuH8Y/H9t1J4WXct2HdfqE1Idkts4tHyFQkCxJeuIiv7q3o4sIRASWR+B9E97AQ3hYShrGzaxBWk/DTKETw/dX7Q/+6Ot2GknjTz65xz77sQchGcG5zhrhkls58UXCgd5angFBaYURIrl0D+2EjT8k2+ssrJAGZHwhBFkO0NQ0fYRnoGMgHJtu2POv78eg+QH7+refs3IdHcvOXr8moig4W4CGM21vJcxLSai/0HgLh1eaDO2qJYSze/ba1t/czDLIly0LYSps3WgoK4bhWuO16krHcplWQvSllxyG8rTHrPyxr3JoFTeR3tzatdbxhZ+1yqGDVp+4Zo35smUHh6zIBLvsEGWT6S4mG+kFQv3PMVJ8JcJ/8GCn4zvomg9DcFIZz18aw+7uWXtz/xGkjFVbv2GTPfVxZoBDurTYgW7LnPSh6UP6hKr7Vht9AfBJVfLQTw9Z7cFd9yI3trcgB/7vAIgM49+J5YCB/j4I7zRWBWZsFD1FudCnlBa/u9a16qb6jk1MoU6CJRBw0YuC9Jtd7cNfMOizfk8LjFa8RdC4t0gOn7+F5bVrVqssYI6sH5NTI8zQpz86sOEuWBQ3nqxaBDQmStCQk3oX955UGBbm59B7r/rExF5MjaV3mJpXZugY/b2b6FbUi6d8cqhXyTrKAr+339lvZxBmyOoHH1pY8GXQRtYmX3FWLRKxYBGBO4/A+ya8YRTWjakRW7esftyv6BdVWdp0is8vb7BCjPQxZ5CC7Nm+kTXAe/kxe5k4GW5an4mveEpCJh34yKNU/HMh+3vNpWS3ndTIPm2GJUYBGlx4qGoxDwbPK9NVO3551Pa9fdT2n7xgx89etXIDFQKkByKNag+Xlrr0QA9L+YVtOPLT971J0wqtH5JLhm5aEzNoeGmyE+rdjOror63HZi8DdXg5kq4s9dNDIRtm+kujVnTeq0AUTx8iLKeHyE05MHPpNiae8sNrId19VsW8TwHTTxVmxGdYyarACnEZPkNLMq1HTN7tFvNMISvlqrL4wU1lfOsDu6RIOPJT/9C5SNbxUxdYUe2KzZQX/OHYQ53Wo5YhSaPb90z6gdpE6iaSMkmiFFQdhDV3ndqAva5LVUEP2/B6Eerh9yQbbxOuFcCqu4sFQnA+0YplcBc7j7HY6y4401CX9kHhpX7Be4OvrqYFBjRZsNtt8PIyp4lmYBU6j4dWcO/QSXfWmfd/3a+aca9Jb+qvaoMB9IBlg1dKPrrvnQx5jLhZlQg0GzW0tcoIh7VBXgx7e9DDzmokZPEfVii9jNWGtagb6S5TNElwRXLVW9RJdO76vbrPWVK4ypikZ+h5FtKZRF++UZvD3vpO62eVNakXha8x3rWUQnQRgYjAEgTeP+FN72sfxZPU9TDmrs3oJuSN9PDRE9gMPG7vHDtmP/fM52z31i324NZ1NlBCrxP9P93hTnpFTCDGmgjT0jNcUuJ76DQlNU5sNBiKljDoSfA2z4vE1GzDTlydte+ybO6/++M/hSx2QlowtVXscrLin6IZSUVcwjCoxmpvMDWafqkfh+/h3iu0UmrvCjrRi40EpozZtG94p8lkYb5F6T8SgHYX2fWBn/giX0pDjwY9LHTuEx9VF85SsoH3yhx9yvKiCmCnpwLS5K5NmzyDDmVCHqn5s0D58FOx8JdT/kshSi7pym116hNpv0j3MgV46NgZ23/wFBJbVotDd3fNUJ9t28rKd1TEVRZcpYVSi8GnhaeCmlwo/Vt5KT0/0AOW+nv/4VgubBVKwIAlYQtInTSBRi+mC+gPT02xlHQS1l8Q0owUOc3TQ3xYN1REY5tXx3uFV0TnZWbKT05hO5d7rVP2oyG60tEMKiQB3xTF5cDwlz3SGcW+6oL07vnTpKbenk6k9H0ciwzJ1jmWMTzXuFl9CKgnhN6hsqmdqv4FJY8+dy/3ZD+2d4s2Wa7YlavXrJsvJLt37rACi5P4C7/6lu5JDXq4VA1Ct2WFG3KOe2yULwlnz53npWgO2VDVHntol42QLoF9DPWIcRMRiAgsi8D7J7xpsul9rruTW106SpoV7poO2aIbYz944qod/H//0E0lPcDD+B/9/Bdt02C3bR5h6UTWA/dPrSI0IkHROQIiu5LCiYhpdbvyQsNOXxi3519+w1549S07jXT3EoOnSC5L94CedMIgkhAb4ag/ERSYDfvQNmEoFsY/Hs6KFYZkL+J1G13zlJWfc22RzSCz1al7UTZPwzciDylFwoPIlF7cwtMJ+SlW8H+v/D1g20ZZhNzol45lw6oQE0nQPANdF0b0WYVVaXSuvyBnDsF0TU7VSo+Dz+3bimimUl7t9UA9d7lsb7592I4eO0vBsrZ37yO2lwehrDT4krcU1qW59A0tRKJjkWDpFi6wIph0RpWWpMH6DO/6gFzXi2ezns0DAQBW/IqYJpOtWWGlNDRRLm0b7RXGSfTtg+c25OQ1o57qoYnj4NKlURbhOMLLaMX6h4f4zDzs+KgPazgLOIS4abSle01YG7026jZVdW0D5uQGB1i4BeLrq9351wdg5Voz76WJxPM7hIBapdW+ah+d6Z7SfTCsF9Atm+zRhx+0H+x7086cPWtnT52wHdu32X3bNkGEGb+ThiW4O+n3qqEbPEfHxibsyMnT9tzzz0J+eanSgiZ8xfvC5z9lg50SEMmsItFixwjgxW1EYBkE3jfhdVKS3KBK3x8DuvnQP+MjDOxBxIWJbNhg1We6TL7HJlhT/OC5MfvDv/p72zbSbxuHe2zvA7tsB5+V+5CODHSXQlFbQpRlin6PeIHltbFxO3Nl0o5dGLWDZ87b+ck5O4b5o8v4zc9D0vK9gKGHomilSAd/tImvgKcBUI2UjqY+ImoU1SNbv1vg2to/TdDTVRlow2qmgu42VhFQw8jWaVvG8Rr9QuXMUw4RSM3JCc3N1gvvwYw5jx7OX4La9GpvqtySerdVM6+8pSIiGbIu0D9rLkF3QbAyBDKwSSvRUiD2VES9m1YzbqogbYV4H4ci7U7IKWeZCSyvv/m2TUxjCivHp3SkRdLpG2Cik4omYiu9XbekosVgdD/ykwR3rjznC0Z8/9nnnDj39fXaJ7CkIduvIst+LwuMpS7pTzK51aPJfYSssPjELKutzbOUcakYYuoh3HLLpNO6+KE5Up8NrlU3HS2gkzk+PgHWesnP8CIgs21h9azm7ect0orXXmm1Z47wU6g0KC3NiehH9aZLxIaVK8MXMF5Alo/enlQ8XlUI0F94ccwxxqxdM2Cf/tST9vahEzZVxp9xad/LL9vU5LhbU1mDekOXqwhxP/EiuoC61RQrRI5evWInUFe6Mj5lU1jw0L07snaNPfHYLgRFLD2tWWv+mZTBMrqIQETghgi8b8Lr4gvXww0PSJ6t3N+wCPSLGpqwwY0uwpvlk2pNS3JCNPQJ9spo2c6fvWBH1q2zET7Z1YojTBjaYBuRGum5UOCHmfzARwivW1qDvR44LuXSefLTM0icRM6JjQiTX3UvNm3nupZG9ONAHlJJVHigJYm1paIU5NK9S1zkoaCen445EXtLnR8Sw/PRNR2CUxIkDSqdSU1qkBOZ0ld2ff5HBZpXhoydrXTbW6Oj9tL+s/b6WwdYzWkCgkEgx5Y6I9n1yYJ4+YNT1gcqrBkGW2ygSy29VKUk6Z9y0Ops+rxfpyCS4YWcubQClxR9cchlPQmCv+qKxi4n9AWRKIXlF4ZmyoGH/louCZB4hZ226ksh1M2UVzG82jpQ4zXTDSUIlW/DILneikQcMky9lYzn3+4hz1vs1A+UhatyeLlF0kP/kHKL/vQVZXahYAcxQzcF0ZSNzl4ktP3oj/b3aJFfRaS84B66etgrIelKz/FQnZlZwKLKAZurziOFGra9j31cGh/krbj60UYhGfcLx/QbQNUn9w6sb2Rh/wvcgDOstMbifhBexVIkCuw4JcfhhCt60fILhPmAXVL263JZVK7rrnrpl/oKE70k8ZoWLpF2BjLT4N6dwyzZOC8dDSTuXfmSdaAvrtUldV9Lei78XV+ag2bWnkpAWr2RL9a+OqJUGpgAYX28vHSh9hPm8AbMFDfE4Citmx+2TtIjJR/C6ihpinC4aBvCJy2SdjyPwMuSZ5KmqPsklEDe6fi1KLHkpD1feSW19qtKoVl292GTdrL0PNlfFy+9LkDdkZonmF7QXteWliBcXzbvcKmZjmLrd7PjTKtSIf9QLI590DMb7u+2R3dttiG+Zi5Uan7vHTl2HKtGiAMIk+eezXFNk7bneabOztXt6ticHT07ZgcPn2Ay6jhZzNNRpm3jwAZ76uHtCIhUfz3DNL7zrPUniOoecndYVRyc5AWhZARN/FoHIcy7bdu+93jqLjDQ0aKE0yeYenRAMM1qubRVyrRMfn1pYCWfhNF1hdfvg3CLyuG5Jrks19HfpRCLq7A41bTc7xI94LE4kTRa2CeRl095cdCAXvB7tyRbsRaXLMRZHDMNke69RdIg7hlYVHuaiXfwggOGOMkdlnTS5gjXTCsdjFo5tdL88Y7eN+HV7G/daKpiFVMpPdg83bRhAzq6a+ziVSZT7XsFroJUj9lKMlemCUtuiYEFCXIYzx7jITExNWsH/+Dfw/LmrYBS/0aM5f/E43tt95Z1tptPPg/t3mx96Puq2hpwtfcHPkf+IBdACSZ+np4oHGC6H/smbCEB4gSf9oevjlO8iR4cHgq6yB8PkUtJVVOnfDyTJGDQO0382MlbwdN0/Bw/nopBXQEJ3BiT0A4cO2VvHTlpB4+fthf3vWoVvlVVeInIYic2B7nVhMCc3ggY6ETmGij1itTUkapLmlCvl+2ZLzxtGzfvsj/6s79yu6CiSl5Uz7+tzF6a1rmKc8tckmwbnQz4kEErx9ZRM98lXuF0iWcz8E0cLEpi0UlbeRYVbtnEF8dcNsgt8Qz5qJe0jpSwpPgZdDnHJuft1Lkr9r3nXkQvsMF9t84eenC3bVy/Dh1SvS4St62wrZS4BBE7evyEHdh/HDNH8xDWBf8kGgadkIs6vdSfFU+dp5UUx+p4XHE1JNLyFZ8gvFJt6EUiGd5oQo66V70PeEJE84QWlUY5fDCuWeg0c2WTemrf7t8qQhoi+LSfaaxbjIWG5Stjk3bwCKbu+EJV4qVjGGmdnMhu6pbPKVyVHWUWArdTp0+jCzwF6cmwQt4In7o70+heUn82LFPs5qjV3k5JsVXeFbs0qO8X3ble72bduZ4GXXHa7xqwWYMk3YCW8khx076VZ+soJJuG0pmOmyXleEnY5ml7nKanh26dKb0VOB9cWy/laRk8JonpS4u+fKzHPOdv/bN/iunIffbcD35o06y89s47h2z/gWMIMf7enyl6Pmo8d3Ukiui2sEUSILtdnVn733/nt23npjV8GQ0TRr2uPFeDU8mXYule7tuqsY5C2BDvvbch1fdCJr2u9ANhCT6pf3s+qhyl0LMUbw+RBmt6JP7t0W7rsQqoDNmoTIvcdR5+tX10uHHpl4ubVp6sOGyeedA0fNN3UUne/aQ97srip6HCPj1bkkuabOqdBGuNN2334NKwi16GFFFPieBaucmndZZcfl+79C75sRPRgzcQPd7/3Mgu+kTVGfupj30aldKSPb5nh/3w9QN2/MxlmxibRhqEnmnTxA7PRSQYdUSZhb5+q7JaU4NPeZdnsvatHx22l945YV2FfTbc22mb1/bb9o1rbMPaAQaNQRtk9nJniclHHZ1uD1SSJiHmxJT7zIkgtfK3UjALcCoAD2nRZgVMXXLoBBa/9kuBJeKZtEZ6DV5JUxBRcfHU5fTR1gzDReUbml1SMengojPJp2SZgxpFL2sCE0TjTHY5ePyUnbp4zUan522izAQgRGWzc1WrFAc8fp63aOHsS+1CTvJMitH665Koo5TpOW1cv8Y2Q3qeefpJ27yu38ZZ6ZVl2rHaoLbR27/KqJKGX5YEk3cs/KJbnQioj+mXdDW1oPoB54eQ+rz69gn0RhuuhjCICbLH9u51NYMg1U3bWjUjQrKTpPEaS9deZnGDM0yAyUGO8+pHuLm5Wd6ZRFgDsQsSoCSuksP5jkKUsEbQi8UVGb1fYCGP6cqM9+16P8NKegOGKEmsJJ2m3wd9oJLqrkwqx1Ho8ZI+pWXRXZxUDN/gOBfI1znFwxFVVz0F2ubsxVFePmbRo+/gxbRqa1g2dmDNkOtvpmE0tiyfpqfohKgChtfGxlALqfI5u+yqKR28PChq0gVC4LRo6d5Lk44+egNOCucmIoNM1iM2w4dk0m2KhPqUBARCxP0U3okcZ+G/WXdd8rHjBmkm6KRZNE+b6XohFVk+7uth0+SSErifrqb+aQyPkno2r3rwtg2YNMPgTULI3JvXw6XW49lL4SAQRBdVwVbRmvHe9SDNzx8CylBfBBh/OVcfkMm6bVuH7cvPfNIee/h++873XrSjJy7YxcuTvHBSa+47N/FJ3nP0gY5Swdajx7118zrbsXOT3Y+E+OEHtlhnnucsVQmT3Xg2UFVu6+sL7OVX39AvrSuFdH8tVrGyCipUuE9C+FBNz3ARRiG9tM81wfC82QTn3tqk18M+jesJthXL806Dtvmnyd2q/eKkdZZmKuxwSYD20rYu6GJbCmnUEIBLSz3SC0v3Coe0Hic8/D7wZJP025Jpy83D33ijkCG168K0pXfdtRt5LI1D8j5MLAnfvIc9vDb8wKHJOpIKtCfnx20VaztckvqPd/q+Ca+be9KnFH/D1FsonzQRC23pL6KXtAZLDEysmZ1Ak6Fqp3lrnSlX4Wf8+GTnS9Fyg2dF3hgMZEpLy7kuIBWZx2zL2Nh8MubUbQ0kd8cU9kWvLdi6q/yG59D17UKHqcN60Dlc21tEOsznc+76IrpwroMIWkU+uyoR3ZpkTwdi+GHvnxdDdwoNwdbHKI0cesJwzZ23ALE9Lj4656cBTLpUmvXvw4kkrJQ7S3xNPhGhleqGJF8L7Cv8ZpGATc0yuYcH2yySsFPnrtrk7Jxdm5y2dw6ds7PnL6MHqRV5oOSShpOp1BX8syk1CB1IHTd8JlX5VM8OXhr0UrBn66A9smujPf3odgbKjB25MM112oQw3t1VQf+coDN/FUjSVErRrSYEkt5HkdqPGCz08gKZ1OfOM+ev0IdGad88+p491tfbw8qGfW4lQHq7PsjSR9Vl5VzHm/ia6DZNP5vgRasMuarqQUsa6tOVBV4669hv5ouCm7XzyNqEFzft/WsCXnnu1U6Wvq0hkVKflYRS90Qosx7wSaxWFXTxtjsvUluuS88XY6yAuk/YeUA26cMqidikTEmYK1fHkZLr5ZM7k3uxyItAD22R6lp79cG2ma+PL0mB8NefVuGqMn6obWSnVfd1X2+3W3nQbeuEmRR074uUeuHoByFVEXqNQnJq97TwiZ8+Ocst91SSvxdQaSsVP0m26TUFwqUVIEgIhV/zwEM0N2nQ1CMES3z9RMc6aCXQPEsjty55qNQ7jelpEyaUPM1JKbZHVOj0F66k6Sik4oaeHY6aqTjGaum2tJoXlznwcgT/xTHI0zOk5Wgv3St9vMTs3NBj61mBdOz8WcuiqzvM5M8plqSWeoMsFWUYt2s1+lF3ByuWDtqDD2y1bdvW20f2PoCefvosIJzUBnFpH0lNUbqfX9FG7R9K1Sxb0hea582wNzjwStCfkr7k8Zr9LCTfwlUvy9e7Zl7pQRqIvSfVbI9W3DRoGMsUQT5N31bAW3GUlkdpkUXoV8pLFxb/RNpa/a5VpmbJOAjtHtJqL3N7Nlx11+4X7umQUvBXv03yaGaQxmh6pEkt2afXFZ5fGu2GGKYB2Dcr0J4k6UmYscTx5MBH/vyWjjNpEbgaUte41BxFKUl67+nq8n2HC7fEvW/CG755UlDZhaWw0g/V2CuSNtTbwaC9FdMrW+1nL8+yKMIR+9YP9iERuWiXsEHINGYG8gLPa4iuBm9uXn3O8bdh7oA8yoAk407LpV574yjHgIOnjOh3SccNsjvAg+GB7Rusjwkefegvyv6oZr128uDRBB7pGpYQdYr8yswvQmEmUYVWSLdpm6Tm0HSuX9p2agoVxcOx0bEsJiwgXfPpT3QOTTapzGMcHGI7Pj6J/tWEXcM26VUmG1ybnLELV65xPoW9znmbhOTOw4RDUweyrI6ULXQxMIYur4ecLylJKOloaVJLDV1BTaiqIQ3PMTAOD/XYR/fstF985mnbMtxrG4b7rauEvcbyLBOr6IQOILcLLyV6GIbOFUBt3bBcim5VIeD9TCVqHugktJgG2yvXxu11LDO8+uZx73dbNm1kFvhm7gk6N1Ilf5mk7dV/QxJh67O5YaVHjhznC8O4zfPypfujKqVwAlddLYZ8NKj5wCYytdj5vUDaBR7OHVL4xYmoldEDnuUFrlZjEiU3mifBNREKbdOScPDBO2WnmrteowbidhewWM7HoyUX0ofw4nKndUnqQyWvorpVRjVLUyN7wL+LcadDKiXSB/E7ji1ZNnluSDjkIn+O9KIgixmaSCjVsDxfcdatG3bCo9JqTFRaup+bEhJPQY9C3dtpHUO4gLmucS4vOe2VWbtLryUXw+Mm8WxeI0JSXUVtPgfbrydpLk1e3h7Vx6EkEa+LCEMr2WZSyyWQpN0Mkyba9E9H5iREkk1IKsEgrTiNkGKi0GkYgSPMfHKst5vSFKaLck1yvH6nuEm2XEyPFDeMuMozrIymL3NV60b3tot756u/+JP2M8/8A3/51P0os3ayjqJ5aH5/8QwcxmZ4V2cBlQieY9xXei4EgQvHhPNznkhe9oQwSKARXNIv0gdZ4ruoiKnfivZJ3QJwSWcIfo7rkjTSYPJuPw5toMInV5KLPlnYwwq3cC2NF+4B97zNm9CO2qZOx/8/e+/5pGeSHPgV0N47uG5472YG49eTy9s78ngMknEXJ/GDqIj7cH/RReh0+qLTnUJHiRKP0i69dpfLdTM7BjODGXgPdKO99+hutH6/rOd537eBGXJ3gFluhFBAv48rk5WVlZWVlZVVwlW+e/z6OMof/177XOadr8pS3pVvc1nVp9qUP+99kfrnzuTJiPac2lDW37f5i29q3xaxfVXL84I2lUXK/hURci7cVkqJ8afyVGT2dJenFngl0Ly1AQYG19ZkzaUZd1oIbxOVa2DtpXV3W9r11ZfSueMH0xAbsC7cuJ1+/N4HaZKlwEUGi3VUoNswdzAodIbQS+UVhs1TrWkwIBEC8jYY1NfwQzu7tJzGEIbvjUzDJBCS0fB67rw78dWS1ME59InZhjCsENyEkN2MLVUDNrDRBoFg897kGM92vjepEOURePjnlw0YjGehLzEYWcc4ZIPEDxE+VxAY5peW0N5iB4nQ8JDNQy4xP8QvpxpeFLxZw8u7NV54SICEs77O0IKwb/O64Ux3UdxSLiXGn65mxCmPZoJmdgMbZ7Vq3Zy+dPbkufTKqSPpAB4uTuzbmXZ3taQ2tUva9iLY1gX8mQnzgnxkiOSjBog28UuepeZijfM8/AphQMIjlEzTVjVIO7biz3BLNzw2g323m1wa0pnTp3BvdFBigU7YtAjNROuXCSUuMiuGv/TBBx+nBUxm6pkIGkVXZO4Mn5+b4xSonZgjNUK/LMe6GaYSyh5h3yEv0qjN1F5YP7TSv/bAa/QLdm0J7KcSVwWkSr7P+KbAXeQa91tLjH4fwPmxxEgVhjJ5eS2/5JjmVX7J/GFkdCItMIGVz/VzjHM7drwKLK7+WJZavXISW+ZlFqW/VZG0AG8Z4UAB263R47M4Inz/vn7MUzJfrcZ9fNgxR2Hyrzbkd0JacoGI8Xi0ytcCE/IeQ0ZSpaZmH0njc87VFEXsnKbmt/Z9vhd73BVA+K42TjxF2UYoCyszfDJ2zsi45bfIOFhnpOJ12XdyOfm7GztzWfk5/5Zxbc/cpuaf/5Uw/DzXXFIu33tyr8GjbbjBxLAuTss0FqZIrMQ1ItR2dG5Pe3Y3AT9cmTFMnu9Exg1s2xFy49AeeTrfnYyKKrOWF4QdvdkFb68O6WVN4lNZ0fLqy9r7iPQP/dCGFlpTzZxCKAx+s525Fnl7KaOXV2OW92ZX2QcTafySWyGn9TfXxC/5iZsvJBRQFW1WW0RlklcBvFLFHA3Ayk/ltTb94/fWw1Be48HB3jflikzNxxLtNa8iyc//Y8qSE9TePZnDk2WUb/I151TCnmvrRt4yVtyUSCgjR+k+OH65QlHFl6NSpC3TlCDZgeND+eLpr9Xe8TnzyocamDgLUkErCKzr/GWRUba4lprpxAMd29l81p4GehvS7u5mDp1YT8MYmo7PwuzHZ9L0zGK4SVLL4WCKuhNtB4MFms2YvRaaK5drYwCwDGhkExuFuSUwI70QBwMC3uG8XQKCUh3UG2AqTWiDPb/c4x1lIIb8K6SbsTyrVjiHLHCGz1JerCLQanubuWju1C4fOcivrjHII/j694iNZxsI78G4lPhDeM+Nux1NWtg5WzZwxY5vOJcatkchWACFnExooi788L8J5/6dnbibQpvby9L1rs6W9PqZI+nFw/1pN6YcO3rQqIkIGWXUCNxhW71hx7F8uyJlhvGFTNNMo+LxJd8WtX5++dXBQNCC7RaMwIGOhSMmTktMqq7euM9qAUbaTJR27OjCpKEDbWA+cERqq/yLtLCUTOjQ2WZawLXRDCsN9KwYvyJ+9BUmZ+sPoY7MGJ24SaqZeosMAj15UBYw+5PfzX8b5jeTaJ4fPernDW/5KcuNZJWf2rwqL5/hDQULgMBD6kHgFuk7QyCUBz9zv8KKixPUNSYKTkpXWaFRaHfCme/hJfQveVJMoJkwh+s2N4/WtaJtXwhBX3vKTpagW5h46pXGvvgIHFqQ3TPgsHyC5k/kBijyp/rgHdPgzgltI7ZZzc0dsclJ/CnQ5JBh3hY8Lueb62k+xCBaRDWaScp3lYqX+YgCP+b2zW959p1/8AyvTs7LENGN6MhPPcXZ6jomakz2M1+0TmxcxlRNnBaEA37yKoB7LZpdkeMPNgXlESXKt0weatJYpq9yAHHBs3iyUsLFX6xAhERrn2CSp5nO4nLYP69jWrLA3oiYeJFMgVGf0Qqa2zEV0Nd0B+6/1MLLey0sBBqyt5myUsL1yl8kFAJyCXjUJ8CtCN7iRVjkwPquKYNPjQi2jYxLgRO/l0IP3zTBM06uMzfC64sngunyS3mFD9GTi8jeZ88K0CZtG4JGTTlbszOjaiGRknxst2qfFluOdYzHFg2g/ot0JFdBtE6fWsBUY5mJcJjsIMh7RHL2VrQ99gGEQA+yW7BX9oTIVsZqx2iDK8ZbJy6fVfeI/pQ/ItYsrHshhHFnX801Lz4Zp6Y/yzo1UVxGKfYQ+vekxHUn/UanzR+yYmN9NQVTOWDbWD3ts5ugyxbq2+rmVJkEfa8gnUif4TGj/Oiv+LA9CkxXP9Tc5T7i2GFfiUqRiHoEoXNrVWv6d5k0x7SwIk35gefIK54tHViLMUOYN/AIFSn48RpmV5bBv0VW/VZof/GysvIwPaRNNfl8CL6EwTjiwTZvba5P+/biscvmr6lzBYynvKn2us+dUWYL4nQbAmyKPxq7pNKSbUQEGhn7pT387UR4O4f3hZn5R2mKjVo/+tn59Nb5C+nOyFgamhrHQoJjXrd71CvCIIjyKFReQBS5qe1c9r5sOxwKZfBvI9Aw2B+i6wUeKsWfHdLBbH1RzZeE6GxE4RCM2mhGI/Lmo+kgymxWEW8pDiKBUOM7edtAtkOFYEiXhW8RwOCPu6c6Gs2CLT6CNyaS2CrMgQEUYcVBIgaIAAUbSOB0QEFqxsXRamBv546B9PKJg+kbb76Sjh4cSHs4rKOrtR7XbRzaG/Xjp7DBtAiyhBzJ24Er8E5NrSfvDQrq+VZcPg+/mhjIjMp2ktHEJjTu5+grY7Nr6cKl6/SdVSZDnenEiWNhv1thEtGo/hSty0WGq19YB6ExBCuZUAMTwSY1sQoq/FlWCLvSBw9RZqUf57yMI0npd7eOFRkZlfHsH/bFBw+GmQAeI30WbIj+jxAAMBg7NK+qlSDcAm7fENZHMThjigEPGZ/fxslXc3Gs77ybSDFDmsYkSZ6j4ORxv5pstOBZxo16PfS/nRwuoc/UlrauNDy5kBbQjm/iTLqFAbuRgUyXcQ7wok9clk2RwRA+hwzbmO/8aetv2dwy6OPloT27NavhIkUmVoC/GGx0LUg/50uUY+YGM/HC1dtysBaMSvBjGdGXfFSQ8a1ZS0seeKBPYagv6hKbqYSbdh5ffIRryYU0iGvJsbFxvHOgpCCDKU6Ki70MZkBcTWx6enuxPz2Qdu/qTXv3NOA6j1pZnqVZmIG4pYBtG4m0rJQQKPLyVTQeG614jDheeT+Laz7d692+PR7tNj+/mO7cvR9tZ1Ye0qCP6SZMCNqYFO7F+8WBvfVpYDdKF8jfvR/WO8NkQfE/8MfTzxVMn0NNfXjhMFWukVg/axJ9q5qgSOfFr0Xgu1ECFcWr+MqL6Oe887tUlGnEcRhhieIzukrxFrthM4nMiAm9eCuUXm3zTwvlyBAyGHFyv8kxIwkKpbgquVHgGpVyQ14EymMulEbmHqXZ2YV07/4gqxcT8J7lOFJZgVevJMbv7upOjdB7M6si+/HOtH9gVxrYhYIH/8L6ZjdYTvZ4JF/iZdBufHq2P4G4PFbCEck78+DoC9xHv6C+giXWxaH37s+5P+lR0ZgsYsboKXr5eHDlkro0Pj4WE0FXjztQWOmq0PrqS3kX3lz27NqR9rbTNmrzyc8/q+mYHZ46oqSMhwIbgZOfBxVZbjEz4S3aB4QK92cF8e132zzi8cJ34j1okCcpOa+WIKtAJE7ejaToou/8wA/PSltDkw/TMO0/OTmD+ReKzdlFJkEL0MYsYwhjEGOIPK+nu42j1BvSH/zr3yZ9NuvJtB2lC8FTh2cg8GYUBGrgGLkDWt2yywgjcQoipUvyzOBLazXR2zwgrJsK937jXPrGKyfSPNQzGqfKDKZRGOroxAR+Z6f5m+L88DmSgk06ynY0B9Hzg0tLmGpPydpWgkmXTWO3364gSggWALHJwAO6oBgTSeRmrVY6p/d7DOI+Rwy/k46I+X15D9sOrmE80wKHdYXAIqUZe1e0mdppO7LMe32NHfF8D+0RwHdhqtDV0RMn7wygtduPDd+hvRzBjNaoExz1dbZi+8WMUMf+CLvWJ+pCWrO3KGsjOMIfdYz3FshNxCrqH+1RxvDb8/ArhQHaJ0gHoBQkSuYzhCeP85fuYo7gBrFtmOo0pWNHDiOMNYUpg4nKlY3KRIx2N71C1Ri28x9fuoKw24SQ3IR2gekfjHZimmNx+b6E4OIkLBilo12EgniLp+gD5GkctY890O0kbrk0r1BQVDNsKOEPsivS/jIu1l/Yoi9TuBpAPUksYV+vG6g7d4bSx/qzHptKI3iOmUVAsm+E5ok7tTPWwd6hOYJ4Ce0cTN36up/U/QBhF0++c4vzaIJpL9DUgWBVjxZHDMTg/CkVNmdxEljiql3+HAcMjAyPhC11T3d3OrKffGJ8MtZW/IfEB7/T96+23N/+8++zgXEqNTbrpsohRvs4U8ENBCpKst/XhHgtrWTtXBNapj3sd/gX3/oGgmkbuCM9dXNVyOYcn5pLt+4Op8Hh6fTO+x8zaC0x6eGkPla4xNE6E3QFmDW1WfzLAzW0C89sAB+Nje8z0G8iyDSk118+nV44cSjt29OLC73eClDCJ50WLD0EZ9BNbrk2VkfF2TIrHMNj05wseCd9/+9+El5tMhzAiobeVbllNEm2o+YB/jmwugdCga8RTW9DHfsfulvSkYP96aWzx9NZ9kF0t7diCgcQ0o9lWvjPHQJ60oA5b6GVVbwP3Xkwkf78r/8WukPz7SdoSU0Wek4eLKwYJ8pylLoj2P8zX899UUkCOkZDfer4wXSUPSuvnjtTkzrziwA5sqDloJHrt4bTd/7qR/RrXoaQSj6U4SbTwOvPU0fQsM4K5wGE0S+/8UI6cmA3KxkwDmhLHqRQT1XT/ft4fbk/nG7dvp8+vHQz/HzbBqtMBldZQcn9yU3dZc90Eu4eHgn9EaaGrG5w280GbD1YnD5GPQ/vZXLJBlDxIq3SluLsiwhB82YMTizFICodYxE9wze+HlTcfzQ4Mpc+uXSD+g7haWkptNg0bbSZdc10LP+wvnmjvoJuPSti8icPAvIExQauodlE4OvHu8vAnr705ivH8cZxMARjy1deCCqh2sFTlIEITzadsQ01+DEtEZ24j6Nc/F//6L+SR+5n1ivv9cipcm1z6lwO+ZBWOjRN2FdTF1eaVVj+N//yN8nBCRQ9HrnGCbE4mGPyeR7+evHKrXTz9iAmn5h3QnaxWoZ8RxbgBQXkBoeT2TeRX+QNB/fvZBLaGhxMwVTeo1nPswzPQOAVnALBBb4rfbaANDMsYvnd/hZ18AF7NdyraLLWzux77w4qSwdaedibTvQ1pwm0WeNu/FpYRghG+J2cDw3XAurxBTRUbrhZgcGusLN8Fcbr8mFocAOOomNEm3nPn+9Brh1HkCWEYCbxnm+B4CKOkWllB7jILn6pSVSCN3TamHUS3exk8iEIwK2tbwz2JvSGIuthuI24Uaura2FZIy9ldNGxm1AvuJTTy6lKOzFN6OtAA4Gwu7sH0w9dsHFPF4GPQknAYkkZkd4poBe454sDhcw6V04o7IH++V4cGGA24oCQv5tfNY/48PznHx0DJcMJ8imaJwbQeyNodxlM2I/Yy/G1as129HYFA7WhFXJl1zIL21XGm4PmN2sIKnPp9t17QRZdbPbs39XORrNl3iPwQmP2I5eCZdRBTpG4pA8zC1HAC10gu1xqb29Dc7OcVtD6zc7NR/r8nWHf7lZA8Mu6RJ+2MBjNIoKP9sU3bt0Im+dpTikcxLvFzVuYhCCkT+OpwoMeGpFiFfw1VXAQVkCOLLg0hs0/hwNg6mCdFVbmYeoeI7zkQF6n0GgvTWgSO0mPLaZeLrbYP0d2+YeIYjHamKvmUpoILC1mDW8H+NzHqZPhaYZc7cllyHdZa7fykAnGwkb66PJ9hNGJ1NiCaZNeWIIhMUR78AwJ8s79ko/lHCw7ZIfgF5t4lWhLp49kWB4lBF7IR3vs8cmpOLr8E/zEDo3MpMnZVSZMbpQUvfAxeJrmAjI5B7GWlrY8UEu4FBWTqEWWeyc5hQ58NTKwSccjCKz9uJr8xldeQ+Pai5Yn05UbcUVk5s15oDUr90OMjs2GoPuAicrdQVYCh8eY/N1nsySTGjZbtoTZRHOY2TQ0tnOVJ1br6ybhNQ58WEPRsLa2TB4baRjN/hhji3l++bUX0y42/raH/bkaPmkgpy/x/9lXgLTPFUGcr9CXxqbm08/OX2KDM0LTBgIOZj+reOHY5l6L4Mny4pI3mwehHEDLR0z0cj3In82MHV29nNq2w4j8EclGNpglj1ZZqrEHW7cfvX2BjshBNEoa0G98xVwwDh4qy4oM8o+TFVc2g0YcK8hvbZlJHcLeKy+fzRpjoircLDLxvodQf/P+g3T3PpvRweO9wZF06x726CQ0nzZWQpxslJMgV0Bs7QLq2Ky5zthtf3SF0wNb5hY3k16MTrKC8PILxxC2ezFDYaZZ0FUNuM/uVnxn5AG3/UNTQ93DbaQxtJPDY5OYXk6nByPjHOc+n+7cG07jYxNsEGejLlJ/ezv9j1rJO8J7DZ1Ibac+891TY4WdPDpQy2NnMPVwWd/+qinQzrGF1Hd/NE3iMvL24BQTsnY03vhbxkOVC1Vu1s84C0Bt+cfCk2/KCE7mXRn86Qc3mWA48aO/ApJCb9lHyrhRBvWXY4QU4Ywm6sWb9ZV0mPMR3PYfryky7MvB1e27g9D7Qro1OM5pgnfSHfroXeqjaWUdPFWcuEJWx7K0pnAt9NFFxp4llBDruOA71tiWOrt6oo6ZPqyPf7nW3Dx1yFz9qbLJQLlkGg6yOS5RQcy34DNCPBWdcpstR1Doiqoo/RajsoN1PcTeCsM5g79BB27zkPXo9GIek4Q7zCDv477r/jAqcg6sGOM4z3H+JmZEHAREBwyiJS8RFQ1m4wVPoZEZ3CS40H4VuJS5RjBSdKji2XtC7pr5PvJ00IOYg1CK+HHuOaVpO6xGQR6mQBy35N+C54QdmiJgq6NXiT58Kx6EmLW/7d+JJpcBzqU+ea0zujLYT6LMGJ0ygfom9x+0BcGwTMAf5YgrZ0y6R9NeK9ts+ZmMwbUknJERmOGDBfDtefiVwoAtGhTsD3QkDT7QDRkDy4WPr0AkaOQGBtKhfTtgJAhpauNo86zdDWqwpeNPOlVrO48wOsmS8xhCzDpCwk58xZ45fSDduHYjhKs1OOAqE8iwiZR2o18UfSGwE8BEnt7ZB9xkpX2m2gppUsEtNsxReEGykfKX+eNQv4Ed5zIC6oNR/A2zUvRnf/VjtF1DHNDhJBm4ofl6tNxqRdtC21KPiUJr2EG3cXXJMfovOLAeMuslcOPAobnRPF5XlslrGu3OCv6H1xgU5WndCCON9c2UT41rUVeDAAWJkud4r8Cr/f8K2nWT6F5uJzwh0F+kK+khP8ph6dkMPpOTYwwamF2wRNiIpxyF85iUw6PksLnF7OOZF5ZAyer0JqNXDoWMJrQO7Whf67YvkqqXTXS4kRyaSpeu3k3vfXAxffTJVeiCqpNPYxOmHa15g2wHg3wLygo1VoY2vOR4H5MO68aAvoh2aXKmMQZ5hb1LNwbxyz4S3mTqENK/2foqE36WNZuo5aaH55iXG5gz3a+zL2KS/R3Xbt5LP33no3T5+l0Eb13qsSEaW+dW6mzxTlb6eruxjeSIbcwYQiERfFANEqfhAcvc0gJKEzYZLzWExun+8BwC/Xy6dmMIAaAxffX1s6l+dyf2vWLuMxqQL08GhUSFB77wVwpKiwiJg8PjwIk/dSZF9Qxk2oJvIgxH7wz4zM262k5ebe0c4on4rjgoqyIyM7HZgdCAcBXRKCw2I5s602pOmXOxD4yyCtCEl4dGBA01afYPTXrkK3mELUvLV0k3110PRLmfr2D3/3CN8Rlf05r6uFq0vGTdZtLb732S/van7+CFCC8TjP8bTPaaMf/RNt2xMMwWmBQFXVC6npRsj0yn8Bw2Yys0zrDUvYrnI+1hryMw34PfXbx6M9r+W994Ix1kc7beLUTxFxJqMnbjPN0CGmNSND4LHHfTBSZ9Fy5eZ0VIe1Q2kEf96Ddt3WEu1olLSJfn3SSvS0H7n3V2BSfwSaeLjazgbxUzTX2hu1/JI6T9WwLHC5hP3br1gAOnrqTTxw+mr715LvV8GbMPhmiyzfQVlYdWginkfrcVHyX9ZBqwWuvwlzXpn9P6NKV0s7Ha+Qba0xPn87zHdFIcIV5AJ7xSCen4oRb3EZPFjc3u1NbBbJJv0o9C/MzqtvSjD6/Rj+7jOega/EM644zVRvsnwi1mnt2dmCx0ORGFFsKcronxbCiNMmFiHoeGux+N/gB5FhKJNCoTDIAE6unDMxJ4BURGCw7o8cq2wljCadW3kGnxofyu8Enfq4S8kOOjjF2kOkPapKPj7YHllGP9fWhlMAZ3EGeGsEhDMkmg03Dl2Q058wi/ixIV90tcH6Ii0K7Gs+r1rBBaLIRftVoVSKnA44ORcJdwWo8gBIRH6UHNRgOzJZcD29vbY0mmjV23DljarrmJSOG2k6s7tzvZLNFEB2ghXRv3eotopOFdHtVMIc/irHc1ODAZMhlmJAmP750QVBAXo6NvcpyamBnmTNGRU45iZ4iczP55+BXDQGlnrQ7f9tqgfd/58Eq6cX8CweNRrAzo5/rQwUOOoMair2QNgJNPj/7NvY53DKob0Pzg4BAau2kYF4wOYjt+eFf6xpdeSIN37jMXYuMUjHkZrYPqNKnDfmzZ8cfFUNsXHBTU2rRC343YpzVgnzSOJs9+Ka8qSDfTaSQms8g0svoFfjI1W598V8JR9l0K40MJ29LqdoQYBuJ3PkwXEY6GRmbjeREBVTtjqoomrxehqDX1h05lAAAAQABJREFUdnekvUwc2piIKiQ5EDehgQqtZcGU7FouiauFsnzxubzMyhLaXU+Wm2DPwRAHeDzgr4PBvJ5VmywqlBB9SlXlNeBJ3udyvHlpX63w0op9/i61OoHAx/Pgmf/C4QA2ST2111cQ6WR16OD+fviJCUN3w4DFYBvxfQcvo05i0QFvCkXB0IMH2L8uhMCrYFLf0Ib52AJLktfT33z/JwgbCNXT87QnGnBG3Wb4XT8u8Pbv35d6cDvpYSfahjvhV8hV6MzCfMaV7u7UYs2yAiBfHhkeTZevXofEOFqXScKffOf7sZHl9OHd6Suvnoq8Mras4Xb4OJo+BJ+//v6P0iXacmxyDj5POyI8trbUp/0H9uO+bQebNjvhwfBZtOP1wOIkMCskFNHhrbSfk4pFDlZR6z8xhZIEU7nrV6/FhsVJjvD9zl/9JITgF0/uS6+fO0x/Egb+vMhZbQrus7cbHzI9epffe5Oj07S050NwiwZP7T/CcC/CuAcDeYpe7NsgvXnIwyOPKMjCokDKyYKz2u37Q6NhevMIrfoAhwrtYNN3TuMIaT/I/c2UvnckWGYMdMMYhhBhg93D5ufdu/qY5BUTFOmbQiKfXCT3+Z2P2tyafnSMPTU8NzAp6unrDr/5d4aG07vvXU9vvX8Fbec0hxwthj9vzVdaWcXcizJn3/69cVy5Pqn1ja89eAOdzyX8gNEf+pLCs2PzIhO+WbydaMJ49eoN4F/FRGo5ff+H78Ob1tMJ9vz81jdfyyue5iCQ/oWGSHqLXOM33tOXMhVmhY5fI4ENaTp/ij7mo98BB4FQAS+lO5xiefXm/fTDtz9EWzmOws0+yooOfM8VIRUGO1hl00a9j3tNu+zT7o1wEqg5T5RppgWu8+qqKxL2eVaf6PPas05NTcGfB8Od6Swr2zOxcnOPlal7sSp37uzRdJDNXK0csCVfiLoypkc1CtitTPmcK2OdxME2ZCBt7rOwq7s7hc7jx45TV3AjDQhfhIzF2HSmzMDkRXMOVwaHoQNlJ6Xg7ZgjKK84QZlaWEt/+jfvpJ/85P0waUMvEJvz2tra6ZvYy8Mrdu3oCb7aSR9182isgLBMOcdpocOYY6mCaEWD7+pKbi3hybAVgD2TyzMQeGvgsIfyX1AzY/UxN0o0vFGLm8pzkdykOVRuyheRpL7Iu4GZ6jaXNoqwvq42Bd+3DEaeT64vS08vk6mtwCm0r1lhlqvAu8qArgp91XvfhTbLmbaBRq8CUSUcCEEhOGIAmkuaDUy1GlHRa5og89INmgTeQEN2IJRnYbaRdxipM4i2I9wq5DoQuclM12kOErmzRdb/4E/GSsGcamMHzFWcZa1cQMuP78tvRR0grKKFqCM9p5SoTfI8/MpgwNYKXgy9uTyOciW9ff5iGppYjln3LjSAOzFlcBlN5qEAsY3VBXmUTHU9BF5oLXY1MqDgl3nwwQgMdT60LrtZTu7f2R5/ZqiI6yC9ST/axgCkaZDvtvGy4jYosFMwRJi4DN3BwSVL6dlBYgkmtuqyMXno0SDPswA+yNCrNYuHXxDXn55O+zg1FtlueDsaz9l0fXCS06sG0UreTPdYCdJcYxHhY/fufmBtxk6+JQ7F0f65rVVt6o5gxk5c7T/1MuSiz9fK5xkPGXbmtzFZlveoGe1hYtu/sze0i4wG4BJ4VX08Hsg/JtUIQGErzXc9HYSHAfiR3bEN+8ienk5QRXriRRcv8wGgEqaHDJhzuHVU86q2Wj5z8uhhJtIFWyc9Ux3QbRoGD7JzSFRgX0Nh0EK7DWE3bDFO3Fta2tHqohFHm/r2+SssTU6GcCmcal96ujrwtNDM0e97EZx2MZFHuIG/WR81eWr8pQNpImt4KZKyTN/Ts5ZmOubAE8IPQtFdJgeTM1Ox5P/u+ctplUH/4L4BBkZMJJgwOJFyU9yNO+PpPfy3f3SF5dLpRehrHeG2O/UinPcg5B7ctzcOJXLSpWY3tEehPSy0nYFD4INWhbPzUVuYoXTh27YHjVwrwokb7zw8ZGR8DkH/Bpq2WXaKs/rWpYICxNsANgzB7BzTAqc+8xftBF1XqTovF0+wkjKFYF2H+YBLyF0I4y+cOkoeeP2I3m2Kso9wS6iIMEVmbg71MKLR0XFonP6NoNXLoU4dbOqKEBdhq5YfMJHvIsKjG/j02CMldLS3pJPHj6Kdb2OjnjRqqkL4NFHkwVRNAQ0cjrKEry/5Ecq2b2tv2cDE9hpC2CesMn340RCmDNOYlGCGQN85sLefE+BYwWxjc+K+PrzH9GHT3hm05Zhp35I2KKbAVRTKs1phDmhixaK7K2sBRfvoKKtRo6NMzCbTR5hxTcxNp9O44jy4G6EbeBS4IkSjmFe0TE3eRLKwGhEKbPPK9+KMe5DgQR+2b9jt07kWOen01l1W0rBB1Rb50rV7sSokrtqx0de3fzveRgawue3ihFgny078lAGke+uYBclMcwqd2iAHKVJqrj2w8kJN7+rDbnwtd4RybJpJ4ShmAXfv3A0ZZg6Tq7foi/IvafQrb5yOKin0GqxJiQarWvKGeGfVmQx472rIDBsI8wFD2d3dyRPHSZC10FWBl8gE+Ybw1W1CO+DmLpuRVR4us0ro5l19SBuusWp2Z4QJ8oXbTEbR/sJuWppa0oEDTIiZAOzGTWPwCvq9NCBvdeLEcJUmHrInS4sAgNbMpa2tAd7MRCHaTKUJfCBKeXY/z0jgBaUi1z9+MtllRIvseO2nZxBqhVKzC+0CGlKs5njyr5mjhzvyuCq6BMCeDfLKIFG4yvAQDYO7r23YIJQC0CrrIBlxow7E8cYNZgqyzuIkuhi/TWckQmjhi3zym8qn4tGP/pWdroz1RVzLssq8M2ABc/nq+fVXEgO2UbYXR1MDnY7OPkwffPRJ2mQpU/OFw4cOsZljZ6wk6IFEmlqHRlV2OLhJh87tNW9xoFRTc8+BnQF4HSb7ChuHBtitrqaigT/HIfutNpdh0sBVec2VlUzBRIhQ9O+iHAdyjxeOwysQPrXtdGneiaduqJ4MZT5PfvmsN7lEBhHgy6nLgQ3NnRoKtJjaZ45OLacLV++mn7x3IV24cClMnJowWdD3tgz6hZNHEKh6Ed52pN0Ip4zf4AjNJHnE5i1zDwENYSBGeHHpu9pSqTiPdQjZ8h55x/4DB9IBGEVsPiVPlzDVSFUnn9WaOeCGUEM60/o8g1DhjmVdOKl5d2Wot6cH+Ko8yxwyFNW8dKU2jZZ2HYnXSXcXg+aRw4cQwFsK7RIpHGj95+78KI8yuaoAuHTtJnVToM4CGqWnHzO43rw7lD5k04ka+ybMVczv1XMvYFfMkckegoBm3EFdoT4LttIIGme0P9ZJGsrQiisnEJpaMKCRbm//3rR37770/ocfYPNXj3naCAeoXAUHk/ih7Uu/+RuvhiTj3oyPrt5JP/jRh+lHb32IkpRVBPjuTrRpRw4dSIcOHSSvgfCdHq1EOeIncMqNyozSE4dtKm7V8qphbEdp0tnRlfrA8fHDB9O1azdC63zx8rX0ycVLaXiwOR1iwP6Nr70US8lBbVaRfKNJcnV58dlBIX94ZDRWVYyll4j+PbvT6dOnGezRUANL5sNCnQOoE12EogDuVdAMYhOrwL6hVm2jHk1xTwivTxCEKUlqXzbobWQOAcW+aR/oA3enTp1C4AWXdbkMhY2yyJxMWqH96BPbtl0NJZLvtyO0r67WIfRspL/8f9+O/jU2uszJcBy0wgStq7clfQkb6N7uHQjkO2OMFAbpJMysuLdPOUE0FCDGvcJgYxNeh6A3vWjs3LELDfE+vG4Moum9yt9SunXzbhoeHsbO/FDq+dZXWElBg1/m4/ge0m9Rl8g1oKYc6+kfz8UlS1H0cWyqTZFpmD0MTALdvDuM4PZ//8UPsUO9x+rQFEqFrmIFhBWUA3s45nkPbbkff/i9MamPjehlhShDGtR2OXuECmBitDdK1uyLXuQH2rSFCaSTRoXDAwf3wTce4dFgCltZJisL85g41KX3z19PY2ySu7jzGhOJ3elAfzf8x8oYCi2y9fuMoKC+iMu+KQ42kUDcT+QK9OlTp6ENsMi7jKdqBvIMc9zOQPKQNnuIhHr9zu0Qo5qw02/t7GNP1Wr62x+9z/H2bE67PxZt19HWkfZA52+8+QY8dgflIMBKA+Qhnj1hV3/vYaaEVtvJ/urqMkrCOvpIO3joBh5Kzh2hCtAzuntGAm8JTbQ2D1sR+NlNUaZ7uqtEm5unJh8LlSbkAIG8kkCM4xIX/m1RnzcFwy+bu4hTDHDGzFwp16Bkpjm7vFQQUfwc5TGTi7Q5vt8KrlZEEKRchr9bhzMjfwEhQEFXB9BRtvh4Hn7lMRCbd6RrNHP3RybST89fhWB09eXGlzpsnQ4FM3EAybNzWpemdQE3E6NjgMwcrStLm0MsJautcQltk4Hz17/6ChqZtoi9gw0wTQ33WLJjcxHC6hqCq9QdUrMwiK08OhcXMi2KqdgMw+CDoSHsrCKgO5lM2KQrUpbwmM3nDVWq9c7enoc7tTKaY3yEsPIX3387/fS9S+BAbRLmFtjSHjygYLSHXfinGEj7guEKkxPdsK9zYOJEQk0ZMuP3YhnUu9KXrYdBHFMfHsNvNnbCAYnCiAIyobTXq/Q3X5JdJQduitx56Vt8iCOULLBhzTG7B9t+7f/asJEtUG4OESKd6QuepibdTYIKcwqVDmLaFW4wODngqpbTZMJyTGvJapt8cif5Mlr/SNvQHC6Dvv3nfxMDEGMuNnaYB6BJPXbkSHrh9Ek8x+yjcnhggN6kn9CGgWMFO4P1BbC4zz/FPe820GiuMymRdp1YaOb1xisv0iYn0v/2x39KHnVsSl5O//G//Gl67ZXT0PxmuoK97h/9H9/BBnuBSR72uEwwThw/ll48czzt37snUKePX+nffRMKEtGGAUxGrW0lnSjQa3/ocnOeHNJeVFKQNU84enR/6urrZAAfR/DenmbZkPjH//X76aUXTqa6LvCKMJb5Ngk+K0Ar4jwGd+JYe5fnNeOw/D278baDUKOJR6xKFPSSc8y/RbNG+wqbQpHHTD9A0NNUz/pp+tbPMjGLFBEspxYq0+XAMjYmfnpIMIQHhJjYFkKHfMMPwOb4KcA5KTd0BSeSy8vaqevBZCO1oZ0exGXov/v3/wuC/GDYntZhRtOHadBJtNYvvHiMzbPdMfmS76zjz7skB3EiXLlfCXHGT9zwIw3aVprfhCYeYJoat6djtMuuXT3wpMU0MtKIJ5P59Md/8pdMUg7FxqmdCNlQVM6mWAkpnqgMd9F/qUzZkXI1SWFN+UMGiOQ+YjP+8ZUbYb7w03c/YZmeSSFeZ9SG97Ecf5Y6Hjt8IJbmNUH0OHbb0Y3y1s0VNjPTnEYYgk+YLSFWhoDP94EHrk6OVSyUfML3fhRX+/p3pH/1+/+CzXFj6dLlGxwSdD2NYGc+xYrIv/uf/nP6t3/4++lFvJy4uS/6nTkHsqMlyagIUS97vBpezCRmsbGmTIVsTX+E0X4AMEUCITREQt5zR595iJ3/Cm2wuDDHK7fssp8KU4Z//z//l3Tl+gNWRmajf506cSLcDx47eiQmxfKZWCmkjErbU+8GtLkr0PXI2GiYU+n+sL21k/1M3awK9JC79alAIUDPLDy9wFu2oCCB9MxaMwKjDYG8ROOzgDojTtooGqXMtGizoo3Lt3SiatzaJMbLk8IMcYa1yLO4mIk18tE6lGVaI5lYhIhb1DAKEBBf5kxqGWWOVaTLqX8JvwVsxeWXUODzIp4FBmCmrF+g3U2cRriaPmSzhFo6hZpOltA8NVCXNjKrkqI0bcgbfkgKQw7mhNbC5fKhB6MwWOzLMMXpbG9A2O2GyWRAFYqMrVCgz1kFXoWDOP0v2GW1QpmM7BUUQX+3f7mhq1lhC6Fr45GCFI7G0SKz/bRIaKrcH6o5/WJ3W1IHEPnkwnls6j6+chv75mvpxt0x8MXpVbju60bbeRjfr3t2srSKRkyPFJto1jSzcIlXAUkNtn06XgFOCG98LqGtlBnlCa/93msRyZjcuhG2wGDBF8Bl5G1cgtFr8sj3gfEoa2p6OrTiDvh9PWqT1DzldBGhuC0hE2ZNEhRo5ti4q+unOnb/u7SauVkRk3i2oyG0dmQmTTgEOogppLsByRUAK7bIRgh3pCto9e/ZgyB4lGXbPWgGGYRCQHNAzqYL5iQLFE5LkBbUaHtfvgt+yfugJWg1w+IgiDcHBj2F81MnT7IR6CaD6WbsuXj7/UuYnK3HUukEqxqI8qkTTaxtefgAB+1g29zGyoEbI90ZL82qudVMIwqnfL/5zgFdOAMigI07fqR3B34FyHU2TLmc2gLNnD59PH3yCZuSZhbYBL3KBukxNpe1sqFYjwgmLOsXrRP15EMOvIpJGPWVtlxxCM8lmM5pCtDMkr/9VaFYvNjWCkJFT8p5kE6k5jjInaRzpcTJkDC736O7vZl+pjCcYSiLL6+Vt2Q1xwmm9v1H0IfmdmrZKTo0wDmebZMVNyEfBoZ8Rxy8J61gw7uMBs64CmLLCClDI0yIkaFb2/EgtKs/JpNq/nvQgj7C5VQjkxD7kVWp0ArPxfAc5ZewltdykkAKGk9aEiamrdBmK2ZHTnRm2SS6hKnB9OxUusmGtkb6SG/PftrQXCq1LrKk8Ajle69C4NWemtvRWMrEC3qDmphNP3j7cvrk2jCb4VmpYhKm/Wkv/XHvnp1sDh5Ae90Z5jiO/Q0gUnMTK6r5jX/i1smmIZcSt9Ufvme5QfyUGPEzz8JEW5hOM8k2VlZ2oEE+ffIUJiX4r2XjoV4ybuP67fK1odSBWcFhNvHByrYEa5Zrb10Nua6adc6i8Q+zlMJjgpppYS6FUVNU0wqJwfz4ZxvSr3SrNsY+kE8w97hxGxM57He31TXj3m9HOspqSW/sjfB4+yzkZu03eRXlWL7KBu22J8nHDbuuZHbAuzyUBpZQAlGUH0A8s5/H0PV587U2FTjFcRBSmVtGXPn0dNdgokUWNlT5HMu/ubUKQCjVgsG0RO2n4Cfc20f8VIZyArjlZfGxEo8McqOZNjdgRIkyi1hEyPO8HMdfP/u1kk+R7xd5CZAqBVjy1jf506e9qyR6fvOPjYFonm2hbbrPEpc71Fk/ZDmzL+1lk04LmyAdsKV/B/1MYFB2EGkBPHmsM7vWz+y9wQchs3SzbHRsQHd32kqh9SKqm0hkUDKn5ZVltBeaM6Axi55SMGY7kYHOkvudWk3T17EEz4ZN3FNpm7XO8pTLZ27qsr9luKIy5YO5/ELBXqSQ5tJcCBWmJnM3yN1lQ9q3v/s2tp4jLNnNwzjbYpDaN9CfvvTma3FqkxupMjDqqrJApK9cPS5sC8FHAYQyGNQDIVFeFBLPtdALSRkcCMw3YOJ1CDAMDNletBxgi9g1TCYPMPCQQvDSnGEe7ZXtqF2gu5n/oaCHBTfp6p7RNnYDrGYbaphcwnYDYtWkouB4BQzWwF3hDjyh4QlNrQMUAxow9aFpOXH0cHr9tVcQvtlRLV8DT5AbvBS1mH/Uu8J/Awe5Pg7a0eg135EFIm5ZJ5e2xakTpHMvvcjBBDjmxwRB4e6v//YtzC04tACtkX6Ou7Cz7cf05s03Xg4vNx4SoTs454Phe53Mw7bVphMOhQ8ArcBGSdFOfhcAK0+87FWHLoWA5oTBDYunOMBlnOO6PcRiYf4hJh938Be/G1/oCBYmM72h7GO+NFSu3JC3A44TvjnMiDzV0NAOXWoKF/2VKJlmcsKSNMzf71ou5jErb25SUNFcRC3tfsxxqoBE1p/+Q9bzls9mQb0GhPcA0kublmrfLTcaRmG8zNBkGHzK9qVOXBXicVVo2zJL1FZam+4zp06mI4dYaaJeTiek3+gf0Q4UYl8occWXSgFbILbv5UkAU88QqrL9K/kxMXKScPrMKWhkGFyisV5pwb/rXWhnHXvkvfnQkEAcmVoElSgfo7ySHEPgFTq09UyUjKcv+0WIbQh3d++ev5X+5ocXwrNLXV0TPKQdLfIefB4fCVOeRiaUNq1mMvLG7eH+T3oD/kJQDR4isQuBQBgsiFLLR/lsGYAi58lHaTYn0iQI0yDMLbo62AjXs5O+MJyu3FhDy41ZAqfSvv3etbBh3s2BFexvjWqWedbUPl5Fe3Anv1hgP5PluGFVs6SgNfp7CL6P5WJi00abWh3+YAHw+BY0/JyNgF23p6ZtbsfOHb7z4tnTaHf3h9mSnl+crFjXzINoy0CAeBB3Cr24SRsbByaOZGcy1seehcbwjELB0YgkEHXPODy1wCuDybMVOqrqfAkAIP2zjtGZAVxicCb3LIMNVgkSYFlYvPSbzINrOVj7PoCKCNWfmmyqL7felUWV18rXx9IGs+Jj7eu4jwavpMo3tZEe+/S0j7ZDECyQlJqVJ/L8Ast/oqznL34xDDB1dzXy/EeXmNHfRWh14OR0KJbnv/zmq7E5RyJTaLFfuZSe7fyyWzyb1u4wwSz6Af5Kp2emw3Zqz66B9Jv/9OskzZph+6m+fNX+hO0pXE2Gbt4ywqwZtNsUxOKnoGWZWI4XR3YjZDmAehiCWiXNKDKTy3G29ohfDBVlbCEoikR7tc7y48cIuz9Og+MeI8vGKOwkz505jabhAKYM+4Ohq0kQdt0B+U9mKs9yl7RVChhV9frNENXMdbOvl4JT1NVhHYTJd4wd8EQisVgN4jFYTiXLmvz5IDxML7DTYyBCkNHWUi2e7PHsmZNopXsZ8MjPJdeyEO0qfSjyVMh1x7iunKyjXjLURq2rnSffcH/kzh6TUcm8O5wH8tFmUgFbN3XaurrhTYEWLIXZx/FjR9NXmCw0swQeRwWDO3HmgIeUDgg+AwvlljxYGtRPsTSYkUpcQyaCCgsOTayvyUdNoDDr1xOzWk5HW4jd8GFXjWeDLrxOvHrubHr91XMh7GlGYnW0tdRkJTSBCmGVIm03gfy0kIUcaTtazyVwl5mBQ7TaIt0dnTHhWEGTdhkN1g9/8k7aWDmevvL6qWgKc83tHgm2FFI0S7zT3EMPDe6K90+tlisO+lcOYb8SOd/k/mTewo9waZ3EN/1PLb6b39S0eijB2RMH2fy8pegCqvyuHItpGDZs6/VA3854UmEZuxmtYQiTgSNaO+ieukStcnrb03bRRn1Wj0YINbHSE5MIeANM6dTZM+n0ieMh4IRHGGGGrnH+RlqIT+GYfKQZhV5hCY06WvfasgLxfA4eQ3rbww1sbpwNwqVM+4mbnY4dP5xa2fj01lvvYF+OedfmPH6TT6fGnQhKlvNYyJiNoqN2+Tm3PSUFGOpTf/z2B2xOG0nf+ct30wYTMO3Me5hwfvPrX0GxsJuJSku0h24ONbWxj0TfpV4Kbk5E9Ezh5Fnhrlwl4jbutZHVpr3CRyIdeUmHAYb4Jx11NneZ6wayzLZNtPH0cSdzX8Y1WTMbY2+0DabraHfPf3g1LS3MpJdePoXmmY2ybEwOmi5+rZxvhKV0AytN66Gqngmem4zdd1G6aA1kAE8EwSHYL0KG4L2mUyu4e13lr5mO6sQncEAZ+/cPxKmTL597KZCtja4V8yAaKsmtlSwyNeO4dXUum2O538ODaY8eOcDECVeQxonwZJuWX57m+kTX+cUzs3P6PyNYVG8y8HnKi8xJAVDijWULcGr9v4igpunxEITtS8sse4DP3n8WHLXxjGso4/5934zHd6OW0X21NRQRKi8/O2Ylyue4EUy6I1gnfx5ctnQQtDPlUFxLIi/ePr/8amAgmCHtN8OApV3ZPXbL67h7D14G3NygDa/tKuORTQaTBfSsYSiZqZ4bNvGTORo78WU+ne1NnKbVAZPcBWXYOwnk0wDDVNiSKsoTqxxz7brCIkVbTpWyHZj9ZhrEk9Aq4uqGpWHGoVh6CxteUhRsnLvPHyxZeDyIwc0O8F+0Me+n9y7ewdyDJWOEo1072LCFhuHoETa1sPQYzN5KOSgx4FRgD6B9hlORcfAtCyC4SuRnBy55dLwurpl/mR+Y8wOSb/k9EvPw+HO8Nyr/xKAh/3KlgDiUAdtMN50FnslzJ+YDLUg0IRvUJihSh9mK+VAvvc3o7kvZXa2utnkBu7DwF5qnKFBekEu2zt7FcrMamBBk9K6ge0RMDLB13o/bMeurHab4kWc7+RGXCp3lwB7fhIW/GAQpNFiMhT8WxIAhPplfca8fcXe8t8VgRzqOk3fFwRX7UyeOxHGzjTxvxiQi8zRzt33RE5ll4DLf8Es64arSXQlLFspi7OVVafeeB+MgdN49CtOXHlzVMZVkGXkOgXUObS3GOY0mspT4yZX2qfKO70W9xYWHneixREGjCYGoA7ceegExee6vRT7VHHNysyGSwqIabzXFXqWPJkwa+nd0Rl8Vkk8LChjS1UPOzM5HuC5HW+o5SNMjQwjUwpqBj/bzvRBJ236yXOHUr7aadFcCmtHkdffiCnHfPg5J6mLupK048WPyYdtgFx8TMwQ23NjJj8zc1rA+Pm4N+bttFaGInyEhFZlHPwSfnXhv8IApXVoJmycmzmOKsNEL1KUUEyjNlFahN96Zv9SiSB6Bd5oH3LgzxEl9H6QHHH27wRipXaumC0exV9+N+zW9KpXeakrQ84QK6qU+MUkEh2orxWXgwfKgo0yDiIUI8ZlLO4mQzhQVjS4fybmWeQtb3JOH2mcPmwqIEbZ398mzW9I9vJY84ijtOU4v++DiDbyenE1NvWzS55/BX/PIfNs3+VkacuXNb8oDTnxsk9DuRtICCi7iLuPMX82fPIyIe02IaJCIydWj1Q8i8O7HO4flFV8sPJebI2YA4k3+ka5cPRBvsXJEt9BtWYvOhgkmC9KMm3j1zH5KUvncGcYyIBXQTsgqOxtU4N2QwMm1CjNfoxafu6i/N6Fll6G8s+xK4GWlQWriVr7HzZYUxacit0/7tDVxfqpWmOciUYwCfs7PZVa5A5bQ5uTP6jeEXbpLzNTsgGHTZsfMcAjSF1Pys6rB/5/zyaYMC9ij6l5rZIKlKPrTnt07Y8OPy0UySwc2eSgsDMqCumGQtql07rObx4Y5FWiGzTPSnn5TdWnUvwt7OwSXoD/ooEXfh0oYZKbmUJNOR5oYpBx0eCx7T+RN2SpjZGz2aTUw+nZUSywzM491j5B0XNAtWrB488g94B/uhzlu9dcUUdE4pWtuOaV3LrCz/sYDBnZtcLdxcEF7OrR/Ly6z9iDAcyqag5B8SeABocRLFvQBTAHOT56KRv+QYYtj8aaCiUcC9bSulm4elKNWzM1uMaAU9Y/MjW2iSGfaHD/f5Ty8N4r5qPWzXDXhvPElv5vYy2LDy7p9xpFQl8GM87N5uJtbX+RLaODWOXDCSYdukUKYUrPLs7VxKdpyyiE414nqg5iAwyz57mCsJ4E9eD7Yhd2u8PleTbhCcQyOFOzyc4BL3m4kC0EXXPq9AI+yapBQgC/MRpDveCtGcny83uAzV9g9jWsdwnJC14bax8HUA3qyfa7tr1aXtAEz9bJI8BZL1OLTf8CXcWd5xM0F5wfSKUJUv4sXn6UhNzpqetAaHhC0IZ2aWULLySmeCK8t0SaWYeGfFsgl4AJH4LZsH+daCozuxFeQz9p/IoqE/FPJLNqueBfLvmgN43CQYsKmacIOBL8KUVdSbr2xyvqMnqGjqOEVMM0QGhG4w8YUHGW8CIR/uU4Bkk/QTt5JL+3YVYhPZ27F3VQ/Wk9PedOtm6fbhTKF5HnCY75Z02n+ps3tI61Jc4GMLcA68SjLNU3lOcbMDJfl2y6uRrg6sYxWdZUDIZZX5DHECcSTdwTT2KI5+DZoQvrkbckP9AF9DeHxgwt30graVN2t9bCpYT9+kk+dwHUb7a3JjXwkzHjMTviAVnp0paAeMwcFtlw+KxyxBIIQaZ2oa/QVJrPCIn+V2vSaI86lg6oJlZnzNjqHeCOFE0tTyofZPNfTuQM+yyEv+MlbxMbYMwau3x5Or7+A5xmUGLIz6TcK8wJOLErcys+sh6tJbhC1r3qapN9iwhu80KeanmFdSe93tde2XfBHVwfI2/SdaIn3YoJlPy3b21xyEHbbVqCsUwFTRGAixSY6acZv9qowaXCCwTvdtkYoMzOLZxSeWuDNrjcYOhGo/FtGY3Hn1nQc9mB1gha51hLdM4J9SzaF72nbrBriPiNV3GX8lY1QIDVi568RvTZ9fAsSL+pRzaVaSJlvrquEVhtymflNbvwyfh7Ct8auTfn57y1Tp+qDLGXruijbLeUB/vPn+jzlLw0DEMUcJ139P3/xPfyVjsapNU0Mdl958/XQhMmEpOo4IlKBhhbOwimDfSxZZ03tjLa7OIgfHhmJU/x+61tfTy+d3Iedq+llp272SWi10AzSd2NchWu6NK1bLd3XUIq5ZyEjEOBT5qTB5GBQYUsMFMEUGSw9zW1iEke11ENafCY0Tr+aW9xIP/7ZhfR/ffu76Q4nZAFmbNT62pdfS8ePsmGCzU0OaLrRicFE6IVBbqsgxENo9oKZ5/4f/ovh7ApbmgHM4OZLzweePe9ymyeFGfTvqt2bgsNu3O7I7IOLg/8Y2IhjPa1vGWrvy3cRKfDixGA9TbNhbYlybEPd8uSDaALjkUSNbnUYyrnIYsbHJ/GT6iEkCODA7nGmHSz5RjsSzUFXzwjFSJPbQoAcTKm6niFmcFO0is12C8LYsaOH0jd//dfCZRViJQMy2jrw5SYVbXbFa/B6CnfZ2kkOhREHPobkKY4V2MKHawbzsV8yiP/SjrWVgvnDz2fvjp0M4GxawwygGV+xun06ffxoOKzX9pSmi7JssRDEAwZ30Tsz82j66mEXMmptP7PAbrWzIByFEzsTsojI/SZkC34UUBqobx828qtMJFymfgRsi2hpL12+wolXZ0hDPOsACvlfCeZmsP7C6AEi12/cxEyFQx8UROivXdCL/prJOjLIo1BOWaY3niFwSULH0kVMXZxkqZFrQWDtwh1X2NwHAKashSSnFQcK3Avgcx67TWHWfjhO1yJ+FroQTokXoQQgP5kJdIH9L2Yvi9hYulrjBq4zp0+kb3ztK8DjaYUedwy81JmWD4Fuu14zwJkEBmfJWUs4MBnHf9uqtihj5GfbiADvMrdcJ6/QCRfr3oqPaE1ZnJStPpwKf+Lv437wqOYwCIFFDkXaSFpBjWNyFh5t9cQx0hzdyymC/+E//Una2K6Ltjr8BTelf/W7vxOTHVd6tqtJZoWj3PxoLxQW7fTZPkifc2LsJq7G0IAuYqt95eq18KahudA0p6jZvzV5sH/pCUePFgf374tNoLqJ01woMrXOElUBtgKvGl5fgVnQgt0t/bAT/J576UT6+OI6m1UXOXHwPp4OJtM+3Pl5IEWgTrwDl21u83pd4oRaNbzyN4VMTdA8DCT4lhH8K0JJE9HXAMBNnZ7OtsKBLbAY2oI2ARHu1/j93/u9cPHnBKAyKTCfMj8AMOdcM+tEK/BufGIsDjMRJt1idrZzmA30FftSBNpQJiwe88un/31qgTcjVYIGQivIxZnEhx9/nAY6mtIxTgdx0DEY53GBMH95Br+1iKm9DxZUIj2g4GdLhMrz429rocrf+LUhylAkKNP5qdphc6Tym0+19/nrF/d75dr1dP7iLYi6bBtJWKbzWBDoXyZgjxX//PFJDKhV89z28x9dhKmieeM4xn42KGgDqKGQbnxCY0fH8ghpQyZL2hovCdvQJM3NcRzmpethf9XChpmdO9rSuRdOpX1sVoNVk0KxRubNchI2o2otXWKqR8BYYaB0wFPIdqAyXqbtTCpBLnZ0A4OU5hZqQ1yyrUM7pyA1OanbmxwlQ+fD5yM0Uyl6f/svv5s+vj6S7nPm/MO1Tex092JLeDQdPlxsllC6IGTNN/QubkjsAK8w7kAi3hyQkYgiri6txscx+8Cx+sTEFML6TNaqgYs1tDNZ60Z0eJsnqCmTaDrg6UEK2Pv37Y12iX5fVDiqHT+WxY0jZWBQcLKop/AtPwyBRryDvw5sVgf621OLs3e+xSRGKE0eeZhfDuMTEyy5T8eAq4cGBXInKAqqrq5pU6ktZUDgbSSTXnLe/Xs4XQ5fmsdOng7htYvd/3oq0IzBOsqzl7AbnZ6ZDzvUWzjC92CfWNIFr21oZbsQ0A/gg3hgYCAGZAdQl6Et8/GQ30lHfrddnIir80IAw//qJhsyPcL02JFDLCnvxyvDEbLI5ijW6+HDZXyRjtJWE/gpHUe7t8aER3jyqYOuMBw5fDgdOXI4BlHraZsbctnyQeWzXD5DOYM0cWKbuwKTsfL45eShHQF1dXohYNJzSQiztks5IEfO1R/zzmObZgDL6datO8D4EOGCE/wwZ7B9xE0cTY0AF5ggjS3jfdwFTQJH0CkCPZMtbXfVbLqUr5bYpV/bJ5cXybb+AJ/eAybxt60dsXRgzTo5AKIdG+WgP/ASy/HUJ4PgW/5F3cBJ4GgTe/LT4PNYCM878F/d19uOwO7R47r0Q3SAN62x+VEfyg8eDHIE72Sc6LWOgLb90QoCfmuYURw9eiQOd4kVoKKPlkALW4ViKv2kwEfADq541Ga7DtOlJjSxjmNqvp3w6anDUNQk7vObuI366UvWGGa0xorQ3+C+8IPLg2lpQ76V8BvbG27y6NYEeau2uU4ymriqaZWOLAFIbSP+rzMJ8Nvt21cQ4CZRKoyGhxvt6T2ePcwcSCWe6xFOpzCPSelmuvjJJXjGAJO6vekotJ77NZ8ItikvuEF8l9aE2TLFQ0xeH5G2P129pmBNGWscEsM4MccKXisHCUWIPACwQIJdYG4O5QDCpWK/kwe12c2cuid7JOugyzJxtAXvpAd5rhPBVYTdtbVl3uSTaXchnPbvlu9h1rKByQxt8zC0JaSDhkIWzBkKPu+4UDn/QllDnm5Wsy+E790eDxvpoI8AUBE3aDHqUmb0bK5PLfBG5QJrAiRB8AsCrrN7+grH8e3qY6BuYEeolEVtrEPQdUQXG97wE1fva4OEVoZPjVB+5PpZedREiVub8lPC34PcT41vFrVpiuKFuDZ+1LcsrjZ++a6KjPJN5CDhlWkjv0hb4CMYk9FrS6qCM447n1ujs+nWyCSEqraLc7NRhmStFxlFmaatdgxzex6+WAyU7VmhG5ogmpViCzEoBtgZNqhNcDrYKPaD2qz29KAhwGm8p2GF03pi24Sx1KjIEEymXCJz2Z0d2jBZBTgHTTVCO3o7MWdo5bQnBgy1LuUslLKbGExDayQcMHSXM/0TOgc/r8EIuTNUnoA/tLowaNO3oP20dy1h97fIoG/KTKH+Vu9yXkWO1UhmHWniJkokDeVrtjAJTd8enE53B3E9xnKemoEdLP/vYdd6F1ofcZBXmxBwWWpX2Mv2dmI2Y9fMofgARW2HdpYrS/Ph79JT6MYZPMI5ewGro4EM2p4YwhNIV3M4Mc4RnQz4i7hpamCUdPCPUxQR9l0+rHIYKyejzzUSA3kCQT48qG1xg5/LozhZCFtWvS00yE8pq0iWAQbHkSjyQBhFmFrCDtH8Me1EA+bROw428Ajyc3DL6TMfidx4HxDxo/BUBw67MRkgMjRAPJY2GxgQ1eA5aI+Oj7Osj4suBuvrOP43V0dJsalbMQ+6qMOHbxv+erURVTttacTiN5fvvQJKNTiBIg9gyNprteeYxIA7d2vvwVn9LjS+2pvGJjXK0xOFG/uGEfJdrRjE44jmOusIJbZxfb1ut9B8Aou+g5046LZPaAy59Kg5T1KA9/4KhF+BGpyHb9X8KeoiHtXQ2V2iy5if383WvyJulBI/vnNpe1vgTS2rpXu6n0JqwEE8cWTeTwRg8bVCiTbUuo6zHaSTdtqqFRtHtXOWnYeAaHGyCaqO7ARDcwZPGHViLC26AuPhMuJXnOY2JE2AkOHwNwsq5ik+NuOELI/OVnNrH9PdHx0hWtad+CuYFehhZHpqMlYT7w+NhFvAVdrFTYjhZoqJSHNbZ6wctG0gaCn4iwlkhFxyYIXSgZwXsawfNan+hJ2pJleExrBvdwLrsjhay7wsxRe/C3nOx7gGy4h33KkhHp5YxJRhAl4yGTyjE6Xcrr6ucL+n2YHaS3lD4APQ9KufKZl30SflBdIeXhNYQR18MIbAOwVdjlGQuHPpn/by0B0y2caESjOStfVF+NM2vBugcSd/J7j9mF81UZ/Y6BnAkj4mPZTFpEFlgtDbp21DNcp6+6hncii9apM7zz4PeYEyvVQg/cQ4bwV85p8rDvrhFX7L1RRDs68iQtS1xFSkIG8zsqeG/TY4joksr8WlXnk8PU33aR6ZrWuxTVcDLVs+RVr5caymkcbnTFtghziuDjhh0RTNsacVutJDQ3gNsb4BN3kV9bfUZxWeWuCtQBcQSciwOhxSfw+fdgsYVndw9OlrB/vwHQqhA7dN6CEvGQEyPh7o4H70e1TNGhuiwvm2WmljZKSQqPiYSbqMma9+K79v/ZLzipKqHx57rH74xe5yNplQS5hLKJ4owroXnUhY8/dqDr7xKQ7FgdGwbZM/30jaEpuw5fglbi35L374bvruBzfT5Vt3w4F8RoPx+IvoSETiu+jKOQfzeh6+SAzYXCXlBrHzHO0GF8CVOc2KDSOc68bd0XT11kgccekSukeonjh+nAEwbxjKtEKaaDjYMYzQ223ucIbheIrWLEfO3r59O+zK9uFW6eWzx1MPfVCn6ZUAQNIQelyOUMXOD8FjG8xwfW0VhuQyuyH/VuAuEssMY0kT+rVXN+Ocv4NTzdzcMo1GbJalWPMGNBhw7t/SuiFTetFn41V+L22XPcc8s46B5fvplfRnP7jEsa+3EUgnw3XWITSLh47gmB7zAoVyaxU4YMAIm06fyU+haoPy7T6xlKt2iu4jk7595w4alytMDCbDkb72rk4QFAZ1U9WBTZ9L6g6Ca7hbm2OA0W7w4dJmun3vfro3+iBdun4rfevLX8eWrRdNeQ+DkuWjSQlgdOkUNwV01InH3G7a364gKIyEWUIXwkwfrpDs2REgDFNKHzk4kOQ7381y5Ojc/Cp5PYqJTCsCKNaTxKddqIe4K/dRmCo0uzl5bnMGmrDbJlP/iStFewf4eep55/699M5750PYdO6jtlCI9GUsCTnx0qXTg/H3Mb95mA4dHEhH0FyhBA+go97in39ZQ1ZSUEkD0qr5IBhhQ97T0RjeGo4cOoQQ3o2QoGZtLc2xNDyEYHH+o8tMehZYsVhlMobds4KO9ttowtYbEAo5e/tjTmy7j7/pfft3pq+/+SWO30WLhfCXx2AFEWkkrwK4VCwfFb0uyVp7BUvpT031dgTD7NifYhylEfoMVs800RjcWM/8HC/50V/tJr5KORCEvtzGYL5DzSiHddSx/B1mC5STsUBabySK8k00MxpY/o2FFn+KdAicrZyUhulRI3S5tUAnPQhAUTKTPCqwSruMoP1fZUImrasVbcJtYD0DyaNHOPYGIdosZ75hjXlV9M24JzdXa/rQ6obgYjtK15grPKLfiPPJqQl4FCeh3biNBpG68t7Jgbhyo9baynZohr0HADAy8S7mFYtpNwdTnD16nHfWL5vJbN8u/J4CaMlUzcaqCYpdgR6W+PUN3I7Ji31yeyGwhfkB8WPp33SRDz9kaKtmOoQGaIup2dX0Z999J12/x8R2ah7vAOvpa699iaOpd2Ea1UVc7EpNyl2sf0GcQbW8i4k/BKTcsojGc4TT737wg5+khVX4ASh0ctMOf+3rasIOuCftoq5NtJvHSq9yZPLw2EgaG1/GvdpkaGWltPbOVrS8h8OVYjGtBs5c36Aq+LkVEoaYcANHB/6Pm/HBG/sIgG8cV4zj03OstOwMQVuB2X4VcMMb7CZTM3NpnrbQxlgf1ratfqH1h529OJAgQr5Kjba7dWbBiLFAGtHTB6dWMh7t270vHTt0iHECH83g2RXFDY6q3h4eNmgJaEtzKO2tbRk9xwSFk42r/7PwF23LN1HGdQHPrr52VgMKbh+wBzDUOptj0vnyi2fw+9QCbyA4BhmINpiJVYNJrG3HXxwnhDDr+4Pf+lL6+iun0vG9uzkaEe5pLyTICiWpQDDPOaU3dFwjVLZfxkP8lHHytXyqfq/e+e3v+16N+SzvXH6olFspPtem0qvLAmUk4EByilSZPuJBFPmYRQDueIG1WrxzkPB7rHqYGvzPY6fz4Y176Qo2n//x//yzNL/mzDFvItLeyB211ZAZfcEdqq+f332hGKiQg6UUZOJF36cOQiqEVmAuP377vfT+xaGYjbs5RPuvnTt3wuRgw1vaMYOrE3oHLxnMJpoAhZWhkQcwIzaaNG8PrwxvvvZCLFmHuw7oJYZuirV8h4YWBlSPCF1GullcWUAYQyPhskAM8SWl5OFdIcaBNagaelfL0shg7jnzaj6n0cZNz+CCCYYZtpTGtKBPC/FeQCJXonFvdGBUGzU1tcKg+iB97/vfQ8DjHHeEGJnum2++ieab5V15D/Ark3jv1Y6hBiQEcmGA0atNEOgVBuYxlsU/vHAxjXI2/SJeDlw27mYz0N49PZyuhbslvFjs2tEd+Mr2yfAp8lhCqziFoPn+u5fT2x+eR7AHRzDtRbTEqw9bGSzhW07So+9aEytX/gkYuKL9siss7STxo8vSnppp7df24R0hkBojlm0aiKhizawI1lHTC22NDe6eb0PzE9r2qKdpq+l99akhPmQoTas989CDB+nGzTu4CLuPVlW/nWgom7elb3zpHO6HGMQRnGz78x9eSCOsQMwghF66yJHXCHQDO/vSNoQRNezBBiuFAksFD5WXxQ0aNaSMXWiMvv61ryLQtNMfbKoNbC2n0ieXrqabt+4hPKFpZFzoYNnz2KkjCNh4CmD1UC8C12/eSqOsKN65hy/myQlgXuO44KuYu5wM4cCiw2cvJYqXHHJ7ZHzzJl6DC3Cixt5l3+11+VCPGYRuEvLn9yL5Yxdf2y5ucLNdXEb26Nom3Fp1d3NwBwldkTEo1ITg6z0JQy7wO4iNYgDKvjw3j6ACzcse+sB9F6ZNwllAHnkVgFfu1e65qjfK6p6ns7VgUtHX14f2Owv4FmB6BRFzqqAj3uUf6U48GNf+m5VTatHROtMHLn58Kd29NxRH4KqB3saY3o4N6aGTnESGPWkvfpznWBm4cfMmQiYrTdPYQV+6liYxx2jFj+vA3r7w6FKHlpe1IepNWZ8SynqKE/uf1zaOrlUDvoTN7PDIcKxEscbxKanzq5wzdqO4h/vw4u30F5hFrW7CqxCcD3lML6YzTSjoHE83aK+MXdPSFib2z4KBdQUzGg+A+OTi5Ti5cpqVB7W5Payavfn6K+k3vv4mE5N6/Gh7KBAJyUB+6JHvjr530Sr/2V9yZPHl25iBzKYLmKxpM66pWu7rTpTtt5lOKm1r+UWrx6bZ0NJ6YIx23mhv6Ru5nkQjlPfmKU2q4dWkwS+a/mg/HCvuZUS+lE2Q5RdLs+2JjwxxiKO89+DXXH/I0kUXChg3mWo+Z0yzYZEl+oYThhW0/5No/Sfpi/LsJQ4w0cuDLufUyju2zIBHzd/cd9ADvVRrSGZFcBJarU359umuTy3w2ltlZ1FrsWa9AiaXiBrSPeztvvfRrTTL2PkGu0bP7N8Vswt3nJbIEmEl7svuWD4/XfWqqTNM+flZ510thbtPzfzxl0Lju8DcluSV9ESR51QyFLdFNq4eFEiGgB6lcQbtn3ES10VMSK7cHUkTC0rERKKzbXdJhWlaJa9oIzIKhGRsF9luheP50zPHQOA58J4xXlKBy+82rnapw2NzDPS4Q2KZTN+qexGCZAgKuzI4B78cKjcxgNrA2kQ5gZIpj+N/V6bt7tf+He1pYFc3A4VEJROx5KJ03jUw229l2bWF2fbSQzQB2ACGnTAMUwZs2PrLwB+8iLcyZ2hKQagFuzDteRVCwik56cI/ZxXUmrzituZHWlQn48TZbHmmjPMfX0vX7k4hQM8GEO2sGGkz2sayWjDdqIqDhPHtT8BjPQWLnEKYAEaZt8L8LALmLQZrN3ssuhyIP8sTxw6mI4f604GBnnTy6N7Q1vYyaKlFUXpV9yBecQ4VWsbFmd3pZ+cxFXGZESFG350uE6rZ0iN87tUKCoGkmjpShYw4vuX2WmRznDh0aVOftJWQpaDKo7URz5o/oMCj32tnrb0tB38gJIbLKaME9qi3/2y7wL1IMuSGkAWYncQUWj5gekibe0jBnXseFaot82wIBbux/T60ryd95bXjrNKhGUKL75J9MyPcNXjNe+c/oa2XWdaejTTamqvQzwV4JYgHYCmhKL8FGLxU+JO2O5ncSW/ahbph0CXy8anFOEBB7eSBgV40S7vSiSMDbKLqi6N6PRmur7sFc5SFNMfyutrmZQbYkdExdtufiuKz/S2lgTtxUIUjgAu0iK8c8jUmDKFtQ9snHRRpI3ERdWs+UcUY0BVA7AObmwpSmPrQLwIGhKDoT2bnuBkN4X1RMu1gk5mvOPHEQjdDuYTuARyakAjn1nKLxAX0VkZt4zSav2zOxhYrVl90O5dpL8NpdSw3+kglbQkHH/wPDCGIEVkb4gX6iq7Ohjh4wD0Gs+wTcGVhoL83HT00gN11PxNFbIWxB59jhWl3bxNmWYvpuz/8mJWR1TSNrekgJik7dsPPkFGDl6F5tayo+ONw1DwLr5MyJ9GaHKhV1KxA0w/bJmjd+OZlZG78JytQCBti8nSL8VF3Zg3YWzQjoB/AV3dzM/bVCJBx2mAIWKb1T4E3j48hfoIsV3hu3cFWeTTzo6am7enIgT3pQH9n+urLh9Op/V3hUlCvIwbTRduSnVcMy9LZkwfTfUxyPHZ6Di3nIpNteW2D4zUrQ/IZy7ddDNHewQty1ay/vNaTLbXt9mATN9iWUAd11ODA925w0wRI2nLzYrmyY46Bqigpl1bSQ645kEB77llwUq1gLp4DMmBSex/0Qel19HEn4W48lVePT09hbrEQexSso+Yk8lEFbzfCedDMIybJbSha7Ms5KDWDh0plZCQZD0WEp748vcALCLlTOGjbxP5BaMwowRXGzNvSW5xvf/nmULry4nD673/3Wyx9taQuCF43w27CKbuw9czotNEJW1ojfyUCISPBN2X4+9BSG6+M/0VcLacsqxaeyn1QvyUX8BcfKt8rN5UoxQ0fyNjPagGCEfGwzLuJ1e3pg7sT6X/4o++kySVPU2EQrOcUFZiVg7zao6xNgIQLfJqPf4YS3vz0/PcLxUAgG8yXyI/C6C8+wzA8Geny9XsM8gidSDXaah05fJil8h3BrGI1xU71WPC9AoM2UMtoiBXmFJgVZo4eGEgnDw+kzhb6GuVsEs/BIre8BTvrZ9cuy/c6WZ/mJB/GFfJzQKoynJJ2ouiA1yyyBiFssXBZ1N6RNVRq49xUZB5Z+WKCnydkapRMrZOc4Sfvfpyu38HkgMFNZr1z1870yssvhx2ZsKs1C00u2avNMIesIYGrUA8WP8mLBWIqpceFCZb/zn90AZt2lusQGNP6bHrz1aPp19HOHMX0SgvDMC8p+JjDFDNH/hDyYPIN9W2cvrQ3NSoMoElT0O3pwfk7u8g953NzU0FHyPkX1SmHDrIwF3DqNzVjang98UxAWxmEd6MhjQrYTjYCZVhuFkozl9Sd0dw8xzcDuxOcRg6N6KX80CICqzhQkBKHUXzxmy++KdqCgSsmFcUbhaQxTDvc7OpBB2rzujsb0ysvHku/+Wt4wTjI5mNEfnEBRwn/uPvg6ZcuchQwtKpN3hACajfan7rQJgK/ZQUstBNPEWpJQRgBVD6l4K6WWrgX0Qq5Oe3ajTuYBsxQp/XwcPD6uaPpn/3aGxz1y8lnSDKaqyhLnz11AAHvEbvXL6W5W/cR9LbHLvBVaMZDNYLeydcBX7SKhUooHoTPsidbkUYAAEAASURBVIXXQwBcnje42UzPACFY+Zm/x6qQn01MAdobzyGAxKYlYLNuCiemUliI9NRVITaS8KUS+J41fExqMF8Spwo1wu1mtZ3s8jfUlu+TeZbBe/1OT3AKoa67hFttpgJv1C9S229ziyiGBExlBsU12qUoSG8w8hc3R13ABOj2vUHGmYWgh56OlvTV18+k3/5n30w9XZzyR5p6lrc1SFlcPsNehPX047cupHn40iICvF5jTpw8Ak4oiILtD8oMGbbHgDBKgdcYyyBuNZqxokR9GlkVsXeVeM2prU2ukeDbB3FJjPxxP7374WWEf068Q4DbCT6PHT+GIN/EyoZtrUBofysxas4BIIIdfFXtLkqES1euIsStsrKzAr02pX9K33jh+EA6wYRZjmVqgxMczQUCBoDYpE06WurS2dNH0/sXrnDAihvu3LSqmRSmJ0yaI3YhI0TZkVP+KevouK57ObW0tu0iY4auDe33PBalkybuoWVAmsakQTtfX0rPTuAyZAWcBV1GSeTD/8ApP/EqJktFzpkv8Z52odWifRo0g4NWB1lddi/E7bv3GMt0h2dOti1/1D/aklfRd3leQ9PbAk72hMBrXP9qQkyUa56fwe1TC7yb2plQ+W3s3tTmNjYiQDibj/IZydvqqUR9MzYkKb314V0G9P+UjnA2+WsnD6Vff/1s2suGnN7udtBZCL42uH/FxTpWu3SJkNxZC3KqQVP5PaeKTCL9E6g0wjMPwpnNOmqyDgKmMlYo/rgIZlTxcXi3RimhLuiOJOQOYY1D4FcGh9P3fvZBujU8CwMaD0FlcztTCDRsdcy65ROPGMTsKOYTQkBxz4sCEssvgPHl8/AFYyDjuor18k7bpkexIeuvv/sjhLJFzAva0uFDh8KUoQnGHkuH9rNorwJMmtYc7C9uQtAu6vb9B9i5ojngFK4mGM4rL5xJL585GUdRwpFpeLq8+ZA2+BEZOO1sQehtQThQEFTzuYJbtEdoHGIwIM6nMmCZOhk5IOjdoRmmHX4rgUcBap7JV1ssDRfwfuolalB8KQYcYJNRv/PBJY53vZcm5pzE1aUXz72Md4T9LINxsIQMtJBe8KUQlbGrCad2ZSEJ8dplM9m7Asj3f/DjNMZSqzupGcLZmX0i/fpXf4fTvE7CgzrD/lSNkDa4bjYJJAGZ+cpxFFXXEVKHhgaZkLABhDPkW1vdXczgw3GkGxvaYCvAilPgK2oVbWaHJDj59G92lpPOEBoMfte27vCh/XzjhQIzo1eZvsgw2is22zF4aVOr1sb6KvADYvTxsENFONExVAUfZU5mSHsFFdF29dpsI3wtsPR98+at9M677wHTEvjFB+7eHenf/OG/Tnt3dqR+bYuFnwwVHh00dvTgqQKN61dxCfd3P/kwzc7Mp+HhcepwMDVRl4AZqLTJ3IYWL2ApCY6vBmGWpzkYCpcDuNrZOwhUH338MasUuOTCrGYnmsL/7r/97fTyyYG0j93o2pAGLGRgUk8k7Wzbln7vd76Vbv2H/5xmECIehqYXN2dNuBujb6whoHhkttMZC870nDGcNa18o45q2ErBJ4DkncJLBNJVqsD91pBf6ApwHE3XKpqsBoQ6tbvdXT0IGZqXYe+pHb6NHAInZRVZZ4jUpEpD+FlFkFGLL60245N478BuNKm7iRYUXpImIORyS3DcnKQ7NA9lUJh0o1kv9qT2A7tLNqtwrBUXmRZyPfITL3OQQRi41NN4w9ia37h2C3drd9M8Jjx6bHjx5PH0u7/5a+kobuQ62ylLaVf4qJtL+gp4bpL62pfPpb/DnaCavglWs6yTpT3UQFSzKZNVixMV1RD0ykQTQU38SR+2TyNjXB+HtKhBp8gCDd6Uia0bSiFo+8q9MQ7wuZOu4tPcKfDZw4dZOdsTNqmrLL+HranmSAIR/+3t/gkX3JGy79y5ly5fRthdmAWGVWSYrvSHf/C7nOx4BN/ITKoszM2yZBAQqF0ghIKBjwqqnkLmyoWa6aA/8t4GXWxn3BYBG7wPWjMzkosj/3lnJeW1mqY4GXMCkukyt2EWdou4phApxF8HZ5NMGqWneEderhYqxOo2zXwjFOVZsMX7VpHWMqNGlp9jFvHhY+BlYWmRCfhE+ulb78LT5mLVSXMTbfw7ObFu964ePAxhygIduqjvSoWeUfRyMYV3nDdfezHcENKKW/O3lC0F1hb++e9toacKDgwhwTOnAzeBoOjLYoxnO7c7aTc3mInYEbHncQfpOLZft1k6O8Rmjz0s1bx06ljqYxmxnWUCaDlmK+abBbYqiNE+CtTxqiAu7l10fDJU32XCyQ35ZLzP9yYTUK5zzoEKF4bm1RxFCq8LfAREPBvcIJJvYQBQWeFsKpo+f8m/zi6nWSIaHJ/G88JYGsEZ+mU2DFxGA6JzcYm5DmElZqnwUoktdlUWXCQI1wG0QEd0toCgACTun//8UjCwBeUODpTKwPQAFzt37o/wN4z/R3bPozk5eJBjRJnJe9DEGpoeO5hth2gQzF94c/9QI8SSNAOKNpjzMGV3SA/gmeEAG9Z2ehKPtqX0m9xNzGFr8Mx6PQ2orXVVIGgb+nEQUBtF4qDVgoS4z1TkptP1GMQdXLHrIqZ2a8oIunPq69BdVhbIcolR4cgrwyJcfjF/RUq0awina9jTvf3OlbTAcZZuhNHx/L59ugLThRr5M3iEFoWUARN5xJVfYZcXCWG4y4HpX75+MzTfc0sIpCypvfnmizhtP5S+/MoZlsTbQ9DI8JEQIbA2z5xvzn8VQVc/nq5cWYhanno2nInasM+14o6V4rEYNK1TJXArf1QDsgB+HLA10+jBPrOtlT68JWoeBKKNzZM+rMCk3ewC9dBXcjOTIW2a9Zcr3mIFSBDAgd3fvm/gNgfLLwoJF1kIHw+gmQfDw9iLzsZAuG93b/onX381nTiwI3W3s6PbxAEXw0WRkeO5fmX39u9kIMNn6ZK2zJwapzBD2aFBBAAHT/30PgohtQTCbIQiQyI1xvIobxWsBjkdcAITCYWzgwN96TU0uy+f3p/2c4xsLP1aMeHgL8sVeLkA/wf27yHNOgM5Wn9gckKh7+R6Jl1iMmu0oyLBb0toon2A2QzdCe+kwdPvXOa2XdtY+ShxZj4WXW2o/BRvyGIO7Z/L/oqUep/Qf6qeFSrCBXHUUOZUQShZWBJRlgIcbvx0QqQ2X5dsesTowEzAPm3pCjfCk/Ooli8MjhVuaPQocjXcbfARTxCrL4QxJxBSpprkoBETkVcOZZ75nf1MXCiY3sTN2j2W4hcWF8Le/QwKq29+9aV06nA/NIKrwwoYQBiTankJwjL1On54T/rxO+chSlzBMSl0Uq3AFkoY6ZP2DGGTYgMNBTQBl/kKa5AxawzQv5NXeZJCrxPDauA+hA8uVEkyWWRy+N4Hl+mzs7QtG0Px7KKHgX5Orcww5NUf8aENvpwq2pryFFKduC9jsvNg6AEeFoaZvK0yGezFNGEvE+UTqRszn6boIMJpvwuo4yeEuOC72K6i4Z6eW8F+9yYTIvoZPKOOHZ6aJ9Qh8OqNJ+iQiXh2KVjkE+2c26fU/iswa0ZkDM26/MuhbEe+cOvEwPabYlVLU46YKKCYkCaVy/RyIvqCDipJgcP2MEMblRvzirKDqgvRlLw1ybh9+zb1mUr3cOu4CU9uxjRr755uTr3cm/bhQacfXuJmXIqFt3BWHH3hERv5pO3F+YN4x9gZR8I7HlVGJYo1ZBovHvKrp/59aoE3XP+AmNiJbYuDnDjFg04iQW+guVIrEAyNz9toHI9cvMxM8cad+2EXsge3IL//qDmdPMDRqW31HKOH1oRlSCaIMVhaS3dYx45AypIp5A4rkgoiM+9ooGgq3nItn41UhHxb86L88DmujwvjOQvz5q8EI3owz8UrX1c+GdWOJf7AlQxCodfdvfoyhOcysKY0NoXW48F4usAM+x02DAwx4M4h9Hq+tzt/6xqxrZFizFnqxDYmhAxOaAlRBfznmb0F8h2YSoYpA30eflkYyLiutL+tIVPihULUHVxu6WZmO9xBLeYuNqo54IUAV7STzeutzDiaOx4VeFfR8M6kUTwHLC/NobHsSC+cZRKJJqZONx+uvsDOs6xQQBDgmJm2XfUMqNrPGk+hxUEFDYCBRCWtF6wwXkdy7mSqOaiJcZC07+MaiRn/Jnax1WC5tYMqj5URLgjYKoWtrbabH128x6DNcj8Cxx58P7pcLrNWeMgub4SmqEulEDSQ4DQOlAB37kzWddLHF68wcKHNIX47G0u+/qUX0ovHd3FEKsvVdp4iG/FjqM01L1UKdx3wsAMf2HRh5ZJlPStYDUpb8CsFSDexlDar4rXMqMRbDELgJuwzmaDIojwuugtXWtrx5mDsErvFq+LiYK/CQLMRbTRbW7ezPJxt7BxsDTltLjz377I2ZZ75quBluIOP3WEEXgc/tXKnju5H4H0z9SHsulEsgARHZS6RiB8PatCbRfj/RQBx0qUGWnKwnqYrBzHvSp6T02cY1DZZJ7X124BnEOF7FH+uqwg2rQyQp4/tT7/9T76K/2iF3aLkohoVWiYt2TApcuC3fEpFwPM0J71xtG5ibgLw5XDwGaiVFYcQFAcGSGMksG6tmCRYpHUwjycQwavgu+BjBsXEJEvI2xnU1W5qh6+5htrJiBO5KFZl3EfSwJN3jmX5dDt9IDuhET9OhLLrJvtILWVkqCJh8SONaxqlllfbUMddJ83hqs92iRxyG8XmyXjje1s3f7XeCkFWVth11fcA29vJGU1dsKVG+3+Opfk3zp1J3dBL1IXGUBtqFrZ5JCdH5h1pN8d+N2iCIj/hg/acmo2EZwj6f+C1JC5BKEPZGX0mb6MEzZKH0dwHJM16L+3Hyg734siXkBUbS9lk+tFV7EsXU0dXNytmfWgZsbXFpiK7MSzaIZbPM+/LLEmoMN9B4B1FyTSn9hJPE5r1nDy2L33p9dNMlLGHjfKqP8GPgDWoXaDId5lBfHphLd28y8luwDLNKpM+ibvp9y0KvPgXFjfhQQO6CCVi1MqalYGcyU5e6yYwbcR9oSmaEzJj5thFGi5ED0FaU6XFJWmXyTUrh7apwr7tLJ82CHGZQzwV6f1qsxrNSYn3oa0GbYODQ+na9RthPqSw28b4sROfuqfAzz//jW9g9uTJoCo8MiyWYDFi3HvnJuYXVF0WZJxKyLDl2JWXT3VTctjPnck2j7EMZFgBmC8S/B52OKtdGqWj3GS377Y6iIvG34ZtD01GJZn9ccKJ89y5FexQRubT//i/f5vdjs3BZM8cO5COc4LKQdxVHDt8OLRdYij7xKP64gFsxTIbGMtsIA9LNqLINISgIOMtAYy3/ESEMlb58umvghWKH4sg+4CzgMfStjA5nsIVNOC5ZKT7nJg00MGGR6bSzeHJdP3BZLo6NJZuYRczif3UssuY/D1ipvpoGx1FVTj5xGBBHhu4P9neIDNYheiOISDswm7pAkKzgxZUJ6UZBCz36vz8/PeXigFpQVqx7WTKS2gNr2oPefUWG8jYHMCKRzdLPzInT42qaGIiEanhPsHyY0CwLVm2mtIf5ChC7xTfVxCW96QvvfECTJXJkAIvKTIzttziXgigTwXhdvxRdne3hsC2tOzOWjRMrhTAHAEz0vj7eDBnhU97nYOPLm88clRhbJr+//DhAIO1qw8BfDV58WhKhr9IL0kq/A+xw/zm/Zl0H3Od9Tpc6SAIHj50KJam7VcGq27K2lB8oj9QI5k6g8MUO+zdxOchDXpj2M2xyv/8N76WXsU2ta8dHiLQgUdyKjMgX/Oueczg8wJFTRrCx7U7r6kqJzQ1MnjJY5jcO4jA3zAWoIl8Zw7CmOE0R4VitaDunHZ5029dTE7U8LY0FSXGpcrHbO9gKMRW46TvXu00HXhULjgJ0I9tjkekJ0KRb817zTD0ADA6NoabpNG4xzAxfe1Lb6Y3XzqdethMolI2YKdhZB1gK3IoaybtuOFHbZG8XaFObb9Cgna81iAoNRqtBp+Riz9gi3poEqOQqT3jvXv38cyB3S50f/bFU+kV3Ont34UPaiGIRqd0qpNZmdpKSgDXeipxuTevKPo1w6qW1rEnUGjCWlR4n5smpyOefc02ikkc3xR4tS2ODCJybQbWoQjF6xE8fwyzQUpFhH3YE9ZCAYQSwg1AWZgpE/1/7L3Zk57Jdaf3AlUAasdehaWxNXol2U22uGlGGnLEkSY4i+2LmfCNw+Eb/0e+dzh842XCCofHYY+2mZFoUeKIlNjcese+VwGFvQpAoeDn+Z03v/qqADSbBMnpDiGB+t4t8+TJkyczT548ebKuA4jcSEOXrNX+SxO193tYule7axWvr2MSiH8AVEGcMLsCoLbdFQfNVmaYPJuvsNNmjA/Nqn4Kh3W/9gnQQj7V48R7730Az2FeQr8ywoEh//Crb3RfffPVbpqNX8k6v3VX9VI4ZZ7N7RSrIFFWca9Ar/ZcBUwpgsGCCcr6iuHRwGv5xzI7lou/Ns0Kqvrj3ckmT91fGSXDfJ/Gi9S4eh1FERvVzl9Y6O48YOJCXWhyM80mTye50TBnHCwBPfmRj3SJHEEf4saqDxDqdF2ogK3f76999a3urTePMbGm85Ynw5c9Hlxc2bFPvUtncZv6+P4Pf9L9GM8MZ/DScBbFlW4jZ1hVevml45kwRhllvuDkBIVqGwqpseBElZBX38aggeO+Pp6nmeiRbb45zkcw5Y1gxOMKp67efeCGYjxI4PJPc4bqq6wPaNc6VWEUpMFdk6FSD+AnB7nR1tM0/+b7mkAx+UfZMoq7u3/5B9/ujrOp9POvHIrmewJzohE8pkifaP2LREwSVKTw0Ctt8j05Dmefwg6/aDGe6frMAm9Odgq1bY1UGCSeQuj6xpsvdndosH/JgPDe2YXuNj7woFc6wocwvMsl1DEB7ZSbN/BveYeZy5XFzd0iAsC75651e9B6zP3kYncId2b7dJyP+48pBpfdvNcNyiTLeQrQgQJw76riwYSbGsx9V0xjXuvqNil/dT/mbfm9Bo8mVPblTOYZCCvCAq5JtMO7t7yCb7p73anLnJ6E7dVF3P1c4e8qS2OXMZS/joub7HoPwSyDHb0dFgzIJMOG667H8QmWlZGBv/Lmb3VfeuUYzDmFluwnDNIOFg4AxURt92lRhtfPw2+cAvKJ4R6d4pWrdMznF9gdv0iHN5oNKp5sVIN3xTP6YPlOPuDPL7Fh4+48/kcv4K/UQcFDAA7OcorWscOx4buPFBkbQuIXb7b20Dii3P04sCsoumy+jK24QlUsYMPMYvuEICp8t60pPKrhjUkDPakumpoWcS1lD0zkubW1aFdZ4omxNrGkjTuq987Ctx5hy6Yby7NvH226yl32rabzucq0Bp8XkdQQLul/1M5cusIgg+9Md/O/9MLu7itvvFxHtMaXjlk6TJOOv8KuxzEIimQQTQzdmp09fzUdvwPHtMJQk6+SjB+vJvG2b7NCr+AyKVpaBIlbt3ErRtv1UBHhIFslaWFSKQRVHWXVmVrU80yA3SjmZkO139I8XjxIYqr0cZW8stzwG8oxqt4m/xMnTiDsYksMngfm2EX+8iGOP93H4E6iSC/BALykjcOdfZy/9qrUWgZBhVY0vggh1k2EBYUYEHHAzKlRT8EnS8nwmRtvPLHKXedqu7CW6N783HGWRvdhhwssTcXMlpAyBjnvwIZBXkH1NppvB3yFGfnOpd5acXAiYhGJLyiB9LC89YW85HeFTScierZxhUOednf6uvhJtPGn6sdNkZfZNCpOWW7Wb65SRWVdrMTzunFIhArBCIQKdbpCu48Nr/TRHZlu6zKpGcZ7Iwr08Vc5JEQNolmqYbb8k5jMbF4tgbcUHQpkruYIrBeCh2C53Gwbdke9PnY1k9LNmod5vIS/19fxZDKHJi8CeNIBp/6nHVsc/wzm4OZbt6i7kUCtsqsvClwpzyr1msjGfDyIYyYh4ORKgDj5bLnUkMaDxiBpu6nreYRLN8vfRdPfYW/vyZGze3GNiqCVAzisBIWxYAmu4JYAfCcnKwhxy/jfvrwwzwRiGT7cgkZ1B1FGmbAyGVi8UrxHO9EFnBp1V5Rclb2Kl4xrmhuyl+LUaTw70D8vMhFx89h23NS9cOAFNKAHgenGu+Izvbxoz97wGVCjL5aCcXwew5ui7CrcLswFXM2rKEX13POjyYITH12DrVAH+oRWieLm5lZBjQ+H66snAhf5VL6mgAKVPkS8xnHoZ86eYeVMhQanCaL1/+Zvv9F9+fNHKRcmqtjZZzKQTExYdDWPNEHaRiHQ59oQzpVPCVLBdOte9t9++cszC7yDwtBxp3z+cP/W57FvoVEcwt7l//rz73encaZ/lWV4B1/HrVUqLcWFiHEiHcKWDdLJUxe7EytnqHxmMajK92Gw/wK2YvrNO8Duyv04eN/L7G4XmrBxemYbzvgIs2Hu7aC0Q3RwlFwu7fMq7+08CslfLREb+dUKOEY4O1arkGcalCxsuT3ZySt8izNq/Bl+dDLLT7cQdi/jCPvvfvZudwGhVzssZ3n60Q1t7Ou5l/nSQVE2Z3fOPu3cXUadmNyMvRsNCdr81//in3QvoBU5v4ALFtOaDiZ7RJ4JVkBPil8PJSqb578fRwG5n53M2GL+7L2POJbzenhBm0Ptmg7s38d366mvIXsK33CtjhkxkbqXzxRQ568sMtAuMlBv6vbSVmbx77gFFcoyHS6LKEAyvW2v7+Aj5OUNP0w+szhHd8DyGuDy50a6MYTHMp+o/INE8BA1AMtLBIVzxI60wWazu4wWswVjDXitgQpePT58t70vM9k9deZy9y7eKjZj46Z/3BkG2rj+QpNpnmqu0qiFKYweXoPPcBq6uMHlMsfQnsf+TpOhl44dRPtwoHvz9SNpF3GmD1bSpgYZ6dMw9ipE/syDO1uP7pUu4fPVPlsPCTtndjHZpL9h+V0BV0j5mN6nHygC0x8HbzR49H0uWatxNjhw6wmAlPlbQ8E3BDuwfMEmEYHwxMlT4LGMDeM2TF80ySBv+9/kaQKDaSrPPK77oS/SlRiug06dOhn7cI+effXVF7vXXz5Cn70D+lmnghBGaQObPi9geUt1ZWnVSZaDolo3tc2j9lWk8a2mHuJWg1ePhK8FDd7mYw5uyvzwww8j0EyjtTowO9298fnj3SEOkXBgT71I9J4kVV/wq0QnKGgoDNj3RgDm2dVG/Y6mzRCn2kCir/8BhDjIW/JMfCNTboUyJxKNxoEQ3HskhqCYr9r/WyyhX8f+dopjV8dYNvdvhTFMapgqqyEy7YZg+bJBCmFEofvqVTyTUMcegqLA7Ul6W7D7BMyABhtA5HGxF7gjUFJ23dWNc1DBwyXyRFEC93GlZiwwGK2ZAfgc7q3JExXj6XZX8dhx2QkjguZBTF2+/fvf6F5kQjSD6WHqNv2GkCrYmrwXzZ6qTHwZ6+lXFCDljGgyRQckclgO90+tG6BYLwpWellxL4NCoSsLnhJYKzRGMr+14Bh7Fq8BmjOIi6tMOzBl2L1zN+1FnlTLSL6ZSIkM90zS6h940ebu2kZu4F4Lu2VXSbexqrrCEu5HJ892t5yQ8N0608Z5EeWVON5njL+Fe7/z2KEvYuOqr+4xPNhoQqFrt+1oWHWHduzwMeQXvW6AneZjwUY1CK3MthweWStUJmvE8aTBaO7hy00IsbuwSZ7GTlsK5i/1yh3XB/TfmpWlPcCfThQmJ5xYk1b40p9rgx0U2k9wsAWLAx0B8eQpzYQusSJ08tSJ8LX8uRfHA//qv/hWd/SoAjwUTF8kfDsQ/7htRUm28oAvQNJn7uSbtdBHNlF/u/bt2e6eXeANw9ghwog0pKZ9Uczbv2us24Oty1dYIjt18mL353/7Xvd//NF3utuci+6y0QgaCiutiC7hIQ+dJV0N7xHQ5AJ+rnLM6uKt091P3j8ZAZZRnVkKlKBRzs7NsUy5p/vCQTbo7J9lCWkGBphi4MVtCTM6j0RUENYOahxtUWknGpHXiPdxdB2uirUUBWP4+R6N4Sauwe4xM3fn8206T+2V79Dg57Hreo9NZqdxy7JIx6zbKLtBy+smC4jBkhHNnmOAR8HVsocejDqxk5Yhgghx+OiSn65R3MH7Atq8//Zf/5fdcTYAHkUbzgoSWuMH3Yin6vSMZIdcgZLCSO0pNx9X+OECPr9/NgpIeiA06nuvRujf//l36SBvMDhNwr9T2KtiyM+hCk2wlQ/scLzWbasw3VvhagvNmB4a7OD0uzy2bYLBf6n74z/5C5KRgrROxeyIqqMzPXxUUgS3o/GPeRlbcQUQNRjahzto2ElG7vH1xgCY2uBQA8QW7CY9GY5E4emrbGZwk8la6PFu6IsD1MijZUOjdpod1R+cOI/nkYt0Bqvdy8eP4xGAXebRSoizxTGFf1KDMHTbnh9gjnH+oh4rrsU/672l290//dbvdK8e4bCKPlcHKyFUp27XLKChwGN9p0jca0rgBtEl2vg4m1W08ZuaZNDd5D0BWj1qy5wbQBWSBduBQ8HKXesQkIF7GjjYn5oZ6VrSvnSVyF8+mP9HnKB4BwFmmgHfQwXcFBWBN3SpiIMBZpC6oDbeu4IQoyDTNr+4ivb7//h3s4EvSdTGiZD4BBg3DaECFU21Lo/UvJl15PK+40rNJp6DG08FKqD7Gi/MSKh7NjWIJ05+BD8/7F46cqj7xtfx4DO3Ey0l0YSpdqkPAStOPT5eIijAI068DOJTghV9Pg9Vbmt+KASnepO2xe1ddp3fRiPmsrnaQwXN7TNuyjJexV27BpMAXEbYubx4N2YZrpIYJnv7yiCTVpTGxZfCptWF8FIcy8k3Bd7r2J07CdiBUmcPyh03BhYRLV/VTU0i1nDgQzZmXsEGWq8MblazPbrSYZsejiltpNHjuFTp1PBqn3mJFRLTm/9+xpl/8NXXYluNOBV01tkBS8QE65w8gQ8Z0ZAuMinnG32TbdeVALXPKYlJhhHrIeQSpqmP0sS/8vCAfprEE2i9w3Mb0ns4g7b2+iK/NM/klPrYi2vHQwcPkr/jKbj1DBnTBjLLpEr8+JdiUN+37qCl5WRH26heaNwE+P5Hp7qPPjwRpLOhV0Q1Q6DjTF+IfbIAVBLcxx/atq1s2OJgi71olvfireDokcPU6Q5wn0i8COzAt59NPwQj5PCaIaKUiQK0ZKJ/9uzZ8Ke+fmf3uiFshklRv2nNCi3kk1qzqSv9aoP9p5rtSTcwMimV6OYYuaAYwZKsCwUusaAz5WGs+eHbb+Pj+lJWpx6u3Ot+75vf6t7ALeBxNiZiXZV8M25JBqANV42T4sqV9pGP7at5VKg3Jm7f1qH0zA/PLvBKNGYoqDjwS2kjsOKpukcPXMRg96xLknTOBzHQ3nS8m0ITe54GcBo71XNopCIgsjxXHRoF5djB6iBlGjW27Ohj0KyBmFm0o7BHHEboZRMJuy8Xlzhij+WCmdM3WM5lVo2R/hbtWzEiGkN4dOfgFEw3iV0VIjayJTMcNDI2lk0A9qQrZ4CjtCJttiR1m9uATOz1zN+lAZkytmxUSJga3B4wqzPeXTqoRe6dhWpUri9Vbe7uYcKhdldbmpvsnl3GhGHpPo2LfKNoYyakxY0MlkYDGbIsTFpnX831m1xiPDcX7du9szuMNnf/zonutaMvdF99iQMK8Le4A/c89s2PsGl7qEs4gNpgTFuZmSd1xavaNPDMPPQcwCekADVAXVAN/LM6bAfvn72CKQuDGzwxRQd+7PALuHViCTUTnYo3DL6EPeHQfcA8HhJx9ty5HIm7CRtMB+kFljWXmWSdYOm9BbsUOxtzr7/2JaiEX12WG3WZH2Fxhc5MG94ss6nFERVx768BIyRHLcHywpWView61iyCXbwIhrE1jc2WnZx5G7XHwzbEq032H9xwEnn3wflF2jNaaeyAJ1ju27Nrlk1dM1EWmDwQTEQQH0NoAsw80k5H4O8HHKBx4cpFjv5cgiYdJh47mAwyQOCxommFIv70sCh0D6w648wPk410ozqA64aka2hsRjmSVP+do+C3hf5FDxg5Tjg74em/3KsgcnZVljWDLP0N73RNdBe3Tmp5nQygz8O/6hSaHzaemJGF4Fql6WuMDz4vccjMbWhzGwfcDymjx/i6ROmA7gl75hnSCsSOJfS1J7MfsY+xL0jvheZuMZMt96XvRqA7tGcCV0s7URIwCRcNQQQhnri6klCaZPIAPwfoB/DI/MJNrqyy0ZeNc8BB2yApIptYrlYoW5VJ+jIFPw4kclBXsYFFFnS9gYCH32i8Z4yy32Mvy7SvvjjH6h3p1bqhHZQiCf0l99KLIHWsr2uLtZS/hSNotZsNorzX2M1hY1NfP4IqOrX00kUKc9wzAu8KvOcGYneXTzOxydL9gPl6PmEMskyWQnppNnZVUwKGMoWDrSwfb2NDlwoJ6aVOw7GshHdLw3sUEvKO9PFPv9fyh+OGq3yaZaioOcIJgGMs1WUVBlhVN4X7MDnE5gZt7sYd3Jmt3OdoZVdHcAPlhISVGv/ROoimsKuWU96m7PBOJrbWGfyh3B3tJpPxm5i9rFIvX0CoefUQK6oojSwPRgX+pOzBJIjwwZCL7QhY3C8wNht5lEYkXUc4Lc+cbTOr2HiKg4mSzPQt8MIVEcdZJ1WaFTyAzlvoJycwbdyJoMcwLhqhSUyegCJ9rqNUuuMYjBJgExNSj8WdZHyEa43Nu9YerM8qk32ANPIbJMiemTu2d/NA3hAP5QBlnUw2QohqF9v0lEDGak91gxdzGoRkbag9mUxN6O49bJjzHhMtZQ/xCNn8AZaSRb0tEtr+FKQdCzT3vIfG/xq2s8uYZzkRe+XFF7pZbIG3waDSU5drBYMyUYa7eLhx8691tQ0z0zG9fJgPf3ojCcW5Hw49KuERzYhWqTP5W5dp95Bdzp27nGOixf3N1450X3wJM6iX9iLYbxAlATsM2fvQzOvwh2T+2Iv1iRPnV/OzActfBmhIVMQbSh6NA88yuCp7N2V8Ee3Vy8cPo0261r3HiSXf+U9/x0lsnAp1HV9uuM2AN+k8ZXIrRdQQNiG0/t5snBpd63JLQXHzanUeD3i/yPKCy3MudcQYnnQjMJorYNaWtnYy4Va0qRrS6yfSWWa0RsyaNIlw2Uh7GuOGEYGbDp/acRbr8tL8/HzwymBIHjKZ2lyXWgzO8hXItYHS5EB8xLtqjzIxa1ZzbYPawjKHX9YCT/xPg+JGO2e1FXaAbjAZpcNiPImt3y42GH3tzc93b73+Ehs6duIHEXtP0qYyoSHgE4Rvh5P8xaPxVb30qx+fh98gBfqqoS42dR+ePN+98/4JtFsMCAgH09M7u2PHjqERwHULWorUD/XWaikdBQ8OhNqwlU3bfXbYX4AHl8LH1vENtGW2CfmwAomGR/hB/a8VPP5q4Te1Uw6WbvZRo2DuEQaCBxzfpxUX3zd+ladjN2lnnt58U2xDq62soVE8OCjRug8eP/nehyfAH6f24KJz9Rk2/uixIikaDqQahtDwk8GjsYF2Cu+aMixhMrKVEesLmFjpa3eGjbGDxLlpjWKNFuIYWicfcyqB7xrLlgv4tBQ3d1m7ZD7OQGZf1yaVjxgg4ntW2KFVCWMtK5e3NWW4j1BlcIKipmanmwvzhh+SZtLP7eAd95pTaOtanhAQHkgrDtZd+hno00KeTW0FKcjwl89EsVZdlly87ml8jzjpaE939PB+Jhdru87T9wVYYdAmCUUYEUTjQ2ed5W6u45iduHzugC/PyL9uMjZ+1Y9lKfwUdAs/nsHPQyZyUAowd+K7U/O1g/icVXExXP61ilv/1vcOpldw7WcWLh2r3XSfiEFhztwV2nkKzLzxx2DbCEMjuLJ0r2bM51kEFMetQZs1auJVQrFQbLK82mWr0JAm5qvAo3bV8SQmH9Ai+fcCXAQ5+Zk/V18yYQGgWl3txE3jnzQ4dHB/6ln0bVri4D/uLG7u/HXsE3ftoF1FmEDglQ5GWHVSuS7AFyQmZ8YqoBkn9KmyueG0zG48YGIV85JXu89/7qXEE4wkHe5SAlqUBoEHgAryGvasic+z9PDeYLkNjRf613k3+IEn/K65QGyr6ZO0pXWzlifPeWpY0rW8eViB966x8nBLe3DSamaT47elBcH8TZOUSewL8a368NbXxrOtK6Ta11oeaR+vF8giyZI4tj/zMHjEugLtJO1BX+oKuporNTOCrDYAQ7z814J5mas48bnqhDcq4JbZjK4HHv3p6oZ0mT5gjkny5189lOO+1b6vQeoh8uI+OF9AQ++EWHlHszDxMBQNpH9KkXetPAWLX+gY/oBnVeK5AVgTl4coMyfHRrqvvPWFnFL5wv52UlrAfKp/qkf4NaBYm2kKcOs8dVc3zc/rh3fj43F398+/8cXu3MIymq6b3Z9+5z91P3znQzQo92J473Kj7o3cwevu4Qyo7AbMqTl8c7blIGMHkM6CrJSRSz/LS9/LBtSsA6kd0hKNPq5IWP6tJf76bszqyJwJm5CUtNRUvNzHn4xiJ5KG4QfyFyeDWhyPVLUTcxb/SE2CyZCuW6OSwWsHJh0uecSzgo3Z9KbrO+eaYZOPqgLy2wYz78FG5jj+VL/+pc9xPvzx2OfOziA0k0dkemDXxAJovOt/vHkePkUUCC9QPw4wDj8/+ulH3V/91fczUO3ChEENwOzsXHjViV4L8shatdZQ94CB+Q7aqDv4GpVTp2dwvUQs+VheI5eWfMP1ye8rDRDgSflcMyD50h33LN1sgCHP9m2m/+LAs0UeJn/53Ot1jpjUAb94JVj2tad65y9xdSWl+c8PfvDDjs3VGVR2sYrhJFQ7zPsI4Q3HlnAjDvYJtq1FloM9LWxpiWM7WSLfjo3P733zd9CGuvSvRg5EROnJpGjgc01co5LO5cELHK7g6WoKE2VKoPkGK1sODQwQ3WY3lNIqrQPhs2KlIKFA5mRXGzgnJC7Paofocb0HD8yyk956G1Aq+UGWQRCCO6Ld7Gbaza5WIVTpx9NU9ldOjs0yUFI++cE3cgj4WZVksnxvGWGXo4A5634Ty7tfevNzTAheq760x3td3rxL/9iTLVnwo8u4q0wCzE+BYmbG46v1jkFuCF9eTbfq8rahL5+4VAAn+uTz585zXOuVwHvrzde6V7Ajnt3r5qCeHlWoehi+LyDA3USZOGHQ5Xd4dwTzsCmUKwZprya9iiU9QgQwbqHai7wD8wDH41rvILg+4OQ7VgSYJK0PPRGKrKQRXmkDtdtU2NzGhHV6Sq0eAgb0UJufZWmS2u97xLcrJ9rT2pofgn9WHGlDmnZYxwqoDn2a5u1iw7ZKGVFMIH6NNfCUMMWFq3Xhxr0cegF/eMKb/CHvxKwhERsBLa4aS3gDHqkxCdMFxz/iL7BRS223TXkcLfPrr73SHWMlURAVg6s3Ft43ufd5fXACcOLEGfJBW40QuGO7p76xUQtACrFq+p2ktlBgCqZxqk3TblA4KYD73cm+CqpdHjwBguLhpCY0QcvlWH/h0gL2q/SN0NHDYWInj727MO3frAeDtKnglScuREnh9Gjgsd1vvPlm3vnakEldIlWxfdZEw0jKPWp1WzA/J4vmqe9gbc1Dska3FrGhkfcoux4x2aOe0RF3t1kBOXnyJCeYnU/ZdmHidYA9Om994aWYQln2tDMauKtstgfbnpNj27n3+nIfgxcSj7JbH2nT5t+XpaHiVXTCH7Rj91bMLyxwrPKpCP7T02Pso5rovv0H32RFGcG/Z4Hh9J/W+7Wa+RVjmCWSYZgQRbrK2hJzhMqxG36BSdf2Ebwu/C6O4F890l1ffoQ7ooXuPEtuZxm4LtAZ3rEDoNJMvequTiBsplPLM6/jzoslGtuNDMZv/tIgrX/S1r3srX4DZrJh+7/ncFOYrjTTYkigTaTB8RimohNJIYxsFNKanO6HwYxreNlEJu4DzJdCg4O5K7CLYxoenWryJ4r2MA5OCg57ds9wzOmBbv+e7WzS287BATPdfjxTHMBfsQcSzIyzPAH4zTbacBvXFKBlLI2eh08XBawg68nJ16bu9IWbbFDkyEd2+8qyO/AHuwtbdDdAbEb4e3ooPpJ/IuzMbOreeutLgVEdfg3gaQdheiCt4w2ewzOP59A6QztHO3GFGAXgDNaPRS8BrV6DE/z9QDMmtFo5LQoTHg/CWEbgdQDSXChhUDSR8sG2oPaSw1VY6VnmONQV6OO/PQi8upvSzVmKYFtaF3xegyF5+Y/ghIsr8tZF1jgC8y60p8cZrLcCS3Mrk+QyNNCuA9tDLcIVnsa/zebSmzfuZoBWWzI1ifbP9ix2PVyBR9srrtDZ1+kkjEJ92AeofZZemlJtn0YT2UepQjZMLFdQbcjCK56i5UlT9H+kdXBVo2QdOYCtJeCup1Xra+zHVB4o/HnmvbaQOoHfgkC2BzOPKZc7G64FKb+mTx8lyBSGK/9YgIpTf49bfbBStrOuTBglf5W6h2RZ/DMDUisk8hzzLQApJGrypRC4j8Ml7OOM2tg3iPV59xQhfR8EKWz+q9HL4B5tliYiBURaOzgM4LW0uZq26kXaaIrmkb5qaQ/ggmovfa6Ytx+zy3PSZgQKbAW765w2p/cMaW0QZb2jNNRTJeY14GNHDoKICZjgiqFaZgWoMYRdNf8e8xyzGdJJM8euapeFi/Xi+HQL3tAjQbTM1Kv1sYWNlWone/DrcJcuqVOzl3+IVB4vanOUKz0eSPMC/lQ1rdiCuQtNqHAVoPf+BXpufMiTZZZvnOTdZBOXp8dtZYncY33RCBFHQZDbrOQSWXhJawvpYaR9yutu7kVzzYTPYXuMCfA2tLxOAhyvnUyqORUZy7NEH/Iem1417XIDra7dPKlNwboEf3NqYT3e1qi4+T/H8JJH9Yt8AQ/h52pyC0nw2QRykZM5J8AVCp+65wv0TlsKribpC22E/lbWUJ6hRDHnucfk9J133mVV/DI0oH6ZhPw2/f2X3ziCCeNoJkRETc6BLRz+HqpAUNuPGYKTLjcuuvlSTbQrcQrf1E7JNea/IciXUmI1JiG1WfbS/HwEd23KXznGJH0SHms2JWtk3ADp0/X4axN4wyQhWl9gK5I/68P+R9aww1ZLsgWG1F7q1eO6JnvA7GwHbpoud+9g3/jOgxvdxY4NHrjzWAWANjz30dg6eNCd0JDQJLg9FonTDl0eUqj0JCZxsDH4zvh2RPlu50fLEZcMkYBKgyGOdkVAyJdkkXQibsMimM4C2FWFYcEFHJyR25HFVi4dUkDUD9HV4KaDQQskHBvfxJgwEXDIw8Yr72yjUzm2f6r70vFZ3L9gDM6O2F0sq01hz9AwK3kFoALiEoGkL3tBH8r7+e2nhgJO8eQZNWMnzl7GjMejMlmiYzCZcbmd5fv4/1TgtbL7YDUbwm7ACF8bBX5W8NqujSsfM3jBFLYrmcM2lpBLA8hDMVB9a7+kd9A0pEOXp+HzrGoETsOCCLaJBptHmkbw1vOKmk+heIyrg5Q7tF1aU6sTfuVbBfGl06Xd+udS7g1sZJewO+PkjUR1w2lMK2g7NNj1yQESjHqcvbf8MRlgkNCnqx297WnnzDgbbnC+L2LESd/kvd1GIwuP60JIYYRMZ2ODeZMd+Lewj0zbZanSwVvcRWGNHgLkj3S+Fwy39D9kF5rqRxdbT+5pstl0shla6ePCeElAIgXaqlNonQ8KdOSPiYZt3EnJFpa7FYyyamWfY75muC4UnFQ5fEGJOIXLI3vxqkCfMz2+pdvJZHo3glWEh54g5l181pAiYV8m37uD3xPF1MrDzsHDHeDixnga3O3XBujkRtrQCnr+U3jTvMMNfE6KXPmY2zNJfSkUDVJK3PrjknuvLfDNTb8P2GTpiVLa6UoTXeyJp2Bsd+XSLkUgpXgJtIL3xtN3dA7PQKPlWDLHHglNLMp/btVzxh3gWjAvBtuJ7gV1RSUfC99lb6+DP2+tZxJZ98JxGFFwNU6ra4VdjwdWcJpBuzjNqoR8YoapD9KYd8NZHAKT17fZB6DNqvAVdkeZDG2GFmq9jVOttkdakITQqG59SHuHWmj/cb0HnEn8Mc/hV39agRdp1zHMPKMwEpGnBONYp24e05ZUGsnTmgdY3vQr8EHhJJAGa61uxE28/btDm7l1i4NsENR2MEnUvl/td84BaGnNlD/lgxNoQ69hU21fFhOECL4c0S5tUwbpbjC/XEIL8Sxa0yLR1I70cRUSxUealEaaeI2UXmEg/9kGjdtCi5K4xhF8+N+SPyEwGVBYdaJ/n03perr5kFNVncQv3bmJKcEq+zx2IysdxD+5PFYlkF+ystRjoXnlHXz236YPHmW/gTSY7mlfaeS/lDwwHvuhrMoVHlhyB5/sHiGstwpd9e1FIXcU7ymTugukqJL9sxJ+bQKvNdvoELL2tHXWLeMooOYVt7SDhEkM0SdpqLPbD3dvvnq4+5e8fdj9C7wcPOoWri+zye0q9r63cCZ9kZ3cZ3DkfLG7gv2XlfHIjWwwtzBHmAFWXdogyEemVSDsO/zN7kBpteRAIQIm7HEMCwmA/+kQ0oHzXTxl/D6+nRTAs1nPb9wS3x/Yj4YpAAcRBQE/elXA10XJ/gP7ut9561UaL4MNSzOvv/oyyxQcHwlsZ9H2cdH8cE3TJKtkyzUNxquZUiYLK7UdVPPZT8/Dp44C6dzhx1vw6x/92XfYlT7PRort/G2FB3bFZU3VX98JbygB1SuDZblYDazVr53tKloha16WtpNy7r6RDxzEKoRT+vuhC4mbwPOAzTQuTcvDdu6mWBfCb0GFL8V3fndS51KyBwDcun0fAeA2g568WW09UBpi5OezX7XZv8lS7GWc9i8hII84mDHBs124+agmqn3CShR0fGOw3LnyQkHCTVDac2qOMYs/4/37dievREs5e9z7dJV66DeAG3RpzKCNdvX8pXl2fetjFY08g8fk+AT3tj/z7dNHexVsUj+J7ABHBAdTT1jzT83NDMLma5gojdHvrQs9rPST+eDgxJI1R5LOo7Wy29FedhoNs4KNCKRPYjBuIXUGHLOOxhGkNYVQUD2nbTNC5iRa3c+/dhQfx3vokxS4TU8Ca9VC9qEJv34L9xBN845Ll93BDu7E1exkO+7VdEmW9PZLA3TkRycsBbs+lPLBI1tjK26hSPDG517uDh/ANCJ5k1/e94hsuJjC4MTq6rUVTmm7bPccrbcTwWjeUj8iYnkaQkNl68upvXs8Z6htxhTG8usecBfmZApchly4baXIHfg9QNjV9+1pjgVfQuicYOl+luNr1aoFfRJKuUY/ARV9heu9tBAOm56xndXrisv9eu+Yww1nDm4g/RrWhUvKnx8F/i57Y24ymfGV9qNOQNRuhg6UXVyGYRBtEEzjNwV2T2vTNdsdvBTM7Wac+gdfHXjvUGitQAr5Lc/tXf+Ji/CEc/1mTWSdYDlBtJ/bwuQ3K6Ywp2Pmk5BqEIXjaoSrALqde4jW+ehhjq09iF9uWS95Kex5B51J4MEOlzn8wwM4dnIU+bFjR2OaoPAovNCjKibPVbEUB2Sqjqs+IjfYsInre/nAR+vOvtJgrsnUC3817peQnjrnZfqGZFz1LlwT+urxYD+xuTt57kyO/P7wgw9ZdWAig2erbWz2+4Pf+2r3rX/0ZRRhtW9nLb3QisvETKWKE9tTp87gaXIq7dMVOzXc0j79usI7E4GntTHjPWQC5nHfC0yAnAyO0EdoY/+tf/TbFAG5Rg19iLKGyaf57tcn8FLqMEO7+pA66as5nPV4pds1+DaIqW0lnWdVT7GhYm5mH5vC9nVLn+dQi3tfy0xOf7bOJJ3N3aRRLOJE/VIcmHPSDJ2AGtvr2Oze1gbI2TMN2kq3Q1lixuJsLEb7kSblQhuh9nBUJleXZ+2QonHhs2i7GY2fbopBz00FYwzKu7D32UILHMEzgkbqgtOYfCdaOzc+eHToHI19kt2VLmWOM3vcybGgHrnospGOxbfxXmG3OnvIEErUddBAzN+H+h9qBam1aH56Hj51FJCzN8W27MfvnuvOcIKeM/BduJV65ZWjDKz6ZLRDLFtx2NAh6rFS9M0mWpv2sTqs6oDDGE/kgGFYw/cNSrs6UUPIs/EQdBK/MaQNAKJwsfN3QKCTR0jW76gaNvH34AnPW7+LVlJbXHm7UPNGAP6nrXFr53we+1ineQpxk7jp8kSkaDABNqw1afjUwENiQ2CpGVHYvo22rzbtHT50sHuR03+aAGXE4F+phn6r5xEzYfUjWx6cRFhXbhi5iRbaSbSbkrTVtJzuNXCjmku1pq32KV70JTkkhjwtJ8J/lhlZmlX4HOdku/1sGHNDavLtf4uwVa5s/hJ5+gbdLF3uDyfRPtRNfZbFJevIuiKTIDT+vORdmUopWGpPqvBwDx+iBxHKjmE6NY0Wz6jiW6Ge+odcaigt2tn9ebjCFXBRkFV7VJt9jVqCPetuMW+15EUHvoCLOma1/yPwudldxO5WU4JptHazO/exZ4EU4lzMxeVxXMylYWpU/UVfZ6PjIv5vH2L76Abl2glfQrUtQzvEJ0pXwLc+HdzvIujqekmNqILiTnxAq2ENLgLpUTHvQqvwVNxS032eg18eduPdBAc9aK86Klw3/mDrlrbMdTNjClzaywiONbxz0xEV6E54/StrkmCYxqvALnCobFuJh564jVCWMmzq3mEZ34mZKzxumNPWVfplGR/hMikbmOTQ/zgrIlgmzW1uMIaqMZzS68/MBHtIEJiyH6WP36ivxPkxQY9Ei9ehJ+3HCboCo3UTAd8cKHPG0uQvDuuRS907GQCXO9hVO1lzBWc3ZibasRq9Wu0QEpTBCfQ9hF7+873fZMZk3ImfNFZYtU371ZBbgNWEv97lg6nrI5Fov/wzOHEt2/iKNSwwtr5QdkmQqISAIV3ugWVf6WY3aWA5lTfU7mu2cfbcJXyRn6Qul7ol8L1/f7n7+pffwIxgrvv2t76ChyZ8dgeWBLAOrFv/Cb94fgklyDL9ryZleoLR9GkavrTc4mi/7lW+L6yC2uAn5eDJfmoBF6rXmGyL75ts/n3p2IHa/BuPF4Mkn4mbX6vA+0QKOCj0ISw3zF+8r2bZszEDgW/8Q4HAn8xvxYq2mo0K9Pe4YsH3qALvzbHu/IydOrNIlgb8u3Z9BPdEWxGS73c3YSLMrOhYZK4yiUgOVHyYh8tA4AW8G0vMMRIsI3ZrHPRkCLnbu2005Aka8T40SSpqxnBZZOdtA9deRpdK7g739Kv9+Fed4IQ4hWGLbZYGBYG4ZuqdYddb6YRWhG9DfW196n9NLpwWcr/xZfv4/PqfnQLaKF5euI2/TrySYA9ax8LqI3IvgxOaGIQAOxj1oemQhyu3x77xzPrC9IyUl94PP/vyCYAS95P8PJ624eDVjtHgICvOehTxXZYA6dTV8uiaTz425gBaNSReKCirWVrJkr2L+wqt+tB20LZf96/6hWQ1+KmsqwMXuIOQA6jC+hIDt7Z+Cto78VX51NAj5eWxQMa6i3LX9w3MGbQzdbl5fKsHCtQyoSJcaCCAEIRLX9YII8h1Tpa1yVuhfSvcqUXLYM7AK34eHINIUAQSCQH0hHJp02AfcINjSm/ju006a5uoJl04aqwsc2Amtj8g5H9wEkL6EQZVtYj3KYPPI/Svc/hW9TQ7OqCK7+0ARt0Y12Gx/mk6potGeDgnm2kjyaQfWmfTHrAyqFoX5tt3Xj4pyOYffTIWCBEmlqCHwp7HjeqerQ7KaQhsxKS9X8PRPOQdtXry2ib5D2qpARdrhXP5x83AmjUYv4KwU7BE4HOWj6VXO6yofLmXfbRt84kB4Nrkr6BY0YewR7ur5XMyFMEOuDlpTkJE0ILZ5ROz5o+3eZY2Ch+2fxU41ofbST+tAABAAElEQVSup8YYLyo4JmYkMkHuTavyRLiW89pNXAkC1I1cCpfZPEqc2PYnFXE31i6oPER5Y/tVGFWL56Y3+XSKDZXa7s4g+OoWbS0I5+nBr9JcetxFO+m+BP3GahM7hntQsY+wKx24b/QIRN7Jb+IpDCcE3ouXcS2v+HjUsq7WKj0JTMOjdHDCskJi0/s+q0S0YwXVtAb4z0/SOKG/2Er9EC7xXQ82+FXMip56NEJFMuvkz8W2aLGsy/psHG6JVKYQ3JM+phMK5XjDsZ9wQ54TLjctzs9f6K6yadCUHuYyu397d/zwru6Lrx9mX89MNrKn7AU68Ac/5GPWyjd3sUcvGaLMPTXzkRfkcekvoW176/uNBsnCax6CLEVfqvC8lUnDfo5m3zmj9xHjWXKR8PrZCL9ZgfdJdLF2hsJ64puARm5HRUXZPdgYGhiTGh9THnxJjsdW7zAuMt549Vgg5jt3XuHxzM+0J7Ih2hic+eoqzCAj+M42IMyaOVcXwysal+YRAEl/xTBXt9k4tpUBehrfuG1fjgjyv/68Kd4a4G4+phcnPxeeADbzhjTvGzPxpQ9i8kmCUJ+HTxMFwkNUy/snL3Tf/d7b8CI23JyfupPNajtZHdDLhwJDeA+GSU0PVff6drGxZJ+kvhuwTxJ3I/zHnyPk8Tr4wrPRVJCFEz01KU4UHz3cgt0dniSwPX3UufmHCPb8AxR8Y9tGg0qHf40dxQ1Led9FcE8mVBwcJBlCJcIcbbVoRnui817h9EEHEfHQU4CnK80i1D05mNsa5AyGw28oh+EOWjNPV7qt/Wzy47AIVm50+RQvFj2MBmlgo0pcC6SNreV0p7lanBXWn13iHUGIUOC031iHSQD10PggyQy67rqIZnUUvFweVgu5JjhUnMd+xYH/9p8eZXwrHiJY3Vq6w4Y+tN9HDsUeMggkcZ/ZY4AEU/SwJ76F5j7u9Kh7D/pRoIlnDzq3VfvraK2BRUenlix9q6Apz2Y2LynUOSm6xTKzvqRnGERf5NhabZOH6+QJaDz2So21bqicLDnhkR9mwMk+XD+iqTOwl9vEYxDAp5VWW/HruGm7j6mJQtaWLYwnKDSmphSUELqSrrXPAQQAjOQgoWssn4+q8Uew0rwjp4D1tDe29W/oScAdVGQCXCs6wRzc8FyAoKmnCDdc7mZz0D48RVSahqlQhJXWxK21wQSCy7kL18JfTkCiYaYNGLdMMoYL3iAAk7pqrUshTIFLbxfylW3HQ50OYhK0VZ/unzhUS1LDe0U/zdB2YrMrP+UezLJH8AJnBVh7u9afFIXMqMprO9EEKF4/6AtMq8u62b2aKRlHGhYtfF5mJSZHZfcg7ItcpRW+gnCL6+eNwTiZKFCH1pfP1olpgk37AQ2rlk8EY/rBF77rPxohoZ4D1/5EWJTZCapCvHbJHgJz9iynt0F7TZ0eoNF9QPucQbs+M7ml++//u3/VvfbiQTwjoEijvvXyUXkBK9mIH+/64ARdMwTdKLo/aiuTc80ZXIkZnhhX0oZnQDYQVXaYyoNp3Ci7RB84jkbv868dw8xmJvk5TbWP/iyF36jAmyrp6ZPLWh0VzYZftl6+xYcJq0rWEsmILaFfIy9ydfNXQg/PaKayb2D1rnvErMnZ76q+fNtHv5toiMGzEY0KdaaerBpcItohRKvF1ZSj2RHD+z69oBypkqRPZ1tIxw+y5uXrte+DJ1NWsECFOdceSP/p+eWzR4Ef//hE97dvv9t9cPIcAu+W7ii2k0ePvJAOsA4GYFLG4O8Rog7Wrc4HNR9e9f36UG8q1iDuuiiNj9rLJ8dqXz/JddD20jAqhdoC/Ua6vK2W1oVZl+g0a5D3ZeFE98H2nf/VaetOSdc3I2iB9HE7jgsdtSVlKiD8KqV3g9Dn7SATfHi2Q2eYSn62RU0PykfmWvpCxd+6K3jSpA2cvqn4/qrh+Nm777Fkzq5vNM/bsa10l7gaG3Mz5fpQcBtO0kWB8y4Dh4K9eNl/6LlijlWfDGDmZ3kq27r0rzSFWLzDccQMOi5VTk+OZ1OWGwQdxC1sbK4j/BQmazi1O4QpNLt3GUiX8dk8wyrUHELDCxw2MdY6zPSxQyWpYgxe+Ghvd+fOakxGPLZUpYHeHjQhkM45USspyNesSRQwDPKKBhQcuqGFZTBV6PWwHr9PcEDDi0ewyxSHJAiQn/tjkS+xg/0EJ3m6YW0Sd2DukbDeBeNGZ/tvMTeuddJqLJSR5gSXyhc5GdCr/OvR3k4sDNI2wACoYBx/6ilbFdC9JJ5+Z5PdCl/Iv9a3SpJBqGx4dEwoPqPaqu2TUAHwJvT06GgnAvL+LKeDaYP+eLBk/gEUuqYtAewUpxN6YIy27wrraqrbiXG2ixZMadq6cgd95McV3H/GLZoTT+AdfAEhaw5zILNgdQLVUgPxMdeCavmdoJ09N5+xVmFXrbf2u9ZFtQ3ylQiEPOeu/0lbqJWiK3gH8ETJHKW9Yw+C+DTKgnZ4gywl/1dd6dFFbWn8XFv3IG+bdbx/LI/h/MRBmoCPwrXp0v8AQ9qIpn2y2cgfJRDbGop+Xq1/4xqqfIWbe3ec7F73vAD+3LQqjjd0GQY/SYP7aGO1I/ecgSm06t/69u91x4/u6770hVeYcFQb3aI8oCsoJ3aZLA2YKnlaAoN7Djx+/NTpM7AGhwGh2XVFyvJkg6t04Y8fKzZp6je3gx89hty8fZP+D4838M8kh3e89cZruCITB3tZV5i4ZUKYFapByk/vzW9U4O2rA2r0jS3UqrfDJMobftYqoY+TF8XY6+L3EY1VFcALb5KsmFhmzjcqqc3JHocEAFu3ARAKtCYSfN72+dQLvvlsp8KFhYk8xhi8j5/8BmkclPVM4Yv+LxfxtGNsNFlf7h6bPv/2VBk00DwNQpVx8Pj85lNEgRMnz+CJgNn7Q4RChFr9a05j210TJwcdPHbAcw/sQGSqvoKHO+rWsa8vFnzRx41PzfUfn+mpdeAbgUSTMfSyBoeyP9Y7gtqE1SX9zrKEnuVIOXyIf9fdu9HEpX48q9D+9D6wFS2Vg7TjtPov9UAbw0DQ5YM0Mr4aiRUGDQXu+DXhvUu8CWa/rtH4sO5Fovkmc03Suutd/7fz+PVVKNGOzfPr1fqFBsRxwHVJWr2QwefUg++126RMChXah7oxSltaB+EJlt3Hx11+Vmx+PADawqdcbthxp7aH8AhLegcuURTgtONN/B5M9UZJHpo6H/ekpgfgoKA9hvChVnYUYVfyOO4N184wNg2WV7XxCrlL0FnNm5r0aI+oLzW1DsTxMQsDp6uDBhmgxVIhkIwYJsHD/RTg4yAPPXRvpDsyYZniabgM49XuXUVwwqSA6UqJAm/jB+0uHZpHwcf2xV1LljjmJK/I527U0v+17XEvPrHt/qWuNqG4U7YY+VYWtj0YiO7SsSdhlSmOLrPKtlr+UPBT443IFDwiHEAjiSMfJH/qM/SQN+Bh+Uwe1tzFycRjoSeOdFKKv89y8527CNmUbdMmvRNhWhcBhzElgmzlXlQ1cT/WkML0tcoJH5svqw/WrfTThn4KW2StaiL0P4bIxhdiFKzIAm0xNtXz89eSrTbn2vfr7u0hdFEuVICkx6gUfZmGIYqDf2kz8Jx8N4Ud6qju0RynzSq4ycCV0mOqPYlMAde26nhsfySc1mcpYD4hO2A4PsMLANMkysmPGayZhlCHIA7IwCsYRUuFVe3jtcUVTyctkJN69FkTEeoIO2SFXcujL+xa8bmfVQ03WXpMuJ459sF7b715CBv7CU7Zm8zpdimdADe5Qdm6BgkfuVQQG/6gg0cru1fAtmV5XIHRnnutvwI3ypogjbnJUxWoXsOjThruYGYhPJlfPtgxA09uqRZA9mKRviiJPgM/a63/l0a2nznJRB64YMD5+iMqxgHAoyHhjizfS9a2LFa0HaJwpeTXjqHC+gGSd8B5YvC1idrnDfFk9uEweG7CbUtvpBY113porwbfGrD+gxc78Y0hb9rrAQ7tBQh7m/f1rn1pcNae+w6KF4N3Ju8fLLp/Bq+JzSDqvCuNgg47DUQmpyN6xNGn1kS0Z41rk/r5zy9GgRrEMrstwkvudAJVIdjW2SP1L7//7sVuHs8FdhxbqLzt2/fwtzud/+oj3O4pRJmQDkYedQBKG6D+XPrMZjDibHb0pS6VJQZal0hoYt/zyrqCyCgiaLDmzYfVDQdegwIX8Byw7dyKr+qqIOCfApZx/Bu0n0qdX9+PqCmko/d44bsIVMuUfVFbT5YZDYWZePT5cuuhBA7UqyxzL2MC0W26G5tSj+59uDrOAMLgC786SD4tJO9eaFErsRo/vrh742jXopV5g5sDhncBJU0MvudFXta3te+6kGOzGn5Ez+Iz+QEuliYRyGbn9rE5mQGEpNJK4aSHlKvg28Rj80PKyn9pc4fjjm/rAYD8MI/kqPPVbNJywmutNIx4KLRkHAQjtSvzHMO+ch9tFX1sEzLXTBrUUDpZGkAIHv4ELozyCJ4pV0UeWbu528XG2l04kM/EyuogqXH9zV8KV0/VZyuc+A1bV4SiBTbweYSt/Yqat9Gtk/hhpoah8UP3IuQqWGFSDmQ7QebNFszKOK7W0wFXEMI9OnjblrFuD5O/IBQFAHn1OBQW/gbJ4BpeIop93JUbS2h559lDMYL2Cc8EaJttObYPN6s5QZB/bENVAvkgvSPxPMVSF1rarjIhoWzTEyPd4Vlc/sN3tu048w+Nij4Z5QIIoZUYbmh0FcNpmaeATShw8+S3aPfJNfbNvgsfkz9tKqYvXOV1JxL6ERYPDwMZo5OYxuRpkiVtQ+GdovPgmOuYY9iM15cH3aVrrBx05a1FodJDQNSqSrPB5Iz7Fgqe9UVPgJDsM6RKW711p8w6YiYIjyT3nvSmX4PiE19D2xbBr9Q6RbyIZ6UPL17HLhuhCwFcv9VMRUkA3yjrU46H6XuSg6mgSckTYB17bicpTkSykW91mfrdDW3cWxMOSN1WB2v+bFajvd6+e5M6Q/gHvrSw/qVvJqLwpfg+KSDu0x+5f2Brd/3StWjbzXeclRQn4vqPdsKoK7RNKC3Mz4pom0EVZONWDmFzmft77l9A0PXkPNumuWYChBD8yMkX5le4QUDzPdodRPnxtS8fZ8XvIJ5bDmPOMpEN7TZp0a0+WSaMB34EeT74WIMA1OrrhdfymLb+d/hTJnOz2jj9MZ+CQ/p0gfKnyUfqz28tI65b6cMVyBfxiqVnjDFMWjykcmyrfVBxnu1AFALY62cgPLvAW3SD8HKwxYesqR2JIomLyH11Q3C7hV9D+KRAnxbvae+fhOqGuBsen5Sifzccc/h+fZKnf2m07OPbggjVGIapnaHBL/mzkcHZ3NssCG1w//XUROXx9+K3r4D+MlxktRfZyUsVXMeW7fLCUvfeCXxDYlflhpqXX34ZDR82oAiYdkDVCa/VW/qeAAQ4FaxWQi3e8jKdP4KTdaqg8AizHPVHVafDGDztnmE4g4y2PdVxdQqdgSeP1GCqVkObTIXssgF8Grx6LwlK8ONADDrXbQwa4u0yvAIBRawRmnJknDABtOEpANwEpSuhrfh2TAdMp/qwF8gd9GoVJFEHP4lHHgrg/kXLDNB0RcB1Y4cDpwNehcor92lkIsC73FeMwW2ibmJJ9kr3/gdn0fDegRbbWE4dzyZD89LTi9cWhqAXyB68s32XSfVj6ZKxm6cO4Zbw2JH9aGBolQ5aEVaFMMCgB+vJaPdwUYRXDwQR60P+UQtumbNUnfI3LDZeoTDw0TNRF2hlXTqF5zRn2MMgG/vh0EC6kzuwqpdZw2Vw1w+u7vzW88116mwrR6Rvn2HzLpuRtNU0dUpgJQ8HgEfwcIClTjStuMHBQj4pGGqCMMcS/lY3ZPQ8sZZcDPzjWw9WGMITpbvsydDO0AeX8/U3KrtFk8d3ixQI4JQyRvVcbc04rix4aqGbCXWBtQXb6mP4GdXvbIKJCf2FpuZdtUlNMvQQoSmC/KjnDLWZ5Xe9F2qTsGAV7/PCG+2LveXHTWLXoYerITE32b4L05Ux6gp7dBVJNQsLHkWE4m2R0v3fmXOL8CLL7RzI5OpKbNihR01YpX1flnUQfKAcaZx6u/AkMMRmcHmABnL/3O7uQExuHL1TiKT2bj20vO5/+nJSvguXr+GN5nLsf7dr5632njoTWiBwKbiKuoY+j/6ieZcaW72uyFvjTCYOHZhjr84UdEaQHTQ9E9SDd/KGdHWyYtsqGsAvZtHyyH39VHZ8DcA6Mvv8BVyecvpfDnqhL8rkJH7DhU1/xAFYmQiSzPSaP6YfJz/r0pdlykT+EbKLr/ZiorIXV3O72btx5IV9mKzswE57Z/701OTGfM179N5UVVbUMo/Cvy9044fBWF7vrUNP6ruOdt1NnE563GugiZh8Jr+n37ToaRgiyl/PH+ZhXuKusH5NMx9OuN23e0f31hdfG+AkVoWPgD474dkF3gHRHDQlOpoPT0N7xIYKnmyEGetqFMqLjydUI/lnh4i/CUyryxlisp5B03HKr8WmoCK7Qma+N0HFzs7+tUXJaT39o3Gfh1+WAq2jXkuvgYueQTLA0FHqfUP/oH/zo9Ox31SQVCM2NzeXa+uM7YTsTapt8JtHZ98KqHSyZHGXGfdlOuEr8xepW76RjwJv2YA64fwkgXiqXx6taXizDGo7pbN2kFAgGqPz9WjfObSZLjOnMwf8xoFzkKP4B0s9NZQHA79ps+rpVY1d5dSE/uK9t2oo1c5uRTumhsXlz7j7Aq+ATqL1P8O4iJ/CXzpz6cifQqYhAq/oDeWdRwdJaZH3Pe19BqEsUT4Y5TjN+e5nPzsDnRU08W2KBlGNifmlfYHcUFHMJEGczSPf/AGfB3oToIyGfWy8ObB/f+6HyzGUKumFQHVwatRi3Ly53O6Rwgq+IJDySqD1MAK2/yFz/iMvRODVdlC67MJzhZuSCr/CdK2OhtPXvbZ/CvfKRvo4zgELDuT0625QdAf+xwVpZS4G60jtkcK/VJ/CJnkK4U4TDwWg4NT/Vor69b109ZP31tEiWsSbuNHSnZYvJ4ClYNV4YRhMhKsejwbL/J24qI2TB3UlKe/vZXlZrd7jwXf1Xlw8rEIe9zhi69jjfJ2QKDC44apBaNcGryZhvOW/9HA53AnJChrKMTTUhw4dTDnWtPYNQuPXBklt3hITsushzjbMVBS45Q95Iv1Ki/qEq+V3QuQ/l9ylBckQmGvjX1xshg4t/ycA2fDKPHURZ3ncBLgV38zj4LQNuiqMgmhSmCctsH9aA5J6GsTxhMM66hkLBSabTIq0yRWdnheKiDwH75HwYmsPuVoggppun/2X0F9yDyx6LmiBBtOMwEzh0c1a9tnWg8cuO1ndihC5mU3qEsp+IFpS+s24CRQ25XfTpAoD24U23dNTnHQGb25HTbpn11TMd3Zz1fXcpDb5HGRjucUt24EKTKE5wNMCF+0G16yGVIn84oRNcwbNsKT/ps26eERbDB5lLkMu4NfosyGDPPojH8TmH95y0jWNudFBJukDVAYxP1s3zy7wpoostKSoynDAZHtsJqW+gYdgB1m7ZzVfDlGuUvGufz1gyHr1/LenwBrJvOuf2ssBEeubrqCcFevWaJXNCDbKBCXf9md9tfR9Hs8vvygFegJKVpJqLrAZjQxjSMIqs/3zF6913//RB5n567bL89mnpt34VLvsjbiuAxJSr930m0tpfr+2eA0/rJxp/tGp1CfdMB20Wq/S2hr354UeLYDa9Ju2xSX50or43l2+2n3p6mnXrt0ZrGppuISWJ7FMlZ2WC57RMDEoSQ0FI5fS7RLSnUfA7LEcAmQ6/xxw9MOrFwJt30ZiPNnHf8Kl8gU2nbjaCwenwOFeTYuncGkS0PCT39uQW9n7Wz1OKUucOLi4iSuyO5s5sQkN74fnGTCwXQMnhQm1Zw4eA5zJ6+OCgo+DrRtqMkASeScb37QFFjHhVPCBu8xOfVP0XsGHl8vMlmMEgWyCwVH7RNOac0ttiqcFj8vVvln/u/qGHefQiwmETPlUq0W1VcJ6WtDcJYHM9J0LKtABQZfB3/p2QBXblG9QniFo1m2fgXXl4Q43OSBE7dduNM1u1FFLZuU82V60778AGRJx9ZRNDxe4hf2ug7xCpDhps53JUkM4JbMNOdiXiFWiRUGyXuRTcVF4H+fQkyk29TWFwVAp1m6tU8rjSWKaM2hDrOuycQ4jcbKm4BGhbC3F4E4yRKjjRpo8oH/W9lOXcQoXW8H/8MH92QhYvGGKvpbTfmy3/TOZqIVc5JQ3BXR5VIF7lPpInTWiD3LfcAMYYTnZdVOVS/bOjsbQoMY3PMKa7Wr0SXW6AVSwBJ6bphZYycqkiJJaL/KH7SYrScAr7aiZV0kaPYqjAQwwl+alY7Tn0HsULwF6Z3BVotHW4gW1nj08bt1NWr6s00/hSWA8YkleoXXQ1kQ2CFt+bkMHgADQCYBKifhHpm+VKXdt38HJYvjKpxlMjrHyNUZc6kJ+t1xOBp1ouVFQgXzvnj0Is0yQEXT1Ke4x6box1bvbOEC2UgiVGSJhWuniBjMnSvbLBvGSx1K+wRtvRLwPfRl88lbZS364G3MKeAledBJmHppeWBfSwDZoiFxgmb3vM/LeyZ9Cr/RYhR9yRDuTZHHyL79JlIfPzM+vQOC1Uqg0Grt/doQ3mV24NGLQxyRNH6HX4ZlQdB7cDB791pMyt89/1lMgg2CxmmRaT7c1ZpWGUv4eg6QCi5shZORNCL5lR8Z9D2sY5PrMnj99Mgr09bEusu+qdrQbO3nmUvfBqUvdux+e5fVqd+DgXLd//4FsWrJebDsbodgZqcFFR0R12hnxj3fnzmESce16NpaMjLB8TIPKcudj3LAOoQ0PwCLDcEkvVLMNibx05VXnrLv5x/brZhw3X9jpDYL3Tp6G3/UfHTQdVNy0ozBPIbKEvsRJWB6hvGUc7Yl8CIhQSbAUIhfelBmIHTLwjeDScyIOcn/8JsCMJFpq59wYU7aabtrQdZanV3Uv4JrMjAgVu+598nlNDgcP6uUWmp23f3ayO8NhArfRlGxDyPR0xP375qDJmrD7pPprkHMFllpQ7UMVvh3QeBO/3PpZ5XMfeuT6J1/7RvMBjxPW3EPfmrq+mmHJXi24fFFhAKR/Xn+RnsukdQKRDX2kc0nVAXgtf2gAuPQJJh8GaTZG5KO3C2gT1X7pQkyNdzbEWC7q+2lCYhtgvSokqE28yRK+ms2DnGh2iHYR/7HASOataDy1sMZyaRHgQrkQ5OOHl+vI6Fi0o24ILP4sWMl7uDwpS2TrENnjjW/fQmCETgp5CjTa4hZngEjNhBoaXGkTwFA2WVrSTykbpdDcbxrRUwW8j+Dz5FCFKsGiaCkquiBTOaHpyio8OwEOB/bPMrFpG9ZKPK/U9u4EH0jrRZ/eVzmBT9Mfi1kCFF96gjVBhk9PCeBC3eolQqHbFaX95K+dbG20LoHsaXDW3hdC9gOaMmgqovCn5lMBUjMc+8CgZVSRTaiSDfOc34iaSauCl7y7efMWTAAQeOlD+Mqf+HnX1xSvzMdJqW9dlYgNLVpmBVFPYE3osxvcA8Pa0FTB/suJ5TheIHQvp1mUc7233vpc942vf7nDrDo2xKOYXq0SX56Rb8sDRS9OgfhWJFtxE57dpRtFIxgT3/f15wQgqKY4RBMLEmkeQZlM6HP+SBQsvdZdXvsgEAD6RReKngh5mwmy9eAEzo2Hzo8rhgkIImAwbZDg0sPwWV7UL7B9nWYWkxzA4iS9JUvaHkTuPyM/zyzwUn9OxaxZiLEFxnwY+65Tly51Lx6Y6nZNObNjlgilrLr0HeuI41vDZ5B6hfhv7jcEhDHJsVGtZV7PRUPnjefY5HLiFG5qnN3aezDoDhLx3OqhB9nAPL8+AwWkvlt75HTHbfqK7m9/8mF3+sJVBnZdL3EiH6ft7cLO0M7Pgb8qhfroe5Lh+oitIIAUBJ25X7m8ENdWj9gk9dJLR3EptSeDYjZofML2Ez5hQKv6p/HKGzwj43K4wt3uvQ/OoUXmpCW0Dw/ZUFH2Z8VdkkbhoXXDPm8M9p2WLUuq9AkOOGoX/XtE+W3najPSX+SplsnVEnokq99N41/6FvsNySRxnxLETryMYr6jDqwkdtBQA7iwwIlgRCoQCpyt66dtpL4KcOJg13wfmpzFp+l//P++l2PM3WU4wVLkzl072GSIVpYQjQkV7PXJwTZmWRXwcDvE4K/WRERcNtehv8cnf1wQyxVckt1mc5hL1nppGEfA9ECOlm95hak8nihskp/lcvKicKmLJL0lePqjB+RI4wyy8mII3jCSqgaw6HnTaqAoOWUNeTdau+buqJVTgd76fyw0/gYZ6aA3BK/WwH5sGPfPclSqjeZjgl8LqxJxnJR5pK+Du/3cNjSACinyUnBuRRikE3jRQ9pKF2HmlCvwsZ7GENA87l3t3DpymDSBFDYeLg+Wzf8OGmY9b1CvCAZqMsfQMkbohBZ9sVtirqF2rr5MHZO3Qp0mGn73wAtPONuG0BQcRbIF7/tyeXFSdxXt7jlsvK1/J5rRTkJLaeCE7OOC9Za2Q2H1uhHBkvLtYkKkDfFWaOr3J/LWEwCbm+3uKnRxImL5NYkaZSIQM5yGPx/s10JI3vHEffszEj514VlNX/IenlWzuwvfxJk0q61M2zOlVCQWyTVH0DVijXeOffSd0CgTU+LXhJPISeGV0NDAptp4rsh4RLoTl6zMkJeeVCYnNnXHDuxGy+vkzni+t/27WVFTTu5ExBCEfAH48EHFyzOfU1J+jC/euUKPMqOBDxDuFav0lDARu3bKZKIG337bZ8EKIJkzAeRo9gVORbtnAwU3hXF5Ev1uYBvVYH22uq83/W9fgLRR+jfbhiY+HkO+HbOGCiJRfNzQ6T986i8f3+N+EvRVy1P5RUh0Umgx3H37Nx+exg5qovs6Z7WzOImNt5trtPAlNKp/1qj1Sejx64wjj/s3yMOmzp/8zp9adBvEjaVH3dvvn+6+/+MPM2Dm0IykNaL056G/+FhPefX85xekQOjXKgD6lzhFe6CzwFtQ95fff7e7eFXXMyP4b92BkDGNfddMDYhUWhMm7HyGg8txVqdjguYpHs97C22lJhL6Y/zKm6+yieCl2IPZpmrAGIbwtPs2QAA4Gl57TDp6YOpBYonDCW7QYeboyVV9Q9J202FXB5mBfAOug5zSWdag62Dh8vJ9Bhs3T7gRZpVjXw0KNpa3yl4aEDcKqfF0GVSflLfZeCFTP6Qjr2W3QS7rb/oOutHRpX5dmrnL+B7atwuXrnYnpzTTQPsTgUo6R3QbujqYQAc+PWSwPnvhevez9y503/ubHyP8osWc3tHtxeZal0gKU62umtC5HqGhJ3BTQ2ZdloYXkwQGID09eFKULukeD601iqeb0nAxhHZ2EcHd+62UT5OY2BXKb31dBJcn1Qs4OBbmMAOJQNldVp1G4J5Ca91CBlqylDINA7+1+1At9HnEhOhq6BkNrzvY+38KsWp7N4ZMuKGDvZV1uqLGDn5Qe2TYN7uz24tZg9/WcqzbNqyWSFNffSee1pXH+ar51gxnEvMKhatywWRcsW8l4DbBtyXUeOy8G9MUNrUBVlBXyFPgncRGc2PKBqHBVNg8e/ZStMz2sfK1AqcCRlWFECxTCxshVjswf+2AFTJiUoGAs4flY4W3rHb0MB5PrYeIe9087fUSdWI0BTW17qZL2/mYUkjHtGeqwTauVs+NYqvsyt/HgRPyKCggLLX22srxhCt5W2ZlUFcy5q/dyiTEfm8rk1BNgjZxDxuk3Vf7rzZn23WCbU8kj7S+wTbjRj6DGlonAGoZbcatvfut0cWuwD810zm9MMs22kdrskVpKaPljfBrwj6AUoKeE+xr5IOJCQ9T0XwJd3tsFF5YuNxdunyue/VFDuHQhAyzNb3LGIK35efe/Afw7MD9LlFaw2ofe1xDM+5TcoVo2sQykzfdIFp/o3i8OrR/T/KoWP5WPoOM8qLysq+9iIaXaWc2xGoepnCbifFQ+2p9WNG+R4rvvhdfJxseDW8emjPM4K1jaqo8PQSBAdVbgertp/338d7pF8XYysrswiuMQAcyOjbV/fF3/44GtIxmZEf32v6dNB4BO4BVTWfs8VUfUuft4fn1cQo4cEI/OwT/KVqlFdGI0yXhhsXg0w9++lH3J9/9QfeDH7/PCcxTaZFlL0SjkNA9sdUg0r2sveDuefjFKLDGt9DRDsUej9pxN/wZXPJ8/+0P6K3ZNMBgvGe3GlmEFTez0RlKeWt0UCHeGgARm67+wWX5C+fnGYxwtcVgOE7H/83f/XL3wr7puIupTYjV4SXJz/mRk2LSQKfYJj8PGBzUjh3jIIx337+AsIiLJsqg5iqCijApW0PxiVn0RfHwCJeVfXQjmnCW6YhXH7LUixYsgkhPuCThx8Gmc0lx8N58/VD0fGJ+T3mpdm7fvn3dubNnu5Onz3cjD+9yrDgdOSYVGlYlj37SlwEq2iIoghnQ4u3V7i+++6Puz/7ybxH60RZum0Cruwt3QXjVQLiL8PaUfNe9buWAJ3JaFLazaq0tkv5VZxCqXLo2WtjGuz7N4Mo3tZc3bi3Tb5ZdqsJcTBoYyAbpiKd2ciAESNShYBn1/9l89SqTxj6TZdnkD00CbDjjofRNAIlP4mWWvtFoOglTQ60tetPmuyPcMKDRUHmqp0FjrWAFL4iLBXZyMsVpQO5Mj40t71qyAAsX9W/6cqWJgbNC/OmzFzEpwB8wPOepUtHwI2CtladBq8T1RB60v83iy9ilCykFTs0KdrMbvZ1uVvmbwl7V0GCRjCfNKc6ev0L94GoQWJNMiErYtS5sLgpvSZika61HOPIib+jXa9PbLSaFmKwgbOzAC8FBDgQZzzHNBUsolX6tnQul2Xfr/WUSX3d6fpnE/ZexzcHswxcDRHjRh4afnxRSy/esy/pdd/TwwQi8jfwD3mqJ86E9WNgMMyGMAuXl+UXafdmAjuHJw8lvs83Oyoe0CY59VQVX6AwuYu4/T2i8hamJRNRzxe6dnDTmOMgz8i9BClRw7iTe2l/PYDdrPzmC9xk1/26O1M+t5k6WtaUa8GkPo+29cKXajWbbZ/ZwEuZidx1Xwu9/cKabgU+/8Por3e5pTxW09ggSmJCx1EoXfl3qA79G6WVf7uh7RcI/IGQcoC/SnMBeGU9i3fsnLnb/67/5vxHuZ/DksLP7b/71PxvEJxHw6l/VCZmZH32Yy3R3aAtnz11igo1ZBZN+FSwRbiGOOSZyrkM/ItwH49qXaM6gnb3P2+izp1nhmqHcTlgSkmTdQ//h0315ZoE3xLSMKTsCL3a8m+hRl+6tdj86caX73//kr7t/9ttf6F47xqkx+H6Utg44Ri8yy9qNcJ9uYv3nxE4WX6OT9OIvRLTlj+LfsOvOXrnTXcSW6w//+C+6jy4s4ONwK8p3hBpSDhohHBsXK7w1VB3U/fPfX4ICVgNElIslcvphwFy9cTfmDKubWGLkdCF39+6dnUPQGKfDJg0DjCFVmN/+IW/5AZynUZW9o35GL/FyJZshDqB92YV7rDGW1tw53JK3pD//Kq4i0SNvdnSIKDbS0Wsr9yj+cUsbEjvex4CK+XAAZrgJvQdqoRJ+WJZEKPFPwbkK5cV8C207bYswpckAy6iXcWWklknNsjF0+g8Rcs/Pzw3m4o7n7WwyOXvmHBrmrrtw5Xr37/70u93v/+Pf5pubSqyn+me70lXuNdrNpflb3d/96ET3o/dOdwvX2YSETejOXfRbe603hAiA12EBPxcNItjmwB0au4FKt1dqNR0mxxHMtjOATzEw91QYAGxCQHtx9epiNDayi3WkpkuhTh2DWniD+dgPm90gSAiC2iq/e6ywmi5tKuc8KQ4B0ehGM8+PDXy2+jwp7vot7G9ZbcARMUKeh2fggouBNgOlOBAvJivC5H+PRo+jnjRKk6h9pbztBqsZdqpPoU00pB2tQ6aHIB942zcwcX6Auce582hY4S/dgKndrSVh6gn44mLjNGkZaSNSkOcjGM4NUXo3cSXGgd0TAQ3Wi+YeJlkfzLH1wAIu7fuV+evkz+YghAvNXbRTlRaWs2A0SKQHoSqN9eXOlqofj3l2QmJQw+uGJv2daqq6Ro9KueZKUDo/6i5cnGesRTNJ+XnMMryrK9ngyLM5RoubNpQshn6Kb9R8qmVewnxAum1GcbV/3+y6zWFBvBUlDz0+fSl95RuSIyzdoy1xTDPL6vLfDG7rrJ+iWblAzPHT0GMTWvbs8uHeO4VQ4cjLTvD1aqIgu4M6mWUyUtpbi1D9p3eGCMAkNJ2a4Flcf+mP13q4gccIN99KHw+CSLusZP1vXzBAGoecwWFz8J6b258jfxUA3bz6x//+e90XP/9ydxhzst07ylbbPE1XUAJgUG8++aeyyu8RO41PXto4r7BKcfP2ve7K1RtMni6x2e9W7fs4uYAdt5tbp9L2aMWkbqEgmuMjxnfz96tv3bfjhsEV6DqFHbJeNkROIdY++PGyN5he7bMKjsd1yw9q6DV9mkTYV2s+vJl6OOVn5f6ZBd5QOU3XIsuE1Qm7XHThwmL3J9jP2fPcvfdy96VXjnSz2yeSxMbe/qpHMj1huF7rzfPfniw2mfav6M5yDT3MXRr1mfkb3dsfXuh++M6J7s9/8NNuZTO+GLfhPolW4GkrDx+yi1nJwoTURwaB55R9dgr0HYT+JRk/0wSWEWyuLN7pvod2dwyNrsKFWiyFMAXB5i7LzE3SAtUyCHZMLmnpWkYXM1evquFd7mZnZ7qvfPmlLLky8SY/65OO7xdqN3IRie3d+pCsKcMoLsU8BIIigNtmND9qSRQ+N4a1tO2LUJOKEcoldx/V5Ln0WyYNLWYVtHiZFHTIk+wu38OAdokB3BPJ9CagjZ/jtPRSWPhkweOEcam2k+M4xyYD6ybL1X/yH/8KV2D7yGOGzVozmBUgYLF0i1KXTWn3uo9One/e/+h8952/+iEDBqcUMRCNo7Hz9KN9mDOoeSu7Zvu4nx/E1vJJBoUIN2kphEgXNdCeoDWGFsnBqOgmzKJppa08Fjie9cLFy6RFY4Mw5RKzAsqqg0+Rm3oahlHphGuQtuZ57z7eGUjnADaLzax+OfvkxAJJ41f2Sbf+p4QQD0ZYvF6af6xdo1XVhZY5aW4Rt0/cJ2t5cgiIT7Kq5bgLnPAD95OYZ2x3JzvmLCZUEFybNgrBvx6xIMxzzwskz4ET91dKqHcp3yC9I3DaKNCMO8HPJB+abbLCAeGeEicgmx54+hyTMm1F+bRj+wymeDuAYj1Dl0EQjwreqbVXYLl1S809dKVda6qkJtNyyrf5SRszRZ9+6Nk4etFxJVT+cJI3oUmCmxlJURT0rgVh9Dh5y6dLl68ytqJJBW48ZtB+NTWJ3T+Cq/UfXmkgHrsyhlCOciGmqQlaZsZw/cW68Sp4S0fR6IuQ+w1w8ok42om7onNlgY2N+EfWjd40xz2ryVQz60SncEKjSb3IxsKTh31PjGSTjZ7UyT3MLOR32+y+WQ6dcFVCXDYEkua9AqU20MePHsaO+GR3GdMKNbyuNMkTCn5VEK8FKLgHCYHYFpRh2DxIPXji3qWL093N69jRc7jHv/uzv+4Wb97rvvT60e6VF9WCS2/6HDTLo218TVmoPWEBV/I9YNKrAO8qzwr8ornAIkqRu8sPu2scnPLBibPdO++diLmQLggfrmJCsB3zBiZ1wSkMBSD+i69/a/2GD7RxlIxq1ZeBvfpIkzI8sTAhzWohSNj+A4Df4SDVDcJTRnCCpPtC/6yTPbt3oe12EtjSF92GYXxW7p9d4E0D7AkgAzs7coBEs6WdyxIqlj/8t3/W/fRH73S//7XPdf/8m7+FQ+s5DLHJ2mTQOnyygWJVoRte/n1+pOMOlXvC2G7VXt3ATvG9c5e7/+F/+l+60wt30Uxhi4YZg1qX1RUaHA0hzsvRGqRDyWABJBpA89bw95msz1Z2K6MqxN8ENnq5Sep9OrC3f/YRdTCSJVJ9GCpsJLY9Njd2NOtm3LxO9QBITYcKvPkrV3AXpPumh8za7+HlYbb7h7/zdQZYO1MgMLFUGGRh5RcMIkAHlhUA26DukLpuDwPLNmzgOjbG3UfYVlhVM2AnGFxTAJsucTYE+cugvV42SlBeg0efXsMmbWW/gkRtXBP34A8cNVk72YzyAq6YfvT2z+L/UQEkG9c4CSuDfCMMTx8X7JTdeOQRncdefLE7f/5Cd/PaUneaAyT+x//5f0PTM9W99vLx7uihA7GFvs+pbD/8ybt40TjdneV0pUcjCF7Y7U2xaeil48fjj1VfmS6PBuMMYh+HQX0rdIseDjRZLtazAXTcoXsiJNdQ0J+K1lOkusWWg8e86mdWfnBJVps8hQf/+OF9G4RIMSQJtNrxu7R0aVjXXTvZeHIEs5UJBNVkSMRk3xK0jHP1i3kUn0YwYvLgYL2Cf089hGjnmIlJXOMh1FDWaBSTsoA5KkSQBb9V+OoW9tnaaaux3rFjF0LmNOYi2Lw5O5AqPT0q9ZN/jaKQff06Wjwm9ls4qW06GwrVvKLd9V/qCnjSJeWTjxV2i5/VEK+AR/iMOEZ3cJ+b3fuETNcjpRmENvVLHKpi+3DDmpvFCi/tURV0xMGMk/kAZgRwnmrcq2OWY+MN3juw85/duycpTNVoXwL4AAQgEQ2htRruO9TJVrS6HgUcgRt8pK3lBotch1Ku3Tq5oND6h9aTinTLpIWZu+2x7LH7cq8v/hqMDXfCUDPoCV2PPASDyb4mDU4Q9PCVzW8Dlu1pI42Ar7CbgoO/k0Ntiu8xGZBn9GsboauiDija0AqZQ32mYsgWn3vtle78lXuckPhTtOd3MqFwf0DMb8x2QOG6SzEAUnyq0I29PF3PzPYxDgk62p04yaodfbFC7//5b/9D952/GO2+xD6KF49xBPC+Pd1Lxw7jDYH61w44dJfy8DsTZ3HUtZq8qs35JTyuzLOidOrshVzdLKwd+ggrgaNMgrcycVtZQUtPm7+Gh5mgOyixmNpO/BsKtNEbuJXTtZwTMVcWLauTZPlEXOSHx9IJwn7bv3wnDvk6KXUS5n6DQ4deiOC/IcehzD87t78CgbeIqPYjzcuRV1UXGsVVnNtrzD86OdOduXan+3++/173PptIjjFo/9arx7qvvfFaxymONcDKFQavNOYaMHwBw1gHucsTdz7x50YTKsn2076nUnwYDqJIaK/7x3q57rfFGH5ZDFtvwjbcPgFCQ2CQyzCMdj+UrmXFq4a/s9PkNvjWx+fZAc8O2U/082yEut394J0Pu3dOX+r+7v1T3UdXOJ+bwXuEE48KP+MbG5jUiZudqo1IT97T+7SOdwirhujz6yehgIwZ/pTOfeDdD370fvfeR5eZkKAlxNZrEo3e3llO1eqX9cLQqUnqwspPKBj+2mGqibjPCTfzC/O4HOJYWe5ff+VY9+Kh3d1ObPVY8SQtdRyZ8pepQdPYfip3pI34K5gY4wVucfxkH6hWQoHGmb///J+JU49/S50r8cVdrZWeCEZgWHnv7r2H0VJ+7uUDaPNcejXfQMPJOgQg3TQCz+ye7dyyvMqEWd+99xg4t+GzUhjGaZqIdXkOHlpB7A90Pr8Zzexe8H+AALyJicOFbuHGfdyN3WBS+A6TkdPg54aWR/i45ZjcmxynihC3maX6WUxP9uBHcy8219rberRsCQJ61kCYoU+TOKBEaPkOEBnckCzBScNN/LSqfdkzM5pjQ7cxGEnktPfEE1rRpFJJCXysYtR3C02Lp3KNs6Fqkr7UjkBtWSqoIift8LPfrQt9EbvTW3MGJ0ej0HL/bmy/8ZgR9iWXUevDctR/ytXXdUqIAEt+9jnuvD93aQFhBLMV6FvumMojwkAwk1bitiGkdMB38F28vghP6PJupduOiUkUiQhomq+sV35IGP8oao9bPbtZC9+zCJwoy9AS6jpqMwLRDCSgXvryFBoM9kGncIKzYeqCoheSm5h6LEEfD1rwgIQpNP9T+J4ytv1xxezpw2OwgW/uUJcem31bO1XilV02piIIGNJdPAztmgd/AOCnR5RX4eqh9SOvo4H0eQ4t5v45PFYMJ0iyooOvixYI7dTLNQ7euHsX+3g0q7rOKxMW+QoIhULar+3t8SDNaW+sHN2+7eYwXc1pTuGmLUxWREIYPc6B0P807s9nfrRLdYzSRZtaVQVcaeo/fdFG0CWecRoupXDJS7LxX4CHDvKtbVNPDwbtmvdyKlnF8E1RaPDsTQ97BBvcPTtYNdhWGt17yxzCcJcJH5PHqcmdiCe2rDBO8jSpQyLdKc8Gbnp6bUEI3cUqD8WhjscwuboMfps5gvlB95MPLnRnOHJcE5RJzAfKBVsdwtL6cNNFe675Av2A5i8x80L7Xa6/UGSgdBhFSJ/G9KMmGavd1WjIt9D2WTEAo9YuxDVdfo+ml2ANL9zAPd2i9v4UxPap7a0TDldC5IhWpkoz/EstybP8czXtvitf4CoxXGXc7SE19D2Vjxi0MHzf3n26r88u8EKotWLLLlUdm9ldqG1OBisGEYl4mk08buQ5fImj75aZQU3t7GYnR7vtdDI7sBPxzG1X+SR0YNKRWUnycSqdT5UXT2aVn7XcffNJgkl/8VRPgRw8+m+fFHBLw9XbVj5xGuBluelELLedlza6N28zYDNwXqexnbq82P2HH37UfQQ9f4o3hhFm0QoatfSrkAJcNwLR+NM5ZBDg1hyC53OBV2r8aoJdNXUFXW+zWeBndISnz+H7lXobwzZxG3aK45g2pB6MZy84FOxsakNHCVZZdqOa1PosXMUVGRqcTTinf/NzL3cH9k53U0i76aAzqJZgM8Q5Q5A/7pYBg3wNxWMKG9qHIuCEZfjGs0GB11CmGGGeSluv882f2gkMX3nPn4Onvrnv65wfbUErt99bnBp4RhgwtrEzfTIdtZuHFBLdzLN1iycQ0Y9k9CVhH1L0oF9lCEQakm1JoXUzQruD5P3lnbH7u83xpC4d32MQvcoS58qDq2lfI2izYyrgpiPcomlTuhNN4b69s2iJ2REeQZ8lSYSjGtTBXOQJWUUJbaTV4HW+yQ++M6QsaFe9bmVg241Z1xY1cMLp6yAR82wya0RzJd2JoR12yZpuNby0dYIkvcCbREZV+KnM7DMy2HL1zHuXmGM+gKC+iT5AQXvPjknwaMMmmUpMylnZh9q5zyBpR8KTgsri7WXsodnBQz/tCoMbe5rpSi0VrxcuRU9cTN+u3t/BXtWBVCbeO+OEojiw6DUgglGTzjf+GcQymwCh5000Y4/gL8tewjcKFnkAwb7FLyAkpIzyhnj4pwW3nH8XnpDfPNxlGs3aOEKCnhsqvb9VG45yfXUm3ZLmDMtoRlUkENulewUitWombrxe5SZKC34jf9nGNA/RXrpkrzC0whi5c+cUB3Gw1wV7/bb60pKKi0GsFE6c8F5jRY8qTvm1H5YnrasmaJNVnpMoqdd+ogXmcWVFn6tsDoMeW/E/rHdAF2Ahg8gmgXAaDPNfC3xIPOqeatRrxAJL9OoUi8NoX4zvgcL36inFqUGwHPCmtJAmRDSt7tEe8EITGPufGU4j2+1BLYTA8ncAY90t/Q4n5XmKGZMp9xM8ou0uLXn88x0mRXM84/JQfoDGauGjOJBm1d0FxwZbhd0kffejPfAMfO/GwrvAucck6dLCHdoDmmxgOWmRB60Dbcmrbj30Bvt9xmzj+L1pmK0nhdEt9G9bUTLox9cNZtpwa0owuvlqNNtOeFPMnoC24TUiuPqmJ4fi91vEvXmH/Q/w/xiEjC04plNuxjOkKedu/U/1GfZn9CuMMwri1nfqnKv29fqmlvK2VEOPRT18hn6fXeBlZ3W6SDstpyGe4ISQ9YiOYBOMt4oRNXTMLDwNjFn0mXO4CvrobPdv/vCPWAo40L1+ZK77r/7gG91rRw/G1tEKdNYP+Yvo1LgETp2H0W1Kjdv7zt71X6UAaql8/tppVSdVaX2q4F2ruP5Vf2kx1t76RrAVeMpDS+1z++ZVuMMdY/ssgP7PXre1dnDNPz6FgcQ9nRWdEKoLB/n7cOlNZqcXrtzu3js93/3pX/+we/fMQnfuzOVuNEIunZO7cuMqxY6uaKOI/Ih3YqpDdE9XCmbAd1DYTEfmIVZRAq8rg+V4Hj4pBazKdAxQ+j7C1KkzV7p3PzjZnaczVMt5+MiLsQNV2+EgqGCglrA6GQlvnTX+MFe0oyzJu8nJjWpqflzS88Sxb//T3+vmttOBh/1cliWt7JRUpn22IBoKrWqJ/JNPnem7TDlKu3bDloNzBGEz3RDkL52xb0HgVCPscrdLpZbbTUEDzV9La/HtwLlun5nsDh3Yi1aCyTF2lm58uYYpxwwuwTw1Kh4ONuSXhCbeELIsSf4eArCfnR9zHBaxG42tXhvcfHILEwGX+U3pIKQGfjfaXDe26N3BQcfgd+3+FESW0ChKaPswjxg2nfXWlsNbkZLQtOSvNtX61i6yuXfz+NxDhzEpcAl/OFiRQ8Eqvn7jDtrQ6zk8w0HfwdIBVXo60FVdEFG8+rThKztc3jmAKfC6LOz7bQgzLgurvdau3+Cwn8gDCHm9/qcYnMnXte706TNJK82cHCjQWTZ5R9YoXl6fXOxGyds4Lv/fZZOW9p32lq+++iK0GNq8Z6QNuLSyBSr5OYm6jacIXTe5aqIpgYed5GQxIicfBI0WhFj9dpV2kxowTt7SPl3fswormhu5IuAmnxw4kB7ZWngcH3vrm2h3r1zBwT+8pI2sJjzWj8K37bu8UJhxcvdmEGLqoK0vbyI8YSJio96GlKkpwXZMPJKMzlnhtcq/jgrA10yGzWFXLnMt/BW06kQ8N81VHzPI9Ak3jgijDLROiFxyl6/2cZT4gT36zrct2x9UwvDVUL342pLlvfxhvdDfLdJmT585Az1rE2Fce5HHCHUmTtJ8Y7C9mlFGaMorX6sVdTPfMu3V/m9WzTc2+OtCQ4KXpi7tMRNtZLMDbCp76fjRbv87l/EbfZE/TgdEENy390BKoYmYGn55hZZFXSCUI+xVqYZzsR/BFpb2OgXPHzhwgA2uV7v5+QX8ol+OEC0NNJdQyPXe9qDwbrB9eGqlnOe9dtbbEEInNE+Cb+W3nTt3cWTy3vDOLSbmJ0581G26NEL577Hhrm9X1U0W0KFf23gGAd5dooxX+LNvMo8x+t9teqaATh5oYv0+Pdgm9Kqj+8ubaROaXXkK4m5OibOth2HJ7rMcnlngDZPRAUQZBON6KscUM+W5nXu66zTIc2fOQ/CtMABG3fHFq2CKMTsdlFLtGZzcX1pc6t4+dZWGtr3bMY6QMLe7+/Ibr3YHdo5hrL4DTc32qOeb4GmHERbnUo1OPwVrHXh1awjaxIqWIixuk6g6q9SPV5vv1wdTbHw7nLrnamK1uwE/JGl7ux6qnYPBybNzs81hROMyQMGT1zBmP4kbqhPYFP7wQ057wsfiVZZcr9/kyECWXx8iEGxlE5Qu4MpODVi8syPPYL+63L302uFubHK6e+edjzIoq/1t2CjwDko1uAlKz39+EQpAu9jPQliH7xsMGn/0599j6dcZPYcVsKHh8KFjdIQ6EGdnO1xqh2jwtwaL4lY7w3qubw9cEUG4cCzQX+p+dh0f3D/ZTTAwZBCyFxvU3eAmsD/5j1iYtiZDbrpwM5UCXwZuMndlRi0FIkVwzlL5gJPW52SHWuWybAq8HnE6msFg/urVLOUlRY96YW2LYbkeDcLc7u3dkQNz3bl5bO7YzHHi5GncMx1iIC0M1+fWnoqe7alQU+jQXKEfXKHtLgYVNxaZp2VwULId2hTVAikc6xzfluFyapaG4OAIaAAAQABJREFUiav99Pz8FfytnuXpUXbiv/ra6wxULJ8rEVhv+TfAIDdZruWztHOQz0DIvbywm8NH1I7KCuYv3aS3/8IevJN+N1iy1yWdmim9IqgFaja84lICwvp8pUbrJ+GU2pDECoH2ru5en2JpUndHCjqG0nTm9qk/llN3kgsLVxFmzpKvQn+5eSK3PKv0EPcqk1ReC4239dFeS9VqNU35sDuwj5Oz4LdoiAslPwyFdQ9FcwZ5j9L1iGNpYPpRlp7l29rgWMkHbU0QEoa46QdBUpqvoKVV8++mNevDwX0STaKeVBK9wKz99nAsv149rtAv2wzNWy8NTszEx0mSExInR9bpxmDdFijqGIFZ4c4wzdK/7ur03iHNnoxEQXPisMykwZMXl+8TlwFYH8Dyrbi3v4rt7+Mlsh2oDbdOnAB6hOxuBO4jR3ZXH5M0wjZ5S+9DBe/k2+GgedDleVYBiC4+biSUHnp9sW4GYEzUJw1kZTEY1+/GU/Bzsj9Cn2T79LSw7dtrU6LxB7nmhjf8FxVkasbFinDk0L7ut9483v2/f3oB4ZHVUezYb9y4ggCqH3QiOdmGER2HH5L3iJX5hOCEQMQ0EZSn9DoxxUa8OSYHTmbFRz4yzkCo7+mi8O7GTnk0K0n0hwqptcFQk0/789ocbDn9pq2+K+NOanTNtqxLxa36z+7xy8Vc1+gg+a7RJuwz5MNataLjBI8Vloqy2ivVnlhE+x37bje33gcGK2D0WSpeXCXTD2+UABl41kA8EVSw+vT+PLPAq7o8XS8Ms4ot0OYtq90OVPSvH9jezaPKv3NjS3fXBslmFTsZmSaaKRrsJgYgO9K7D3Cbg0eHG5g5/P/tvdmTZsd14Jdde1Xv1Tt6QTfWBhoESICgSJGSOBptDCk0I9kxUoTD47Aj7Bnbb371i9/8D/jRW9hhP9jhmLA1tjWaEWVprKGG1JAECYJAY2sAvaKrl6rqqu6qrsW/38mb97tfLY1uAqQbXZnd9d28uZw8eXI7ee7Jk2PsvK/fBebO6+nIzEQ6MrsKI7wNmOyM6J+e5s4dA5C2H39NOzRUzguHL07FMSOVmKaFfERcE775oz9/21nsaw2snDe/5F/zbASxyQDCDhqV8pVEuwi4oHj39QwT2AyfxC9zwv/dD7kp7dL19Pr7NzjxP5Nu0/GX+IzCeAg6lmsSARXIxAKNCsMAJ0b3MjE8dXBPmpg8lM5y8hMVdhZ5aF9mgqg9eIDSuqpshHoN25ACIZmQu3CBY7Lwc9J7fL1YQnc9PvnSvz2wsY0NnjZm86TS6wcBlFfHg2PDPuUiqb6lksgFDtQsIf3ZiRmp40gstMvJ8Oi4z6r1nMiZeMEj3wfvimEY9bJuSKxiASc0NljRhztoNN74vB1ptKnqJ+98NarSrlvMBVbRSjpmo+MV9K03ZYzSd48d2svG4S4ML5s7VHfmWYgLI5FzC0IAODp/HzkIyrCZWyjfsZHnHKTW0NVPhuKSs1tfP+HRcgS48HgIS4mtYylsovL00JiLr58ZpYMXW5jeBUEmTcaExzpnUEhhGwm58w0pYxyq6qFzLOenHnK0cCQIeqoIDOJgFW0wiC649JQpt7wy7kmW/ZKkyW9JhTYuwMHM0L5xE1isgUqLmzIDg17e6IMlLJ4ZF29885rjeST227Ar7eZhjA1N4BIF53nNT8C6wmwGs9vAsS08+KaThp6NVF9WlzfuMkRiT0WsWOuyPwdFbBzyUb1L4Yft5QIvE+O86tW4tG4Lw9yZNG50HIu2d2Z6ZXYDV/J52cQQSNkXej3LnF1cYrjzSRumjDlZ+g5StpJmTW9Zx9wvYHbBLbdTW5HWE+GU4w18AQO/17d6o1VY72hS9pGhzQ0OVAN1UBgUv7BKQ60TMN5A1bk+Nqb4e+X310FQtoH9XIZX6wmgEKpFmmUDRGYcaeBoEyMDWIHjs6GqzcWbpF1k/dJKgO2nPrPzieoJtJJFBk3C0/wEdYP5lOIZnrj7RcjNorcCagFBixE0c/Q3Uek58zQ4sr6VMeUGbx/qIcexVc53FnhbhQ2o5dy8FioWIyNILP0aCtNre6sjzySO6wOei8lIRjsZ4Dh0wxw2bqGP7Vc2bdHHWadd021//7yNUJ5Fm9P2kyiBcPPkceJ8AuPsHMy8FV9f8NuP1PtXZz5vCJsJI2MVv7GxbuY67VH7ZcxmikPD0NV8/ou5joiYGzr59YJKOKvpnKWU1z6kTvIeDrn6pTK+zps2J/3c/n5qhtcGiz862wq7RQ8QTKC/+8e//fW0CsH+4vs/Sf/7n38Xcbu6Uk4OyjQhG40hge2sSsmG6NTafrtF4MdT76XvfPdNlPAn6LTj6Znj+9MTB3emJznlfeapk0iCvMiCzzd0ZD8DuSDm0ZnbwUaRD4nmyYXkCNJnfTE7zprO05euSV6at21lEzUJ6ZDhfBBUkoT0ubz0UkeuUoRS3NtMCt6gdBO9uOnby+n7b53DbvGF9MFl7W4iDeNT2zI7s7idhnHpFOy4pG/jbyZSe7ZlrKBkfnceaTgHfzhd/o//3T9Kp7if/hpWGv75//Ov4lO76rwFSXPlXa1LMJ91+avuZ6AAM0W+DYeJ9Jr2E6+mH/30fSaIcT6Tj6ejR4/GLllGT+nJRq5pwmhT20dGKj6ZTX0cn6IHSODVq7/29Vejx7a91j4W/czRFJ6NwN87rHTIJruTmpOwC0ADOp5Omk7wxkeWQHp9mU6SRml/QOaxfGL1sgEnbsBEfzNnyR2miezbwN6JRPxXvvZympr5Tjp34Voa5quQNy15IFbTRubqlb+2ahlixDP4XcxdfCzIRcfF08VEv3GGy9C7uJgOL3/WUQmdEhF0faeVaH4Yny5j0Sef9RuARrEY0yIuIQFsDTqmVwqnnVeZCSeJWPRCihMjuC+HcHMNDM71nEcq5RwhQ6JetRIXF7Ji2slqFGf+cE2Yr/7NoxozM4OVD3DRlqZX1qo+Is9dspSCO+AClPHSS/RvTt+BkVkKhtv5y8Xe9s11gya0X2yqQaSFKw4NYqoNLNIHtFYhQ+MGZAxa7EOfOBZUCjdnMB9Revnpx0rY/k1jDmwKG8VSUkmi5pe0C6xepgxtF4cCyaf14SdwWPTzLVI/F/i96FU/+/Tj0Eazmf25exgQTl5hXLo0Rd+4EGPCTe0oEt4syCGJEzWubZN46/+xf7mxVV/S/ufXFfVUtTdrOzXcV5up4BT4g4YqIZq10gLBthFoSPmaPRT16PcWLq5AwLehs22iXcDD8wLq0u7XWsoRbPCWRcG5ICoivC6sHlUMd6jNKUWF6ZpTxYINkfaA3RS5ERGTkChvhAnwo+0Zt7FRJY0HLRXw+MX4+NHDcS27JTakXQcltys4Bpowk0hD92HX+4VnjqeTRw4gRFria80s6mZvp2Hmmf0IgwZWtHjimGadRSCReYJOvfpKybiZvlVjog11qpEoNSYqt3nQ3pgcYLiI+YjxkANC8mpg3vAo0WXjQV4lvHSi2DgsYTZPRtj3oFFAEZ4uAEeZkD9d4EDp5StcMc3cO26fhP4xZzufOcH15TV/x1EV8dAkpF8c3AiOc9HEAWjoRR6qQ+XZuz/PvUB2Uj403k/N8GLIEAJTn2htGoWZecXZmYZ7Ad3cJ7DI8Pu//s30r3/8HrevfR9G9gdZ8sFiMTSmjTgnOfLFiuPunMVqEGkPp0Q9xetd6d9BX+ZvkJJF85LeTr8DhvfUsYPpILu4Qyj5nziyLx3AhuJ+Dpw8xqlKJcHeAz7O6cnCm5ITGP7hYmCIty+Brn0qwu10sSj6SjzLIf+UGjgkWpaD94i0qhkMr0rzHAYuVNcwQzLFILuJvpmnOi9fu4lB7utMVLPY/fyAE8/YKqQfBmT0nf12G34RQdrlKfKQDkb5fP7AZJIm36y/DIgDVXNSSsb+4//k3+dGu53pCTYFR/fvQvVhNd3gilRxdrFTHzgvPg2yRlT3KSlAD+BT8xK6YD/48VvpB29eYSPBBoxDGrtYfFRnuLPABQY2mDuMZqLrL5S+ZYfhx/7kOPAk8NS1KzAC28I27bNPnUhf+8qZTTYmn74hA4J9HjwnWHT9fCWqLjpKmpVC+Qk7Orbdh3SBc39FeJMe6p9rc3KJhdtLCWCYWEjn5pc4dHk7YOXJM+NNbNTbgebm9Qtnnkw/evM9rjm+k85fuZV++sbrodf4ype+EuWaywU9L3CWl+FYtvg5UvU7hgOZJn0JiwUuYxp5haWE0Mk+BhZx7pZnb82k73//+1GPmA9k6KiHxYwzt2gQP4pk/LYomLfrqJO0c/GQMfSK1Xwwzq9UvXkkMLYa4u8iymLt8vTTt95BjYlPlHwyF0cZTKVLSoN069vA+SLPpdZTvFSH+PjKVXBw0zDOpnh7r5pWQOf5i00dLQRKb793LqwiLABnxE+uzqMUUBbheFJ2hK1HzEKCObuJhQaZ473qLk4g/eIApoxyO/nG/FrwCsq0mJnOTYvYXr/O7YOYeHLzIV1c3F2sZa7MtZETqmPMOTa+WtBHpaVt4xDdwwIvoyfdejAaXAJgxsffuCjg/CU+NXvdtGpAI/FFRuYnyoAGsenakBYAYO6WZn45UMpqb9jPoSwtikT5QZKmbAostBacuM4ylt7/kPJRE8xzO4fuOGTpLBJF2jYiuokTnvRUN32BjcgdJINjzFsT4+h5o1YhAfKaVwgiQhlYH0UsxLKIuoYJrY+xG33Fg404NyLqVpteybt6vTEuI7b3Y5fPmwW+JsF4Sg91iv3C5TB54fln41C7cCynW35+E4cMT9rpfHiT4UnMQf7xH34r/R9cgPW9H78LU74tvf32uXRl+7X04plXAp+wJoPQSP5AotmG8h6h9kBo0NGCcXkNbZ5NYQWflt4FCTOEP2eO3yYu4EQGOIq2zzKq8I/Bs8SmpRkLU/ANIwcmmD/yFzPB9pwba/rDPBt0LpxQpWEH5x6GFQQyNmTOZZijqIJoL3P4chz9gTayP1xH/cwN0PgYh3dRMx1j0xESazte1zFPSun82414eP2fmuHN1aWCTlpR9YaBY1Jzk7gLIg2PraQvHUcR/0sn0ySbl4vcKnIJidgVbkBa4ZOCJlUGmi1lML4yfH6ecIAAUwZaUyAyxiFRoAGXFwfTuRvYPMXkyEc376b3WSAnRtDPYTKeZLc16gliajfElZUusKG/xi54Dycux/icNcRfNJaTKJ3MzlF0aOyTdoLSvHl3BAPA5OgnOaW4Dg4NS2s+yWs23anPIpWdZ0HwNLZ6P/MM2FmuBp3ns5P6VtMyvgxk9XJuzA2m2WUY2KgrZVGnMIouVuC2ze990C6whLTisAJjJY23MVmqi3fowJ60f8dwOnlgd/rSsZ3pGCdTD/oJghlkMDYipU2A46wS0Hzm8uCTN2GiIkn9uQ8KSOHbWCE4d34KpiBLfDSmr+6ahr9twZhQYjI19XrXzIEx+aq35kR/m4Vw2+pdpE7H0mOH9sgD0XxKCl2AhNG0o97PwMnE+nXGwzvBoAuf/zI2OhdInYu0HEc8I6Tz47ggWjNe5syMaT6J7hi5yxcLJUEk6awDvuUyhDSG3tKTp44wZga4eei7jLdBPsmPxKGTQ9jvtu4tLgKzLItzUhdAYJZ9Bm/qSF9gyey2m27yz8zcRF91ivGm2oIMObXl6WEQmbWio6lf5qbMD92yZDz8J2PlxkE0lc76mbBgavqMaUMT3k3nUBW9G9NalkDqzBzhp2GdNG03rhGy9qfpbyxG4umC5+ItqbzRbA/qTtmSS8mXsSm/JdQnKISzPD9Tq14h8+u8LDOj3nMwYsTn6Z/4aPtCfyAEkEwLdTOVpsr8jDEnT3JT1UR85mUubcoKD3l8X4uT6631WASJW0gRNfVGg4SUPvdb4bBegI8l9qibgQfM6KAwNACy3f1zTfGg9H4EJzRPuJw/kM8Bza8wZvkMyTIQa5c4xsl8NkHRh2wf8accGWuLKy6gNSDtOcuMZzeUSvA9BD/Bj6rVeTT0xkTJH0/zA9MvJldYR62/a9cwTLeCDastDTZy1qkXZ0JwpO5Kec0nffci/ffiDbcFbi4EZR3ymOvAbbwZZu6X3qx2G8sVSnoFqBTfzYBlml8GO/fdfuxsLZmy3Pc95JmZXsfeCPOBZrGU9FqkVAHNNW59iAkMHWPMPXliP5Lex7AeMYPK2XWsJnAVNeoMV69dSnv27ov9nofq7lJRy1CNQue43gjfiHyAnyBVELE/U8ytUWbpr5QN0mHODY/9ybHmvGl/DbeuqqqlyFswrhCqePeBahPjnPvwUFzMJdECYBH/A5s+RGwb/8nX2IeUNOsmYLy12z1YeKUmVw8FYfXemuiH+vGpGV6bKnqJDUcHic7iZNt0Hq+jmxheTs+jCH/yscn01S88he3YS+n//cGb6U/On6MxyU5nS3xe8D702GWFeoSNbydn983nEQ04O/5UYjfcyfwaA37K7Y10RwfHq1hXnZEZPOVmHZneieYgwCFOYT+OovkepMdjMJTxGY6O5EKk1MaTmKpHROPbQXGhyA5cJ9FbfB6c5hOYNhRdBjGzylWbt7ipaZ7d1Q0GkAdcFkLS4ORepMS542Z9Ghl74TtRDYR+J35JmHtm1MUFKe+okFbQ+WKHxuEhGd4VPruOIbk+iL7Xb37xVDrz+MH0lZeeT7thgGU0YpIC71XpIVzCsofA2JFJH72kdQz5t8ncSkx1n0AB56HZ26tcNHEx/YQDghoN3430agcnc514koc1aFt7Ey2xzuUJNX9ad6KZQ19UnUsP1AyucqPPi0+nZ5/w8xvN5AAIJ7QG4maAm5T3/aB/i58nkpUm6nyPhTsmWxclFkjqYpfayFlL+6pqGPwnnWPVhY5RTD4ZpjJvB9oBx5+mXnj9nHvm9CkuETiQ/vSf/QUb2xFOwntr4wWsKGBiDCZLxlNGRRhBPz3x5hPX4BfBOaT32wSKq8PBRThLeGUsxRs7sTeupwvnP2JuUhcvxwvA8ZwZXsdkpkUPML6mXMOsv++xeMNQCNuDUWHKi+rmz8SmzJmEpy/TLNfGW7RUfbLOO+JSgd6BJHO2rtTJ+bfBwTlSiWdIMKmD8+UkuuAHsWXad/YFIE32jDT5GxAteKcmzU0t4RGO/do5U0bP1NEGQMl1aCoecPHzP3ACqIy3Fi8UZmi3dC/qAzIkFphzdQs3pN8Fw0RfYT+IlQSEBjAwo9u9zhdJInqS0ty+Zh+1nVrXgALTBle/XvAZH0AyfCHlB0kP0G3n0HS4UnxDjPyw1yDJvD4djF1eq9ykKcmE4SVRjHUSBS1ivm0AkC9A8hMhcpc4Te+JxwR1UNXErzo6S3J/mzefEZTz4xWs+t0fXUTCzaZa6fbExPZgnD0kGuXkLH2/GftekPW2j6iW5YZXPVmZy0MIUFzhdLlX9vL0+xzfOcRlRF3TBZgvz6O4QVOvWgsc0T9IaNusc00QrWZPYrzlDaJzYejMAz+rNMC8uaaqi7PONUisDQe2akCnThxKX/3y6TSH4Ons2W+nORdG4H90/v20m4OK3izpFziDWTVtxB4k8M79uxcUvg2qsibFmleAr81T0Ca8bRuqF3WM/qF+Ogxv0CIwCxo1PaiBn1UsvOiDLTntqMACFQvmC7/KWaRt6NdguJnwr0Es6udwsT84r1qec58mFA9wM6VnDlx6bL6m2wbUCCh1WAv0IX3/1Axv11YgXZpqQnY67ZCLh2RxdEItie4NSI9jVPsYp7F/+fnH0z/+w2+mt89fTm9fuJn+9o33+ZR5DuYRKQCT6wAT4coKUi5awnvCt3FVbhAd2LpYnIA64JbYgjAar0U0G8FFyni5BA8waC7qOgfBblybS++8e9HczUAlLYPd9zyx5AUt4LUNKXAHY69DaBYnA1CCY3weFLGwM1UMcL3joFcgikvAbzoxE774BLCgFflc7B1sjrYcER3Pei+jFrHCBLJzz970xGO70plTh9JzTyDxQ43jGZ4TGOV3UpGudkQhuEGAPQ+6CxttJkKlmX/iiiNh48vv9fcTKZAXsNzOMiU6aaiB8D/5s++mS1O3Qo/Ok9bHjj+GtIYTxY6B6K70hZgpNqa6hwmdzpT2aGboFnZKPfBx8tgBJLxHsdAA8xxF8hNtV+AAtyASHl9+dicjOe6hmcZSg5KFRSY/JXKWGAuW5WxSVmx4Y7OamcQ4ncz43IaUdgErFTdR5bmFDucEF2dAmUA0988eTEEfQz1pNzdw/d63vp7+/F/+gM91t9GZvBjqSfv3H8DE2L5mXNG/y4ob0B7sJ9rU4Ucj3WYze+36VJQzOzsTOvSqIkywgREnF9thFnGZz5j4GZ+lFTYqVbRsHRfukJiQ2C9IXlCgakPuD72cbTWa+cRuc/njKTY/HPiBqVGvT4lZ6AUT19cEzYsLnUhZL+dAD/4ovYvymTyPHTucTp5Ar7yjThGV6ANmrfoCYv586+zbtN8M9ddShBYt8mlzmdCS3LbI40QcrFv85DASLS7eCTrLT+yCuTt8cK+JmrR4JEJf8bxkEFGGGw5tEl++NA1d1LdW9WYgmKo4QGShvA+ERCpAr/uxTQR5h8OIt1H3ULAgc7YbdbhdO9lMhQ4wCMoESQZB9pMj1Ew8LKb0TebET+CxEbJi3bSdjGX+CITAU8Zf+7/ahpaGXjf9/OlnsSaCrVnerVcneyDSoBMgNFl1gWu4KZgLSSbS3tgMIjCK8gvRIunGP6RzPN9ADUG1F8fuHqx3yOQIIjZkIhDwbFdx2hiUpdnHLly8mK0E8Om9mCVTiBT9sY8wHTjANJ4fSN1Id2ljGS+L80vtTurnRsD5SdpkRDZBpgM6V4TkZHvumZOoCuxKFz68nN7kCvHr6OcvrXIDIXXfsxth3PGTXOXrATelnNY1PwW34RxzH8V3UdnIH3WknELX6JvUb25ulrkiS+7dMGsC7cAeNoZhpUJqW3j+84yAB4I/4kZJ5wp1pz0cF8IR6yBtA9fc77O/Hxvp77TjV2q/RrnRMJ/qVyfQn1bVLARyrGG20WdQ9X4EfoFvn57hhQBSNBhTJtxyf7R8Hf3Mfky0EzHMJF7/nPiHkYB5XeAOlNofPziXTh/dn94783i6DsP7IYe2Prx4Bfuzt2GAMR3Dbt5Tl8t8OgYQ8CB6tLfMMGUabEMQliWjEQlWeUEMya+J+AtD35EeML2eJoCIzw9hCYw3n7GQ5PxhpNrKhbPelmVW4vGGOkJ4DOTdGQgYER2Ss0wrJxDxkiNyDJt/EGPww/ypd3yQnfYBLuM4NslVk0xER/ZvT0+wU1WSu1cj3EhromR+2nkWvxKYuICilG35YX6FJdQMMmEsCJwvjL8MxBpUdy8KtH2lSWR7+bn42nVMx70OM0Af9XrP/ZicmkDao2RBm7RM03SD3J/MYxP0O/oDgaoyhL4ldhSV8O7n8Mrzp5/GhNQEenUMU9ozXADwpYHU8TYpPtWD9ZPFxU/vw0iROGgKw2Q9LU4823LXlBLoNbjZHx3nMmgyYdbf60u9QMNrhrOTpSODjIVOL2y/Y1Z1ox3j29Kv/9or6e1zH3NF6C2keTfRbf44cFEqNRmmvbo6bVF4S6YMdD221sGxqPPhTVdz87eAfRmTRdq8RXrHIqjtzNMvfzHdhCHQTI/XdsahMxZgc1paLCY81/YNgloXlhogiG2vOoNm38bQk4wNtohEvU1OP4h3mDokfjfucC07C5DG9yc4UZ4lvJ7qbkGv88RCLZwmxpvqsi5iNnWkDWD1NNsETTpBljzrgBLg/HT58hX0+tA1hcnTtqftZL7o0zG/sb2mvX3XBZ2F2uBreD6khbUO/M79hw/tj3gZkiZXzhgQ1v8gf4rN11XUTTQz5eGckO6ywLsREW4syeIAAhvVKeOldQP1Vu9EIdLWW9pMH3lMtIkTTxmQW6il2bfVUY0NIm0bdRCHDfJ3w0xn28zfvd3Sz7Fy8CCWWGwfIZmooOErfseRjInXMmtL+iYqL9bTrwaqmChdjoFX8gHino6GVX3Hq4Btn+PHjzPXcFEBmayCjHheQ9dAEbc1Ton5Bx99FAzvIOdR/GLqxkgJpYyd644VKlm7KNpqvvsn4xzXLPPUdJ7Mltc9Z1Ug8TLVRlAIXuNMlQ/FolaJxOA4lov+3u98Le397hvpHBc2nX3/PLyFm0IviFjhJrf9sXmKw3bQU9dttwj4GX4ytmtrDGx4B+dWmVrNm8UmjDMf129ezf2CeOeP66wxC4uTUWthZSpmePJd0l6TgQs8B5m7lez6BSY2YY5Tx0O4nLt5aR9RR+jqhTBhb5yYQoMJ5iuFLc5XTANNSxV4GcTGUFvwD5XnM2B4pQJVlv52RmavWA4amrhTjchCI5jFIs2UV9yLRGw/KgdPHT2QXjn9eLoFU3v23Pn0/deH03lUBK5g7/DD85goolN6Y5NE17RQwAjYBFh4iNIoJCacpkxiorHBK9QLZPboQCGhjW6T05tf1O0X+SmyBEQXExZ/ImsCFmNhOfn47r9g9knF8CI/9XPicYbSNQ/xKCZ7pJFDfIADbm5aVSKyQ7GOsJsdCp3N00hjTh2cTF948mQ6zGGGnezuRrxmleSRhacMs2XbIcXYMvLBgDxRNaHE5K6akckIKXlHsNzih6+6TSkgdRsXbQ+jBK1nuNnm8rX59N65C5h+Y9Flgp9gV2z76mLBoB/EJ8MA0YETKZq2II2LrwdYbsFwyaRMjG5Pp596HLNNHHByoxQNHJn4yQ0XuTOIEvEATzKa1365JpcnnDW+b09zQvbPT7+OHdGw70b/X5PPCbytM2kdBuoxyzCpp6hee2zIyNdSIgPsgyTjh8peeum5k+m5J48weaN3x+Ur0zeuwThjLQDpnAu8mGS9WsZFM6aiSjFCAMwLoKI0x7WlOhIMdBGWQbzr9c1sMq7BRE3P3AgGWH1/9Uu/9pUvpLcw6/f22ytp6qoG3TWN5JcngPrfilGucNY6i6PlicvSEssc4UBSSHg9mBT5oX1MOCaGpqSRhl49epMbtO4y37kndoB7A5bj2FuiMu2jYoR1HEGCi/YBlhKbuACBwnaMo0YAMxOMQ6Qxf3jyM8CIta7AzkurpiOvYxpRfJwGvRzE5U8dZxdkLV0oFRL/mPsKmAws8JEOLsx3+LMf7UQ38BDzW57NckLn9Mja/vQAZUzQs6T+HvrVPrQLusbxY1MFypYtU7zWtVBMk3sAKkPoyoOL8/UO1Gj289UspyuzK1BKxiBVpom/HqRWwiqtvbFOibkMq/Uq0sG1OHTfpaF2uWUwVtkUQ07aRZObzCGO9VJuebao2Eew+Yo6wzRSPZkT8bH+If1EOq3qX8a0W+J6v/1uCfW4WaSJsaFl/TyArW9VimJNYwzJ7OqyiojINO0Tof6Ukhz3Cfu71xin6FUT7gbE9I6z0D8l3rXKPrLWRbsrhEH96y63vsVGjblCbRcZ8J0cJhweZmyQtYyRtTA2frdQywN3xtEE53m+9soZJLtsuN65iEWDy+hjY25Q6TRzyiJ/bqT3YPtf1Un7tTjrpFceq3m+DFVBwkttpE7Xb57yHn7r3QSEsIu5w7rcoQ2d962zB2X9ujQ9i242X6UHaJNhLF55rXxMNQDKLdDtGPn6ZS+pWcZ8ivrcSnjd/AWfBN7Oyd48KZ1783YPhv1YJx7OrfI3E2NcL43+tGtaS4OcjN+St6FNG/7wez4bhhdC2uMzo2erQmQ6TPbFm6OyoYZS1x7JCu2cBHbRubePLKfJZ46ll598LM0golc5/zq7sKs06BUmmjfZlb3z0WWkPtOhx1WYy2VPLjedyuaQ57BTKlwOaUq0qp1WrMC16XwZEycSc2UQIm7njoWMYFHPOjD688Rmx8lSGiE0dQe26TJO5jFcqJYbQPDmp3lOHj+Qjh6YTEe54ef0qRNIdMfTLsyzHeHQwHakQCMsdKNMqPkwXe7qQiuue91q1LkhZjD0MUIofAC6MJlkcW4QJQ4nxX3iPSIUkFv+WbpF7g2FHIaWpdJT4rQe7fgTrhD+6x98FHpr0nmAC1ZGsDzibUO2eXE9XwkRmo72MB3toO7u9E1ujqIPDXNy/bF9g+ml03yGYwJzMXF8RBfGHwtRAVqeAe/+f3L5BaZvMrNZSjVBH1SlgiPoYY3g1sxsuop0VVRLL7T/r3OBmzDzp/dQp0fPCJ4iJmCmXZ4AgTGI8eBYkASNKwusS4oqBPAy6d/7t341vXNhOv03/8tfpHffeQ/p60wwWq8jYfNmNBcnJXQeElQyLYbIiMEuL0yqK+QNOe3HmHDx9narj6mPUrLbt5DoxsEhGcmlNILU8KUzz6Zf+8bp9OpXnko3uaXpx1zp7XyQpfDzYfUgGsPxswn9PcsAS8HBKq4hRTJqsjEWbZnF7MAPmDFMjXSegB5S1YOuU1Mwq3edK6EZqlnTsxzwhcEc3saNdebbrFxKirYB0E3OFchkrnKDlLdn7YBpHsbSS6GzvVAqlfdoGt5UsMkIwcjyrhmyS5g8Wh3aAf7oqnKYcubmFHq9MjebIEKMrjA4CyykN5GUL8CQuaHbuWMERsaDeOa31uLdQMMjLoEXQoEgEgFaRFnAZvslNiczt6chF9Z8qJNSOtNaG+deVQxkPgM0MItzI6Vuqr83kZp53fUyG6gDe0a58GR3lO/h6HCU74iQOrmG+U3KXOGyJJnEIU79Ir+kD82k6/Qb2+X+HOOdrwp+urZt9u4eRbeaU/g9yQW457aRJtEr8MSYoX5TszC8ML2LSANHRnbEJlKG6eq1i9CqOQdzH4gsLPMFAfoqYRyE+X38+EHUIxh04eh7Fq5z8pEK5T2qWfqINHIjsg0LRDeol5Yy3HRwqQYbE5shamLftrNv4AIczO425tCbWDa6dnVaI0X0V28iG0eIQAnktU0L87UBmHVBuWf7CzDXQPqQqhFf/dLp9Owzp7DRO5n++//5n6Rb8Bhaqrhxleuib6DWpIoLaoSaeRtHN1r97JBYw4EHruJiP4EXiPdScrOeFjIZnJlkNjheYc08YNwcc4KMpbrbMrj2A3Xts467t9GxAcJS1YnDe9Mzp06nr3/1K5gH2xFViHYIwP54YPoO5hNn04fcvHp3QWJzSx0H+a/yRWoMyzjWPubAIeYwP+vG116x7ky8jnca+yZnF+bZhMkjHZyc4Bp71Kj8umhy6hZ0bOYo62HdDMsjtwuPyIfUldn3oUFPKYq7FKdC1H9COnYYu7t3+CQ6wyL34uNc7Tczh7kvJgw+j94m3B3v7AIdCMnIAqear3OowE58mxVXCwl54KlPx6Ln7M0gpxvYYtGQbQdtPXQHPsXEbh08lITmnaUdhv/NZOoUaBqZYHXa3NUOsyCod+SnSyUqu1BB2DnBoQYGmndSu2MNvSROTB9CarsHCfdu9Le0LTwuDIowXcwxTrmxqLp42qHsedX94ikg3R3cNj+/dJ3FRb5EnH03vfvuuyHFULLupHUJPbZm3mvRzK3GtL9uQsxwTai0fm5Om7NL6YlTp9Kpk/uZcDXr1Wv16Aot1M/KAw6iQfluDu3fSpX5ksiBSa5d5YDQ9WvLXDd5PTMSIGHyzlBpEYkNJhOiBBBXD6POcT2oByiXqNcUEtpppAirAwcCRpux4ynjqRycU+Ly1ND29A9+7xvp2385kN7/4HL6gMs9Frh96PYdaMakPjAwFQvjGIx6PhSWr3m1ED+jK2WSQVHiYRt5W+Es+qihm4zE8BbM5GFudzyMrvSLp59Pzz/9RDp1klsfJ2A2Tc9coqWYOx4Cu8YVpdrGBOdCh9KunWrgZTEkj5/OZUY8Qe1taRCROU2hrQuRi7xQMpPhVeDCnWPBmsWaixI4b6lUX/TSlal0ddsN5gfMLPI9YaMWEJIMQcxbvLiwrmBuyQtL9sI4aBlBHc2Y99oakKlxPUwIYGG0Pb3l6Qa3PPo1Y3SHEq+xuPXx1gJXm7uTWeOEkeHniEKbFeZeD+B5IybHkJnzOBx1EKsb4YRjRze3zJKMhH47EQ/j+EOlHCnUcro6NUsbQpsVNmTcyHflygUOMNthSQwMwYQU3qx9jqWZNlH3d1amA8shsgRjMDU70eHNuAMid148rhO0jdw35UsPsbv48RQHVdGN5sIHDsenC1fRbcZMGluDvtI2f/FAoV8q0ZfkuUNrO/uPwFhhSzg++WW6Bj4AieIbYIv05RswherDL7KWqTo1M4PtVNpnii+iXuDSEG3z4psYUw7BIKu36S2o+7kddXyEDU0metMeJi4w7TtN5vBk2jCs0CNFl3RW84N+PRkEH25QvfQRG7fMJNrP3YxEcxYQ5bnNm+1kZlnPkXjeoS5aOhphDd29B51mne0aOrz59X5+Lcu/3Jf05DfPKXjp1RdfPJ3+6M7vMi/NpbPvfJRef+t9dMxRC2C83YG2mgT0el4lnnFWBiGAKkF5/Yd5lgEmrul2gVIwgYRZD/2WvrDoNclKkjPDrlqXvEo+VMrcBCOsXW91Zg8d3JWePnUgnXr8WNw8+Rh67ocP7cT0aCE8dQi4URxUG+Lsx2I6f/488EaYZ5nP+Ep4EXgDq34Fc6NBPx6Gi7YZHUvRoQo8x0sW3rkJk+H1a7n63LuwtZ35kFzWxr8FzsaxD1soPfjhc3mS1Hg0SwET7wgdfScSz/1M2qeO8BkMGpep1kNuXs94gwViHsb31ux8fFqRKZ6lY93kU/FHKPc7OSzSkb2uzx2Pf5ZTJmSpUDpvLIQxOLOB9LAMIefh8CGPTexuNas2eBLUwyij7AKR0HIqNTO629MkSvAH0MXdhz6mNgF3w+RqxNkTyqouSHxhRZcBbtu5wK0JFSlKjRTNL1HV/dwo0E72UUKme9sWhtEFFrgR0GtNP/74KovvFJ+Q0HtrNkhXr2b9qx6CpfWcbDdyuQfkcr2xZyCdQtr/3HPH4xO4sXS1mOMKNhtBebAwcerWFMjRv3ngHedT1k529izLLF7clMjkvYSUN1QWlLJ0Jtz+cvPEKbMRi4zSAOBZ0iiLg5LvacanvTuzMP25fYsvKI4x+33z1D7qr37lmbS6OJ/273kPHM+mG7MworxfvjQbzXP9mvfdox8b+px8Ag2VDDcmWUfOBUiTWDK/6sv5CVqmepxPd7uR9Dzx+OH0/DNH0ze/9ktI/BivaKa4N164o9koPh2zKMgYaBIrS01zo3Tnj/7aUHEqL3MrTb3UQlWRolLgZrnMHy72UoTqUhdueWOeuomERhyHlMgARCm7FmgGVv3kDGO1EbMpzaA9BA/6qQ95CCZetbGTqEgdwKbmCF8PckH92LZv0U1JQyl65+YWop/7NUtmTNUED1fOwXD6yXUjt7Z/SKMhyQWzPwqM7Wz03eTvVsIrvlGST8uVFvrcBBAWfc1wzS8pGeXqWqTz2kG2T3l5hNK5aAfKEcq93EpIqGx7GWRYbyR/XuXrdcs6S8o4NEx3h9sUVfaFjPmrrDXa1+ZKWPrTtJej0L68Re5P/AkpW3NzGBuuXTA6u6CH6hExDK2EnSGQcfTkOcRgBR+Wb1+2X2mi8g6bytDVtk84Wdyns520QTvBJojllU2R5r/8SqLLpWUchCk+PnNb5GdOdZuLk2b4Aqvt3G180XEzJ34LSDV15hBarlNUyrfWrUafpm8Puv2gtnQrNw+7doylfQiC2vxtjgfz5Jo05TKO9SmAOnF4V5r8ja9zOHQaae/+YEz9uhK3m9Gec3w5mOFwm22udF0TazK+jlvVzPRLQ/5H/3OjqTPM/hF4046hi89YdGzKXMpPqLqiuS/5msHtbkTHGZ8c6OfA7le//Gx64cxzCB04kMhmNUwiOmHG2GjqAXTrxVQRAr+r12+wIUWQQLR0X0AAmJi77S+q+Xi3Qe4aAQiEe3DcCAQ/41QDo6xQYB+HILXYEami8SxfT6amb9m1kSXgoX4+VAyvHcWJqywiodsDxR3Y4ZygGv+AnYeX3WN0Gsx7PTa5nXxEEh4H3GgHpx+nZKXAKnNHWxF/i/c5tthOluoXWa5xTizuLL0X24NDDjulIvmmEc2iOEHaAZXq5mtYw+g5i6toxUCg09il9DuZuCl1c2a8E4FFWQfTgHD+MzIQ0EMYD4dl/jMu58+++vvzpQD0tw2ixaJhoriYLGg0288bAX/0ox+nSxcuhLRPJsZJQ6Y3N6k9ySB/MyR/w2JJxERw+yNzaGuvwNB4temLZ57hwNpxQUZ5lulfmOWJFbHN+jN4xCmwi7zZZwH2yPwmI7KHE+s7EBDcZVL2EOSQ+mwiEYwIKZu6BZDmRxOE1tkok8rIqV/oJnOVxVzJwyyLiAvIZtXowrW8kFZCHUfYN159CSP0p9Nv/dbfSX/yp99Or/3kLU4n32A8DiHNRJftNgc1qIcqQObN4xrKNrjmz4Z+4l/m0y0LDOpERzjI8tu/8SvxOffQPj6fsuAHq8XnXhksP98PIXkaG6QublGR1Ao35hrLkGob0ML2HHAhMS3laUFmJ3q04+gRmkc6ZfwkVswGhKNMwOs0krqP3j+H+oJxlEufiE0Pk4lfZsVEuGud8IqEPBZf6PzFF55JX37xqfTqF19gHuNTP30sJPmUBqh+R0CUE+jkuimpu3b1cizMMiSDQ43ebhijl1JrXEOTNaFpWN3jVcSZjJHjMN972Pwvq6dohYIiJUepVxe7jKu0uY30+87tGepxJ22Hlsu0T6jJACO3C4kKbTZql/jcLsnRLWUDM4gZsv17J2A2tD2rI79Fx0vBJSLAV8kckuY7sxgAWoBJgWEH/1U+x2dibkCPnHXd7zYYKg84q3yzZxfjDWGOa0V2IpBdboWmn0EAT+VPYcllji8uqNsGk8ioU1RLf1NlRyD9eBdYa5/2zwHw0HTYJFYzvEZWe7cdAjRZCryWMC2JJLGHzOZQNWJHyhrH2GLT2axwuY93Ct5orMTGLzpeXt9XlLyD15GDu9moHcnrqXXqkaUD8f68GfNOPYDvocedY+irHuWypoMvpy++9Hw699FF5pRLcenL+QtX4suK0lj72NLdUfqecz3/eRdvNz1hRgxCKKWVN+hRSZQVsElTvmwg0ZfJ3Q4jf2Bfvi7+KKbwTvHV+tTJ46i2IMmF/gig+WIsv0B7g6cM8kaVlz+I2xgR6jmfeklVfMDxxfklGHXycjBY1ijI19JQmNmFDjxUdpR5eG+JjribvrATwZypYjjFWMqZezkLhM/Pk9b7/985CGLyBxWfxZ9biMCmpfKhL18gOR0nBjpeG2SY92iIaNkmDQGxMCBN1ZUpfokF8u4y4v8l74J3V2ZCfukoSoDuLKgXlaUXXlc5ysTmoh+dyMIij5JdVBBchOxsUYI/4pHf/LWftHGNx7CMoRgRyH8n8+hYDRzji2vzl4D6/IVTQJ7ENrGd/CT25JMn0/Zdu9Evn2dCYtkqjUf/Y5pq8Ct9klcnrza8h759xV149E36lTpmLz15EIZA6QHpApQTH10+OhoB9vFP5Qp+GUjGMv8K+czpp7jdbBKm+5m8boGI4cF8gsOGuniA1LyadQw+LRCnVnR2x6mLsUbtT53gEFrfeOmvSBn7URblRp1Fl78xTP3tR2VoB+P59/7ul9MZjMlfRt/v2g1PNs+j068KBoej0I8LU1yBNVlZhDSivmsXdl9hknweZyHdwwJzmKszT3Bj4x5uIBtBDBntEEwt+q5MG7/05S/BGJ9gEcBYPQsP00zMGVKkXbw3ag5x1kkTOo1w96GHd+KxA6GfCBWjHcOKi+liGuIAGHU+deIwEsiR0DPkvho+v0JV1R/IMuDiReK8eTJjz4mTdFNyHXTH/ySfRg8f2MvixeEq6K6L9stcbw7o/sKzZUFD7g+7sPf9NLa+/6N/+IdZHcD6hGRUaWeI4rq5+/xBI+uJU0ABe4VqiNcJ74Lmk9HX81wqYoWIED2y8FOCIsArhDlpf2xf+vu//+swvqiqxFxvIumT8TVPt1zLbp30C1hKvWw/35cxWXUqbuyMto/Agk8Ay9khvhL6CSTkf/z3fzvN8/WQTk07wKSxHZOm+u/PCdcywBsaPsbVt4dhuEeHxcr64GLwZ39cSITXHGN8TXyFT/EnjnHO5aUXaBMajLTx2dryH2hucCwr7eRgGNzz5F6+kIzkvqpKSzjiVcWJRw7p+3VK0pzbSVSw/p0//lZaQJd3hT4y2LRHO0aaXPaCdY71OKv2NCohzqEwXse4Je0kesXq80absq+IbtuQaB2cNQEbJyMU3GJeoe2ds9x0DbPxGcXk3s4R1AmO7EqnHz+AqsNs/N1Aen0VNUltP7tZFxsZQ4ViqkpZR28284uMh8UUjO1CWu6AtZzdnC/YgwRfdQgvjHLTu52vUfuxcev42gVzqQ3mMS4e8QKUmBMaMoXedhC/0K33tIUmkQ6/cuZk+kf/8A/gkNHPZ/i4kWIiAA4b/2jH3E+DPCV7vOQfg0jRRLtpWkmnnz5Jv+RSDkPbPBtTNDJ+Tn4QNNBCmzqiHEB9tc6kmSPPl/7Bf84o9BMI3ZFB5455Ow36BFKT/+If/UH6wlNHY4LJOZoBtGlZ6yMgvZD5V1DsErznL7G2jKmLM7wX11SDsLY6vaSRsDtXlHwmaZMZ6EsfyUpKntBA6YuuzbPGb1wBE/7mpUAxtq/OJQLYD+K8yvi1SzPpP/sv/yuuNgaIO3+YjlWkFAf4TPTLXzia/sM/+C3Mwe17ELBbIK0E9096F5q7oDLTxSLlZKfVAVVi5FNye+UuQXrbyewRHh5fwvX6Vw6PvkpgfhpG76GZPPU91HAnwo2mDw9JTPaAfSEKb39yOS6fYt5zvjFZE61kc4n+kutk+qaO7bOXa72vB1XoAYNKBZNE/hEY+rADG3Xolt8PyWmpML99MaAjRqI+zyEN9fevcvXmx1dvxsUv3mKYTxtzqUDD/Mmo7kCiu1drJ/GZdHd6/MRR9Okxn6RQzkXMmz3ie5ABNEIUog4wf0hFvRVLbN2cxJT5iW3A3MWClw9B5Zx+ftZSg58qm0IDYpQVpLBySFhYTBe41WaZxSo2Ukgj4xAcNGF73cwxkYH8a5wEb3AzhRI7pT7ZNZXipddKQcqSIEiRsY2VPfQOVQdbDh1kaSN44Tg7W49N8DBhn8sjxRndPs6aj6qa9RVfmfgMJ0CbL167+OYmUdLm7Zam90/mwL9eyr5C+15MpRpGzgsSjGf7pRcu2C7O3tll2N3MOc5S0Eufz3XJn/ijRlF+qUM338Z+4MCUBP78amlCs1n5sGCpCfhRr6CDaEkPaKWAxpu1EIISnelmc9NDSSLDa2PbLp/sNNll/3K7bct6zfOgYkFrU8wF+hZtsR5eDhZfSmfiWFAya1vwN8BfRpn4TxorkUR6gH9kEn8ZUOZBEMu1EScijffvvlzGrUAwiyG5txSiGtgDWNrQ7u48uMBZjWvXb4YK2w2efq3SecHGbVQH7nDwTOGYZwfU6VXlx/lhD7rH8WUMgdluVGb2YIlqci8bT0yNxiF04HuBlKSJ0kWsuOKPiCaw649aNImcL5gr2P/l8Rjtl+ceGd5cN9tC+pKnD04pkGRGGecfL+r6S/scRKQJIr+tkSmIZzNwRj2Urp0KHzbsonFAqjzFb11b2QZNeO6zuSGizXJUG995bbw2YieUTBl+97eXtE0ZDe9byVyeTVALp82xzpNLyMFlLsgdsnSlBqaPDvhPnDjWlVQDfjYK2ELdVmIajNe80CnpiUNVtE1pv7Xl5Om+P7TblMYEyDbQNycTA8ofUAoa7bN4SPYzO2E0C1IDo0D1M90oEzGCnnAbMp1Nno0eBU633+Yh41RT6LhRzv6w/nILPUgDfoE5QRPgOa7u297x9PxTRwKAKW+zSN2FSVM6okqiUnPpmGvNwsDinD8fqzMIXsFldWeaKCbgySzG6fkAAIMUUCLqnj+yET2mNrdolNUuHE12ES5EizI4tIvUjo8GvXBwlM3NLtfCbPfjArRlRh3bgu4nK2mgE4veeGP9Ito0AyROj/S4X5fn5kw/pNAlW8PhCq2FVdBsCWPinNPPvNtplKhSpONHut2Hi1RFcinsCJDQOkv3rwer4JNDSvwKZzRo2wi0FrazrscE5PdP+IVRyfDtzdatv7TIXVDpFUFpqNn5RYlnqXdJlpHK0thPKD2iLTHPaDGigNgwu8baLg0jKPyCnVG6KNPApnA3leNsHHIAgU24aT/J5a7ZA5ZbGgAR5E8v7pNgrY9fnz/Dl5KN09OUlcPy6FXP18Niu49PplN8kTAu4kkrQ+yL/dA/qt/WufTNiCM44igg8vKuyxTHY7m68uzAifAmUze6LchMxCsc2Q6ukSZE4NbN8pqOkyMibYETsO/jp8U5xphvGULutfcB4CFLUkb7Q4aW6EjcTO6NGilicnTg3vFGm+TmL50MCPa+prGKpC4yrvtZWxpLTQd421Eb3Er2kiQf5ChvPos/e7vQ853dTQjJerCFWmY5/dX94ijQaa91hdqfZIxsKXxKiNalyQElvAuthJUs8W4CPGXNLj22Mx03ybuQCoSf9dmD1fMVWBmDXD9RE8u1mJe0/c/+CbYXV+rWNxZ60ffnK6sIqQvdfLpYtuMIJkI3jgrAKNJDJU0eTpJ5tp6xsPJUbSCvVIyxiIgfvGXMFeZSaMbpclhpnxx2r19asGWuelBa1ReyBqwCvgHVUprwjBXPCCy4kY8I1Rrux+V50JSloPwsb2th5FJkg5qadvt4m0lPHglicj/OHLlPm17cCdEblcswAjxt04UYYZG6SY9fAkR45Bfa/dHCGvVvpARWnDCtfQeXiPI9j4I8J1NyQSri88uDjRPKom+0YPSUSreBATx+Ss/LiahFDKicMH4jL7jzYr8ooHoQNvaZNzMA+tbm4r0MGGKlTtMj+oEFUxwF9+ojNPIWqvVnWP+WP9uLA38+istgG8zERyz6k5Sk935aty5gU6/pZ2uio5wmzKknmFbB6AiPcVLeVSEo3G0Tn/kNEgYd3K72yhOstAkY0lgaRpuamdYO1RhTmcdU+te6HB/6/ESV7Bmlkjfn6Y9bCye/l6qUkjKEkraElvdSSn+dSuzD/HxoGV77gX99bi3du+/B0HYD9HfeO95ucB98XtYWaXzJWp6GrU3ne8THDmttgiY1jy4M4eSeWkJ7HSjHGZ/LMkVJFXH15xdIgX7Kl2k3t9banrARWjl/zmf68kd4WTAim0tKidtsotsI/oOE9dcliusEWXq88uOzE3UfhfBJ0hwxw5acQuy6XMMS243Z1B80QnoUyBX6NMtvACIsFg0lTEglKV9fOMJjaoi8JZBnQ/d4RHBhQAr8Jq3wowxVt1x+jL8/V2B3Ucy5W6AtoPxJ2h5S4nL9Im9ZsZrUUjDC29z38pAyAyHR/eQqGPZ6YsapvwxTxYLdH3yPN1IX0gUavEe9iozRrPYf28EEa3AteU1WopqwB8GjyxoXMILUSdUc1v0tcZayNke3SubtIpnzbfwLnPWgNki6Ebzc+mbvAxEvuQ/3VDM2ANkX1ECxmLaPdaEaUXAotOkA6CYtwU3yBnIJ/eRnA6uU1stQCunHpRd/P74Co0ez9eUIp5RRsJfWqpHkujueC6SSIpdOupZ+OU1JG6pZ5Ir5SPDBAPMgfS4tAy34uOmy/Qq1c1uWHl5Kz6X6K5QcS1wLpHjKM6dfn7sHZ73P1L0cBVLBq1eYOXvp1sN5uEIeWoY3aCiVN6LlujASGubK1ul4QerSUr6Qpvsa8Z2fdWBzFn7N1R9b3rrw+lKVBB342UuqNqGJ+hOWty7cdSBqwC+YAkwr9K2eZKVppeCk7hcV89iq3T/zdmDFDq/EG/dzdqWT+SwdD6+TfH7lN9J0Iu+FUot/k60FWwrKmXuT5r2AdeIsvsXR3AVexiujqL+BHOXc6ugAABwoSURBVAH8NGjHlBC4EdDNWvyRsynDTM0ckqMbWsRLA5Ckn+SkoYugOWJaMgMwutNTF1pmtvLS1SsXX/SxzGy5iBqnQKmtnN57OjI1BWW47WuTy9AOJvHaey9tFeTbsJxe2g2jS+DaZFQm1yczuBkLE5XFvWTkWRA3qAOnMBV589JJfw9v/rzcJOirui2m6xbga3nPz/JWcGqjzSpC9+UoKTKWit0rHz0j8DSNfyUPz055dpOgB8/SZveFSoEXsIDfh0q3PPwW3cb7YlAejVanjTJhRPdCIvEmP/kAJmkzyDZVj7bC8a8Zi22KB/QIv0GpO4e0xfbRICd0zu/rM02RMSwbWGuxKPDiaSX0xCSAn3fL7vW2hn4NkAyyy5aZ2dAA0qTKj4BfKhQIGW55GUrO05dlk5cCv0Q3+Zs5M5dT4rrPgls37OH2dym7OaZRrx5RCjl7GUrzGUIDksDJvkeo9Tl6eTfzATMOkmSYudF7aXsQSylMlJZLkkC3SWp/W+u6mK2PI6TtMPjbmb6U0+QwTf7fB2JNqiaui0QvUze0BdIg38Ux+029UY5S4kZxZGmj18R369gWXj2bUSA+u62NjM61hq5r0hTyG5wXopK+aWgekaaF5VsTtwZWhrFB4AMG3Q/0Ns1GA2jT8hpmhb7Vl21tXysk2BTO+ohmuOWIgNcAiUef9mF8pi3ri4up46edoZr00RYRJ0gCGxwLqtY/OzM0C22Tt8Tc6xlJ4yARvoYYOazJVQrylcJ66hQlubQUi0YmKRjx1PUBykGf9NurT4aaQfRC9eWwDnCIGKiXxbQ8SRKpUHe4XxfwzVSKbIvpwuj6O5DbOdiw3JaC0SdN8lXxnfT38jZqL7kGQCntUOoUCLbI9UFqQ4MOTV7ze1BIQvV1+r6sfS8Zd6XZTb8Kagq9/GVfZAK+oYFneCI0/3ToUvpGRmFtwk6erldEon+Z3heeTbV6EHo+U+dkuQa5JRxdeYWKrx/NeCvKEpHnE3+Ep869ZTXl5SLKW4awBpVPBBu57VOdjMLt0E0YJbZsUA2ziXN4U7uolzGN6+Jawton9ABArg+BAiK9YQI2PFPMCOE3Ttx6b01giW2eDe6RlBTlWdq/yRRglP2W3G34Jp4ws9iJi+q10DsRrfd+IbcZHgrPhgyvRMwNAkGpVzm46XXB+WpGu7r2JG1Ebef5tD7Y3GTsz3J68RYHQ7xIL06eakrHePpe1j0zZ49gvfKazhWwSNFMqJ0uYSEbuMgQ4ULtQV6fNMfdK8VaAJukfbDg9Yg0IT3Mc0CZf/tr0aNWr1hzZl27kjZ0BqPBPGGKYX7s82nTcBVTMds4fdKyBZwCH97mFaO2cnNwZ1MMa8SnoUCvvdZCaWJ49KfxrT9kbc5P+95Cbz1CzC99QQ9cUJN7LZC17w8Mt2DXZFwDz9eszNCLL4tNGTk5SxltBUB5kq/xlpDyzBB56w9oCrr3IzOxm2TsBnf9fSCN6F+wN03al2/9y8b5eqGtr/VQ5bzq6ckAy3M9+E8MacGGJyuc6C3t0xSwCZw2d5OjuyJ04zbJ3g3uY9I/IW8b3Y9lpgeRbfwmjHq33I7fbN0NTo5qgfWnXBe8LqBNv3lMm6TfExnW474pnDZCT149+iljeBlj/UXd6y3DaIHnpGte7xF4L9DEdQC13tbTl7cb2uvqhnZj+rJs+tKOnU6KHFZglWc3Qce/qTfnK7nLcyMU27hNYfUievXthZV6r4fTC+n5uvkeXv+GDG9GN1fF7tutVOzq4F4V82/D+HcansB8DtMyFNOO7V2MNH94bipdxjYmt/SFaZE4VOJONZgxuzeZM4ccRfU6Qrcko3Lpa0Mj0yP0061f1983d7Czy/9sj2YR9OCDEgtor/0/n5JY2cHl6zPpg8s3MJ8iDU3vNRyaMME4Nr5lntu07Rk7fAKqqxT4nFOgb+xsWJdPTrFhtp858LMo77OA8TNX4OeU8dPW6dPm/zlV64HAPqp1eBTq9UANWRN/jiiwfnu3EfJNH87SdJgsdsnu0X/1ay+nHbt24JPR4oOGzFfwV8Ppn/7Zv0x/+TevIeU1MzvyKMmdOe+mWftH0HpXEq2P6YUIv0GwF/i58LW2E4NFhXYyn0HDho6l+j5bgkWqeMv1piVgfG0Rmd3b2kLk+U+//dfpv/4f/1fsiNI22CPV8L8wpNTevbvTV17+AjcvcYe5xuOrqxSoFKgUqBSoFKgUqBR4hCmwCcMbHFbmsaLyMEuN7kg2Np4Z3q8+/wQ3hTQ3QsFyDQxykllJL9d9fHh5Ov3w7Pn043evoOLgFSmAUxIpPLkuf3hvXgzIrim6vGYk1gX2osMXANeEPfyv/VhvUMduAmyjKdlVL0caBvvaxIdaGn5sYccG48++83p68+LNdGdlOIzXe+XtCld7riDV3c6NLo8d2JNOHd3PFZAI+L2pp7pKgUqBSoFKgUqBSoFKgUeYApurNMh/+SdTJbPLf1kuXw2WTfqdX345fftffy9dPD/PxSy7keJq9JpY9B0+4E5qb9TZNTmZdu79cjoxDrtG1BCwwuhGw2orlSwuiooCLMG/ruu+dzJ1k3ze/J3bbAL1IECuRKltaIE0kSVa0ql9619sGjA6vYBXvelZ1Ej+h3/yz9I73LKmAf5oKTKuqMeLCsPkrtH0Ba6BfOGJ/YmLdWiLjhH4XHT9rRSoFKgUqBSoFKgUqBR4pCiw4dXCMq3lPmdvpPWgWnwv59O57zof3iv956+dTd97fyr9d//T/wVvNSInBr+7FLcZqV86hhH4J4/uSb/5jV9Kv/t3fikd2skVfEgVC/MWwDo/ER76qJ3AvvfNcnbSf168hast+Fo1nMElqjwjipe1JlKU9N7m529/+kH6q7/9cfrea2+ktz64nFZHdsU1hwMDI+jrLseNSQPLs+k//Q/+KP3eq2fSqcntuUkB3DSpRVdXKVApUClQKVApUClQKfDIUWBzCa9VhRkKKWKRJDbVz8xXtsDw4olDaXR8Z/res4+ns+cucUgKESNXDHoQzb87S4vpHT6vz/3lv0mXpq6lX3vpiXTsyOF07OABrgUdDEmxZYRkuGGDQ3YJE6eEuHe4zVLh+OQAA4EGmUfl0alTlt5mylvhMGdifJCgYU+hw/QcBwSnbqTX3v0w/Yvv/Jv00fVb6crVmbQyNMHVpMNpG9erriwvwdCupl27dqVXnns6ffHUkXRoO6on5BecDPMjSU/rVV2lQKVApUClQKVApUClABTYkOHt8F7wQrJEMlmE5v8Nf2Sq1XR4cjfqDKPp1acOpisXP0jXFhcIHofhGkVnFOYXae4CyqXvfXgtXYMhW0qj6cz8aFoenkyH9wykMeCP80k+7rYvyqiUp3qvvK3Mb/7HS0FA7yPgeuocStShc7FcYeVx3Zpre8HDZ3eXsYSxOpRmF1M6N3U7vfHh9fTPv/tG+t4PznJ2bRQQmIsbwhjc3QXyQ0HgctV2Oj45nr75pWfSyYM70sTYiMGhqRJ0fwRoWatQKVApUClQKVApUClQKbAZBTZUacisZsNxop6QNXazxLFlgOVGvfMZNYdFDlRduj6b/tv/7f9MP3z/Snrj7Y/CXJn8aTjSrqALMcj3+BGY22EsBhzl4NTf/fqX06tnnkxPP3447ZnYFty36sJxPs7im/zxsDzZ34YZzIA/37/ZJrGM7RpHxWX0ddJAPthtB2q46dyFG+mdC1Ppu6+fTX/1vR+m6flFdHWXMTdm6kE2GiNIdRdRYVhJywsLaWXhdvr9b/1G+lWY3V955em0e3QgjSjzleEFHqmQpNeDa1KvukqBSoFKgUqBSoFKgUeTAvdmeKPOSGlXtb4gu+kDzioOW8H6EhaOw1J+Ov/R+xfTjz64lv7vv/5h+snZc2lubh613rGQ8g7CiC3fxe4regqrpJXxPXp4f9rPIarJ7UPphWdOpeeeOJH27RxLB/ftxfrDeELjIZg9iwm7v01xj85DNtY6yuVnKbo0NtQnGglp5tbdNHXtejp38eP0k3c+SOcuT6UpVBku35hNV65cQ48a6myD0eXAoObitkEopbsry7fT9rHR9A3Mj/3ur7ycXnn6sbQPvV1LCfbWQthZ5JuoDK2uUqBSoFKgUqBSoFKgUuDRpMCGKg1WNevUyuA2Dg5MaWMr4cWHfDeczChf0dOLTz+exnfu44avpXT39u30/qXr6PBy5QHM1crS7WwBS8Vc0i/CJL/30eX0NhdVbFtdTGcv3UxfvnknHdu3A7NZe3nuTpOYEVD3dGx0JA0PDfGHpQfEko+MlDeYVRUXoBG3dyxwuGwBYk3P30kztxfSzNztdH36Vrpw6Ur66UfX0t98/w0Y4Lm0uIRxMjYQg8PjaVBxOOJaNxGxAUHtYQRGd8f4rnTswO70rV95NX319HE2EnH0MJhpuWlvwLM9NTNX5btNR66PSoFKgUqBSoFKgUqBR5ICm0h4u3VVFJglgEodM8Mri5Z9pswf4NExRfK7BBc1x+1e3/nhe+mvfvBG+svvvZauzd5B93Q5DSHt9VN6cHgNo5a/1y8HjGG4ZmENoVh6YHJPeuroZHr5C8+n00h+j0zuTHt3TqSJcS9ZyCACK+AN4emCzfJRE2UcxVsn1gNFTzZCmqNypAshazzXqE2UzJG+ARIwKJH02WXK6O+7v7opS/UEk3ojnZcBy7AXsOLtxuHm/FK6jtT2Y/6+++OfYnXh7fThxatpAdNiaCiERYwlmFkBeU2wMJUMDygZJlx96VVs7a6uLKUzz55If++brwbtTh3ek3YOoy6Sm0wUG2fdMx5BxxJcn5UClQKVApUClQKVApUCjxgF7oPhvXeNM+NWWCfShhh4G1fbIuG9ciO9/sElmLf30pvvfZAuXLgKw4cG6aBMG2wWTFhhGVdgiIMLjIDVNDo6yif54TS5ZwfSyfF0iOdhpL779uxKOydGQ+XhyAFs/I6Ppj3e9oYe6tjIQEJFNQ023KSoyEz6KlglmdtWDWlKbR7tOzHrXWaGDe/xt00B5A+etoloQgNEAW2YfzK2c3eQ4GLLbR6p9vUb06gkTKXrt+bT1dlZNgVz6erUbLrJ5uAqUt1rM7fSnQUui0D3eRWtEiFIM2GFhFvGl39Li1zvDKO7hwslTjy2P504eij95ldfTC+dOADtdgdNIHfWixZMceLe+AuuJao+KwUqBSoFKgUqBSoFKgUeJQp8RgxvYRll6zIbtcxhtgU4zmnUG37wxtvptZ+eTf/qx++mj+dSmp+fT3fmF+CNZUG1yCDLZT4kvcGtZuZ35S7cKyLhAaTB4+NjXIU7kfbu2JF2T4zxHElHD+2F0RtFN3Vn2j5OOHE7sUAwrsgXWIMwiAP8DY8Mp7HhIWwCD6ZRuL/Qdw2bZ0o4C9tXMC91AQTO2JxC9jK7wJZAw+8izUY7IyxRLMO03+X02F1MsS2jYrAMc72ImsId1BTm0O2YunErzS0sp1vQZOradDp/8Xy6MX87Xbk5k24ZriRc5hZ4WlrYFtcBo/dMQEiOvdjDQsXENNRBXeg9E4PpJaS6LzxxKJ0++Vh69cXn2FZAWZIpSO/Tf478LQiBtfWKl/pTKVApUClQKVApUClQKfCIUeBTM7wyXuGCG5Qx6zG9MrMyaqicptm5O+ntKzfTn/7Na1hxeDe9/ubbhHsz23AaGFbVIUtSvf52wINtcHbbBjgsp4yWG8JWV5B2IsnEgFkWlwJzOdLyuR4G98gBJMD79/C3L+3fszNUF1SR2Ll9e5rcvTtUJA7u3Yt/Zxobx/4voNUHzgwvzGxwsTB/UY/MKOqN2sA15ur1mF6rrXrCHLc+zMzeSlc5WDaNfu1N6qme7TQH9mZv30k3kOBen5lLU9dn0mUOnM3PYbaNOngrnUA9ZBYcKU8PnRGQ6x6bgSg1JLsrMM7q6QYTDD0GBjDnxtXAp44fSr/+1VfSv/0730gTqDbsHnOTgE4wm41GiB5MssVEhI/K4gYV6k+lQKVApUClQKVApcDWoMBnyvDKBHYZXmS3MKoyroNpcfFumltcSpeRZl6+OZveQ93hJ+9dwPLA+fTB+xfSAhLOYHDhOGV4lV7KsQVLGoq/sKYywTCLRY2gMMdKiEdRZxiB8R1Bkjsy7MUKXmDM5Rjou44Oe+htkHjieA4iOQ2pJ8ylTCsJ0xCXZQyRbwAYwQQXzpc6CV8rFHdVMcCmcIh0zUTWuzCiSytZsrtEXZdhNBexRnEXhV0P6y2iwhBpeC6iyqAUWLdtEKsKYqhebuZGqTfvWYQL7Fxf00rDVXR0t8H07z/Igb7De9NLzz0ZVi0O7RpHv3k3F3lMsnWgvjLnMs2ZVw4cRTV7CqtbIg2vrlKgUqBSoFKgUqBSoFLg0abAZ8TwyjT2DrEFwyg7R7C8nPxq5h+JkXFE3WF6cSW9dvaD9MM30e/FnNnFqen43I+GQJpFYrrABRYrweAKQLUH7AoQJ6CQisKqhgkupZ4R7uf+HpMYzdYwj8FERhyhIBMMJAyp+VdljFFzGBrlZjKY7EFvaZAf5C/ivUsZSbQM7zIMa5a0wtbDqMqwEhlpZdIjjxWNymYgIbUlSr3lQDSkxVJIxlTmHSikXwWfQFf8xAkbx8Mw7xNYXBiHYd+F3vI4fLwS3RP7d6SvfelMep7DfNvFN+ofNQ6vvlUY7GDeASo6qlfEAbfAmgDzFCeq1VUKVApUClQKVApUClQKPKIU+AwYXrlZqQPTlj3rSCVvVfgrk5a/khDeN7321rl09vzVdGlmIf3o7PuoPLyL7itMoIwg6g4KQpUUY48gA5DPQ7IakuBg6ighuGtLIlKHN8rNnDIBlNwWbkzEtjBCgtzCMDl10taXdodNat7gSo2SQSXQsIb51gf3TB5wjAw8ZV4jPIdkdQ2SwSCvqLBLGao3WM42ylGm7Sm10bFtaXLXRHrx2afSEwf3p9MnjqSXX3gqTXBBh/aJhemfNQ34vepYWhPoM0f4m51sumWUd54BoPNevZUClQKVApUClQKVApUCjxAFPj3DKwPacoM9RrOPRh3+Sv7Lz+09NixLhuewO3sHzncJae48qgMXr95IF67OpLc/QOXh8tX08c1b6cbs7XTj+k0Odi2lJf4GUFGQW/OmsBXMcQ2gvpD1YOXgKIFH8Hv4e/ydccTCBHugLTslvTKwSlZbFjLnj7zWERcgm/zxTjgMcoQ0P8LNCQ0opco4y7jzHsy5TDEqD1hYGEEPd2RiJO0/tC8d3LEz7eNw3pknT6Tjxw+mg5M7sE7BgTzgjI4MpR3bx6hr5uujuGC4wyc2TWmN5LnoNOSEEZ9/mvQFNQN7IDrpqrdSoFKgUqBSoFKgUqBS4NGgwKYXT9x/9Qq3tIaRkhkrDq4zx+Yw/R5mK6G+a14MddRwq6sj6djukXR593g6OLaSTuwbSxdvzGCqCxNeU+Pp9sISh8UW4kpdr9VdQK92EYsOqgesKpW1tIaBVRVBfyAQ0lQtQxCEdHgFBncFxjNknjC6YS3C/KSX8Q2VCvR9VS8QdsCR4zQH6eRfw0CuaZU2C9/KRGH5qVqEesRKbrdR3jiXaIzwPoYO7zgHzEbG0C0eH0rHMCl2BCsTB1BhOP34gXT4sX1pL8zuBAzxoAWJF7CtnYx5LigKsyBC/cv/DPVAXs91/U3oBkG99NVXKVApUClQKVApUClQKfDoUOAzkPBuQAy5L1mwwmjqDwbLsMKsyThm5tGg8PJQZcGDZDKhg0h7jTLvIp//b2PC6w6WD+7A8F6dnktvX/o4ffDxjfQh0uC3PriKDvAS6TITu4IOq1YcVu6id8tBMeTAwJHJhvUcUBUiS1yzHm1BK+MjEyyTKvrWI8ugg9UMptZQmWUlxKvClhlFRzYYZsJVVxgYGkYfeDgsSEygfDvGYbjdMLdPHTucDmI3+NRjmBDDVu7IKIflYIJ3YT1ix+hYGgWWUmnrHULahjEVM8koLTwYaHB+ZpwbAjeJeJCiyepLzpt9+Tcio4K896Xspqr+SoFKgUqBSoFKgUqBSoHPPQU+PcPb4Zn0NjxZEKawUWvDe1STmWwyhbiUtyKZNALzWzJjYa+X9wLHLDrfdTKHmq+d5VayOf7mUY0Q3ApmEmZu3MQU2G2kwnfTrTsLmA2bDwsKC1iNuHTpUlhUUCqs1YS7WlLA6sL0zCx+1CbIP84FGJO7dnKATBNpwX7DxA5ydS/hXOygXd9x7Px6uGzHxDg3wY1yacZI2rFje7xvV4KLUBmNBA6dcTgOKFYtGNjm6XtWvcDT1CqYfhh0XZAi6EOleAkShbiXl0KESGlipbwGZ4bXvOE2SGe4wWtY40hefyoFKgUqBSoFKgUqBSoFHhUKfOYM74MSRrlpcF2RsWXPGk5ME15yeJnxgx8Nb07VMMuZByViNS3ArGoG7A76vaHegIh2AYnwIubQNA22gMRXVQhks6HKcHN6Go2EzByHKgScpNf3zpNHhtcSRmCEJ2B6hzFbFofUgCnDOwyju3NiAstp+dreURjiMdUVsKwwhG6xfvVuh5AUD5GG/2lErjcqW7jPOKLWC4qKEcczM6I8KS9LpxvKFgl5gMiUaGIiX/bL9Oa4NSnapLmE8rp5qpKiPisFKgUqBSoFKgUqBSoFPq8U+PQM7+e15hXvSoFKgUqBSoFKgUqBSoFKgS1BgfJlfUtUtlayUqBSoFKgUqBSoFKgUqBSYOtRoDK8W6/Na40rBSoFKgUqBSoFKgUqBbYUBSrDu6Wau1a2UqBSoFKgUqBSoFKgUmDrUaAyvFuvzWuNKwUqBSoFKgUqBSoFKgW2FAUqw7ulmrtWtlKgUqBSoFKgUqBSoFJg61GgMrxbr81rjSsFKgUqBSoFKgUqBSoFthQFKsO7pZq7VrZSoFKgUqBSoFKgUqBSYOtRoDK8W6/Na40rBSoFKgUqBSoFKgUqBbYUBSrDu6Wau1a2UqBSoFKgUqBSoFKgUmDrUaAyvFuvzWuNKwUqBSoFKgUqBSoFKgW2FAUqw7ulmrtWtlKgUqBSoFKgUqBSoFJg61GgMrxbr81rjSsFKgUqBSoFKgUqBSoFthQFKsO7pZq7VrZSoFKgUqBSoFKgUqBSYOtRoDK8W6/Na40rBSoFKgUqBSoFKgUqBbYUBSrDu6Wau1a2UqBSoFKgUqBSoFKgUmDrUaAyvFuvzWuNKwUqBSoFKgUqBSoFKgW2FAUqw7ulmrtWtlKgUqBSoFKgUqBSoFJg61GgMrxbr81rjSsFKgUqBSoFKgUqBSoFthQFKsO7pZq7VrZSoFKgUqBSoFKgUqBSYOtRoDK8W6/Na40rBSoFKgUqBSoFKgUqBbYUBSrDu6Wau1a2UqBSoFKgUqBSoFKgUmDrUaAyvFuvzWuNKwUqBSoFKgUqBSoFKgW2FAUqw7ulmrtWtlKgUqBSoFKgUqBSoFJg61GgMrxbr81rjSsFKgUqBSoFKgUqBSoFthQFKsO7pZq7VrZSoFKgUqBSoFKgUqBSYOtRoDK8W6/Na40rBSoFKgUqBSoFKgUqBbYUBSrDu6Wau1a2UqBSoFKgUqBSoFKgUmDrUaAyvFuvzWuNKwUqBSoFKgUqBSoFKgW2FAUqw7ulmrtWtlKgUqBSoFKgUqBSoFJg61Hg/wO0qN7CrSXWpQAAAABJRU5ErkJggg==;" vertex="1" parent="1">
          <mxGeometry x="459" y="351.8" width="104" height="31.2" as="geometry" />
        </mxCell>
        <mxCell id="kyvqr4E2ZVsF8LEO7qvA-26" value="&lt;span style=&quot;color: rgb(0, 0, 0); font-family: Helvetica; font-size: 12px; font-style: normal; font-variant-ligatures: normal; font-variant-caps: normal; font-weight: 400; letter-spacing: normal; orphans: 2; text-align: center; text-indent: 0px; text-transform: none; widows: 2; word-spacing: 0px; -webkit-text-stroke-width: 0px; white-space: nowrap; background-color: rgb(251, 251, 251); text-decoration-thickness: initial; text-decoration-style: initial; text-decoration-color: initial; display: inline !important; float: none;&quot;&gt;Database&lt;/span&gt;" style="text;whiteSpace=wrap;html=1;" vertex="1" parent="1">
          <mxGeometry x="684.01" y="245.99999999999997" width="62.67" height="36" as="geometry" />
        </mxCell>
        <mxCell id="kyvqr4E2ZVsF8LEO7qvA-28" value="" style="shape=image;verticalLabelPosition=bottom;labelBackgroundColor=default;verticalAlign=top;aspect=fixed;imageAspect=0;image=https://miro.medium.com/v2/resize:fit:700/0*J0QGhOOD07afS1Dr.png;" vertex="1" parent="1">
          <mxGeometry x="675.35" y="197" width="80" height="57.14" as="geometry" />
        </mxCell>
        <mxCell id="kyvqr4E2ZVsF8LEO7qvA-30" value="" style="endArrow=classic;html=1;rounded=0;strokeWidth=2;strokeColor=#306091;" edge="1" parent="1">
          <mxGeometry width="50" height="50" relative="1" as="geometry">
            <mxPoint x="645" y="560" as="sourcePoint" />
            <mxPoint x="687" y="560" as="targetPoint" />
          </mxGeometry>
        </mxCell>
        <mxCell id="kyvqr4E2ZVsF8LEO7qvA-31" value="&lt;b&gt;HTTP / HTTPS&lt;/b&gt;" style="text;html=1;align=center;verticalAlign=middle;resizable=0;points=[];autosize=1;strokeColor=none;fillColor=none;" vertex="1" parent="1">
          <mxGeometry x="540" y="546" width="98" height="26" as="geometry" />
        </mxCell>
        <mxCell id="kyvqr4E2ZVsF8LEO7qvA-32" value="" style="endArrow=classic;html=1;rounded=0;strokeWidth=2;strokeColor=#CC0000;" edge="1" parent="1">
          <mxGeometry width="50" height="50" relative="1" as="geometry">
            <mxPoint x="644" y="590" as="sourcePoint" />
            <mxPoint x="686" y="590" as="targetPoint" />
          </mxGeometry>
        </mxCell>
        <mxCell id="kyvqr4E2ZVsF8LEO7qvA-33" value="&lt;b&gt;TCP&lt;/b&gt;" style="text;html=1;align=center;verticalAlign=middle;resizable=0;points=[];autosize=1;strokeColor=none;fillColor=none;" vertex="1" parent="1">
          <mxGeometry x="574" y="574" width="42" height="26" as="geometry" />
        </mxCell>
        <mxCell id="kyvqr4E2ZVsF8LEO7qvA-35" value="&lt;b&gt;TCP / 5432&lt;/b&gt;" style="text;html=1;align=center;verticalAlign=middle;resizable=0;points=[];autosize=1;strokeColor=none;fillColor=none;" vertex="1" parent="1">
          <mxGeometry x="553" y="181" width="78" height="26" as="geometry" />
        </mxCell>
        <mxCell id="kyvqr4E2ZVsF8LEO7qvA-36" value="&lt;b&gt;TCP / 5432&lt;/b&gt;" style="text;html=1;align=center;verticalAlign=middle;resizable=0;points=[];autosize=1;strokeColor=none;fillColor=none;" vertex="1" parent="1">
          <mxGeometry x="620" y="304" width="78" height="26" as="geometry" />
        </mxCell>
        <mxCell id="kyvqr4E2ZVsF8LEO7qvA-37" value="&lt;b&gt;HTTP / 8080&lt;/b&gt;" style="text;html=1;align=center;verticalAlign=middle;resizable=0;points=[];autosize=1;strokeColor=none;fillColor=none;" vertex="1" parent="1">
          <mxGeometry x="297" y="185" width="86" height="26" as="geometry" />
        </mxCell>
        <mxCell id="kyvqr4E2ZVsF8LEO7qvA-38" value="&lt;b&gt;HTTP / 8090&lt;/b&gt;" style="text;html=1;align=center;verticalAlign=middle;resizable=0;points=[];autosize=1;strokeColor=none;fillColor=none;" vertex="1" parent="1">
          <mxGeometry x="308" y="344" width="86" height="26" as="geometry" />
        </mxCell>
        <mxCell id="kyvqr4E2ZVsF8LEO7qvA-39" value="&lt;b&gt;HTTP /&amp;nbsp; 80&lt;/b&gt;&lt;div&gt;&lt;b&gt;HTTPS / 443&lt;/b&gt;&lt;/div&gt;" style="text;html=1;align=center;verticalAlign=middle;resizable=0;points=[];autosize=1;strokeColor=none;fillColor=none;" vertex="1" parent="1">
          <mxGeometry x="233" y="462" width="87" height="41" as="geometry" />
        </mxCell>
        <mxCell id="kyvqr4E2ZVsF8LEO7qvA-40" value="&lt;b&gt;HTTP / 3000&lt;/b&gt;" style="text;html=1;align=center;verticalAlign=middle;resizable=0;points=[];autosize=1;strokeColor=none;fillColor=none;" vertex="1" parent="1">
          <mxGeometry x="131" y="290" width="86" height="26" as="geometry" />
        </mxCell>
      </root>
    </mxGraphModel>
  </diagram>
</mxfile>
